<svg width="488" height="347" viewBox="0 0 488 347" fill="none" xmlns="http://www.w3.org/2000/svg">
<g clip-path="url(#clip0)">
<path d="M70.4627 246.272C71.4824 256.169 74.558 265.744 79.4923 274.383C84.4267 283.023 91.1111 290.537 99.1174 296.444C100.583 297.518 102.09 298.533 103.638 299.489C119.117 308.981 137.222 311.943 155.579 311.556C165.79 311.254 175.963 310.184 186.013 308.353L191.936 307.307C193.914 306.961 195.903 306.543 197.881 306.145C209.78 303.78 221.669 301.143 233.6 299.301C241.424 298.044 249.321 297.282 257.241 297.019H257.419C261.511 296.904 265.614 297.019 269.716 297.27C276.541 297.815 283.328 298.766 290.04 300.117C293.18 300.693 296.236 301.331 299.323 301.959C302.411 302.587 305.226 303.173 308.188 303.749C313.808 304.795 319.208 305.789 324.441 306.543C330.946 307.514 337.501 308.115 344.074 308.343C347.804 308.472 351.538 308.413 355.262 308.165C362.541 307.716 369.744 306.428 376.726 304.324C388.647 302.985 412.079 291.441 418.714 280.777C425.778 269.39 429.337 256.329 431.828 243.226C432.299 240.715 432.749 238.203 433.157 235.702C433.345 234.55 433.533 233.399 433.711 232.258C436.38 215.859 437.563 203.258 432.194 187.026C422.712 158.11 400.431 133.212 371.954 122.046C355.617 115.63 337.418 113.265 323.059 103.103C299.281 86.2431 293.002 52.6905 271.202 33.2037C255.075 18.7822 232.616 13.968 211.078 11.7702C193.046 9.91784 174.679 9.53062 156.898 13.1412C136.155 17.3274 112.398 28.0023 101.608 47.0705C90.0437 67.4993 86.9564 91.9259 88.8925 115.034C90.2007 130.648 93.8532 147.1 90.3577 162.673C87.5006 175.347 80.405 186.744 76.9513 199.501C72.8174 214.781 68.9661 230.521 70.4627 246.272Z" fill="#6EA4B7"/>
<path opacity="0.1" d="M77.854 328.026C101.455 328.026 120.587 324.796 120.587 320.812C120.587 316.828 101.455 313.598 77.854 313.598C54.2532 313.598 35.1208 316.828 35.1208 320.812C35.1208 324.796 54.2532 328.026 77.854 328.026Z" fill="black"/>
<path opacity="0.1" d="M233.508 345.692C257.109 345.692 276.241 342.462 276.241 338.478C276.241 334.494 257.109 331.265 233.508 331.265C209.907 331.265 190.775 334.494 190.775 338.478C190.775 342.462 209.907 345.692 233.508 345.692Z" fill="black"/>
<path d="M36.5329 182.105C39.6241 186.228 42.959 190.946 46.2504 196.088L46.7203 172.369L46.9796 172.535C43.4689 169.967 39.6137 167.906 35.5278 166.413L35.7871 166.558L36.5329 182.105Z" fill="#626C7C"/>
<path d="M35.2672 166.322C31.0282 164.877 26.9152 164.397 23.1556 165.068C22.9601 165.102 22.7678 165.143 22.5759 165.183C23.5312 166.208 29.098 172.261 35.9895 181.382L35.2672 166.322Z" fill="#626C7C"/>
<path d="M60.071 222.013C60.5779 223.223 61.0599 224.424 61.517 225.618L70.2168 199.93L70.467 200.169C69.4396 198.237 68.3506 196.358 67.2 194.533L60.1897 222.117L60.071 222.013Z" fill="#626C7C"/>
<path d="M54.991 211.18L59.5374 184.249L59.7956 184.455C56.0893 180.064 51.8759 176.127 47.2435 172.727L46.7644 196.897C49.8272 201.731 52.5694 206.492 54.991 211.18Z" fill="#626C7C"/>
<path d="M8.79086 192.123L8.68457 191.795C9.07843 195.869 9.88288 199.892 11.0857 203.805L52.8898 208.117C50.7074 204.092 48.4546 200.317 46.2675 196.875L8.79086 192.123Z" fill="#626C7C"/>
<path d="M11.2946 204.462L11.1843 204.133C11.6072 205.512 12.0813 206.906 12.6066 208.316L12.4939 207.988L54.8035 211.749C54.2925 210.749 53.7756 209.763 53.253 208.789L11.2946 204.462Z" fill="#626C7C"/>
<path d="M59.7715 221.312L66.7234 193.958L66.9778 194.182C64.8801 190.883 62.5622 187.729 60.0399 184.742L55.4321 212.038C57.0291 215.174 58.4756 218.265 59.7715 221.312Z" fill="#626C7C"/>
<path d="M61.5407 226.992L20.3679 223.027C22.6066 226.043 25.0449 228.905 27.6664 231.594L27.5643 231.23L65.1999 238.972C64.2208 234.909 62.9988 230.909 61.5407 226.992Z" fill="#626C7C"/>
<path d="M22.2363 165.444L22.3332 165.236C16.6733 166.521 12.6771 170.371 10.4783 175.945L35.6646 181.636C28.206 171.769 22.3209 165.533 22.2363 165.444Z" fill="#626C7C"/>
<path d="M62.2797 227.657C63.5723 231.198 64.6711 234.806 65.5713 238.467L75.3758 213.876L75.6153 214.117C74.9945 210.695 73.9428 207.365 72.4851 204.208C71.9068 202.97 71.3013 201.751 70.6688 200.55L61.8652 226.544C62.0042 226.915 62.1455 227.287 62.2797 227.657Z" fill="#626C7C"/>
<path d="M45.8295 196.19C42.572 191.108 39.2748 186.447 36.2189 182.373L10.4548 176.551L10.3674 176.226C8.75905 180.461 8.17099 185.665 8.65811 191.477L45.8295 196.19Z" fill="#626C7C"/>
<path d="M19.868 222.342L61.276 226.329L61.2843 226.305C59.488 221.569 57.4379 216.933 55.1429 212.418L12.7292 208.648C13.4494 210.555 14.2632 212.482 15.1708 214.43C16.4927 217.204 18.0649 219.853 19.868 222.342Z" fill="#626C7C"/>
<path d="M119.942 230.374L120.036 230.667C118.97 226.45 117.315 222.403 115.12 218.648L115.228 218.924L105.886 231.374C105.637 236.521 105.197 242.282 104.452 248.342L119.942 230.374Z" fill="#626C7C"/>
<path d="M114.978 218.411C112.635 214.594 109.773 211.602 106.45 209.72C106.277 209.622 106.103 209.531 105.93 209.44C106.012 210.838 106.439 219.05 105.928 230.471L114.978 218.411Z" fill="#626C7C"/>
<path d="M98.5612 277.124C98.1797 278.379 97.7844 279.612 97.3752 280.823L120.46 266.588L120.5 266.931C120.941 264.788 121.301 262.646 121.578 260.507L98.5859 277.28L98.5612 277.124Z" fill="#626C7C"/>
<path d="M101.558 265.541L122.237 247.698L122.304 248.022C122.25 242.276 121.516 236.556 120.117 230.983L104.332 249.293C103.608 254.969 102.683 260.385 101.558 265.541Z" fill="#626C7C"/>
<path d="M122.309 248.399L101.35 266.483C100.58 269.916 99.7228 273.22 98.7773 276.393L121.578 259.76L121.631 260.095C122.12 256.216 122.346 252.308 122.309 248.399Z" fill="#626C7C"/>
<path d="M81.8596 309.467C81.878 309.185 81.8956 308.895 81.9124 308.598C85.6476 304.148 88.8331 299.264 91.3998 294.052L78.7419 278.278C78.576 277.74 78.4024 277.203 78.2212 276.668L91.6944 293.457C93.5318 289.704 95.1424 285.843 96.5175 281.896L69.8703 255.128C69.9535 254.918 70.0378 254.703 70.1229 254.484L96.736 281.217L96.7581 281.204C98.3953 276.41 99.773 271.532 100.885 266.591L74.458 240.431C74.5135 240.188 74.5682 239.944 74.6222 239.698L101.051 265.859C101.295 264.763 101.526 263.674 101.744 262.591L75.3939 235.76C75.438 235.504 75.4808 235.247 75.5226 234.989L101.893 261.841C102.779 257.349 103.452 253.005 103.963 248.959L78.1296 221.396L78.2574 221.075C77.6453 221.967 77.0506 222.902 76.4708 223.87C76.4863 220.807 76.2375 217.749 75.7272 214.729L65.8288 239.554C66.6286 242.977 67.2017 246.449 67.5443 249.948C67.4844 250.539 67.4303 251.134 67.3873 251.736L67.7125 252.062C67.7331 252.381 67.7523 252.7 67.7682 253.017L67.3355 252.582C67.3151 252.93 67.2997 253.281 67.2846 253.632C67.082 248.911 66.4351 244.219 65.3525 239.618L27.9923 231.932C29.8742 233.864 31.8466 235.741 33.8622 237.552C29.9496 236.326 25.8896 235.632 21.7917 235.489L22.0829 235.546L27.5977 250.101C31.812 253.067 36.4419 256.523 41.1615 260.396L34.3723 238.008C34.6239 238.232 34.876 238.454 35.1287 238.676L41.9004 261.007C46.3073 264.657 50.3868 268.337 54.139 272.048L51.027 251.032C51.2452 251.184 51.4622 251.334 51.6782 251.484L54.8238 272.727C57.3118 275.216 59.6429 277.708 61.8173 280.206L60.309 257.165C60.523 257.299 60.7332 257.43 60.9394 257.558L62.4637 280.842L62.3185 280.779C63.1746 281.774 64.0045 282.768 64.8081 283.761L65.0997 260.071C65.3242 260.203 65.5318 260.324 65.7223 260.434L65.4255 284.534C65.6724 284.844 65.9218 285.154 66.1637 285.464C68.4874 288.432 70.6479 291.525 72.6354 294.728L72.776 292.572C72.9493 293.211 73.1228 293.84 73.2964 294.457L73.2164 295.683C73.5062 296.164 73.7875 296.646 74.0646 297.127C74.2808 297.861 74.4948 298.575 74.7066 299.269C74.0928 298.131 73.4517 297.005 72.7832 295.891L34.8767 300.129C54.8079 310.613 79.5408 315.583 81.1171 315.893C80.7432 314.24 80.2886 312.601 79.7654 310.977C79.9015 310.835 80.0359 310.69 80.1706 310.547C80.2349 310.74 80.3015 310.934 80.3637 311.128C80.2933 311.203 80.224 311.281 80.1534 311.355C80.2314 311.319 80.3131 311.28 80.3984 311.239C80.7626 312.381 81.089 313.519 81.3777 314.653C81.4931 313.731 81.6475 312.332 81.7823 310.563C88.6089 307.145 106.289 297.158 115.265 281.5L91.8075 294.307C89.1341 299.754 85.7924 304.846 81.8596 309.467ZM74.0871 272.478L74.1452 271.588L74.7402 272.33L74.6821 273.219L74.0871 272.478Z" fill="#626C7C"/>
<path d="M105.502 209.423L105.709 209.325C100.53 206.705 94.9964 207.122 89.7478 210.012L105.516 230.46C106.065 218.103 105.51 209.546 105.502 209.423Z" fill="#626C7C"/>
<path d="M96.6625 282.88C95.3995 286.431 93.9441 289.912 92.3027 293.305L115.538 280.619L115.569 280.957C117.274 277.926 118.587 274.691 119.478 271.329C119.823 270.007 120.134 268.681 120.413 267.353L97.0529 281.758C96.9232 282.133 96.7948 282.509 96.6625 282.88Z" fill="#626C7C"/>
<path d="M105.474 231.38L89.3436 210.464L89.4837 210.158C85.5434 212.394 81.7716 216.026 78.4399 220.813L104.063 248.152C104.795 242.161 105.229 236.467 105.474 231.38Z" fill="#626C7C"/>
<path d="M21.5156 235.483C17.0373 235.419 12.9776 236.234 9.6093 238.033C9.43407 238.127 9.26362 238.225 9.09375 238.323C10.319 239.002 17.4841 243.038 26.8575 249.582L21.5156 235.483Z" fill="#626C7C"/>
<path d="M41.4211 261.14L4.31086 268.205L4.10815 267.925C5.74198 271.678 7.75078 275.256 10.1039 278.605L51.1937 269.784C47.8743 266.631 44.5647 263.737 41.4211 261.14Z" fill="#626C7C"/>
<path d="M54.1365 272.647C53.3414 271.854 52.545 271.075 51.7471 270.311L10.5058 279.165L10.2993 278.886C11.1277 280.067 12.0096 281.247 12.9449 282.425L12.7364 282.148L54.1365 272.647Z" fill="#626C7C"/>
<path d="M72.4385 295.323C70.2515 291.762 67.8528 288.335 65.2553 285.061L24.8733 294.016C27.9345 296.192 31.1381 298.161 34.4625 299.908L34.2527 299.593L72.4385 295.323Z" fill="#626C7C"/>
<path d="M8.85122 238.675L8.87917 238.448C3.89361 241.419 1.28334 246.317 0.915039 252.297L26.6271 249.924C16.4839 242.846 8.95932 238.734 8.85122 238.675Z" fill="#626C7C"/>
<path d="M27.3817 250.453L1.07972 252.88L0.896174 252.598C0.675752 257.123 1.72484 262.254 3.98454 267.63L40.7926 260.623C36.1239 256.798 31.5474 253.384 27.3817 250.453Z" fill="#626C7C"/>
<path d="M64.7992 284.487C61.627 280.538 58.2444 276.763 54.6661 273.178L13.1641 282.702C14.4383 284.293 15.808 285.875 17.2731 287.446C19.388 289.677 21.7019 291.71 24.186 293.52L64.7989 284.513L64.7992 284.487Z" fill="#626C7C"/>
<path d="M36.5329 182.105C39.6241 186.228 42.959 190.946 46.2504 196.088L46.7203 172.369L46.9796 172.535C43.4689 169.967 39.6137 167.906 35.5278 166.413L35.7871 166.558L36.5329 182.105Z" fill="#F54342"/>
<path d="M35.2672 166.322C31.0282 164.877 26.9152 164.397 23.1556 165.068C22.9601 165.102 22.7678 165.143 22.5759 165.183C23.5312 166.208 29.098 172.261 35.9895 181.382L35.2672 166.322Z" fill="#F54342"/>
<path d="M60.071 222.013C60.5779 223.223 61.0599 224.424 61.517 225.618L70.2168 199.93L70.467 200.169C69.4396 198.237 68.3506 196.358 67.2 194.533L60.1897 222.117L60.071 222.013Z" fill="#F54342"/>
<path d="M54.991 211.18L59.5374 184.249L59.7956 184.455C56.0893 180.064 51.8759 176.127 47.2435 172.727L46.7644 196.897C49.8272 201.731 52.5694 206.492 54.991 211.18Z" fill="#F54342"/>
<path d="M8.79086 192.123L8.68457 191.795C9.07843 195.869 9.88288 199.892 11.0857 203.805L52.8898 208.117C50.7074 204.092 48.4546 200.317 46.2675 196.875L8.79086 192.123Z" fill="#F54342"/>
<path d="M11.2946 204.462L11.1843 204.133C11.6072 205.512 12.0813 206.906 12.6066 208.316L12.4939 207.988L54.8035 211.749C54.2925 210.749 53.7756 209.763 53.253 208.789L11.2946 204.462Z" fill="#F54342"/>
<path d="M59.7715 221.312L66.7234 193.958L66.9778 194.182C64.8801 190.883 62.5622 187.729 60.0399 184.742L55.4321 212.038C57.0291 215.174 58.4756 218.265 59.7715 221.312Z" fill="#F54342"/>
<path d="M61.5407 226.992L20.3679 223.027C22.6066 226.043 25.0449 228.905 27.6664 231.594L27.5643 231.23L65.1999 238.972C64.2208 234.909 62.9988 230.909 61.5407 226.992Z" fill="#F54342"/>
<path d="M22.2363 165.444L22.3332 165.236C16.6733 166.521 12.6771 170.371 10.4783 175.945L35.6646 181.636C28.206 171.769 22.3209 165.533 22.2363 165.444Z" fill="#F54342"/>
<path d="M62.2797 227.657C63.5723 231.198 64.6711 234.806 65.5713 238.467L75.3758 213.876L75.6153 214.117C74.9945 210.695 73.9428 207.365 72.4851 204.208C71.9068 202.97 71.3013 201.751 70.6688 200.55L61.8652 226.544C62.0042 226.915 62.1455 227.287 62.2797 227.657Z" fill="#F54342"/>
<path d="M45.8295 196.19C42.572 191.108 39.2748 186.447 36.2189 182.373L10.4548 176.551L10.3674 176.226C8.75905 180.461 8.17099 185.665 8.65811 191.477L45.8295 196.19Z" fill="#F54342"/>
<path d="M19.868 222.342L61.276 226.329L61.2843 226.305C59.488 221.569 57.4379 216.933 55.1429 212.418L12.7292 208.648C13.4494 210.555 14.2632 212.482 15.1708 214.43C16.4927 217.204 18.0649 219.853 19.868 222.342Z" fill="#F54342"/>
<path d="M119.942 230.374L120.036 230.667C118.97 226.45 117.315 222.403 115.12 218.648L115.228 218.924L105.886 231.374C105.637 236.521 105.197 242.282 104.452 248.342L119.942 230.374Z" fill="#F54342"/>
<path d="M114.978 218.411C112.635 214.594 109.773 211.602 106.45 209.72C106.277 209.622 106.103 209.531 105.93 209.44C106.012 210.838 106.439 219.05 105.928 230.471L114.978 218.411Z" fill="#F54342"/>
<path d="M98.5612 277.124C98.1797 278.379 97.7844 279.612 97.3752 280.823L120.46 266.588L120.5 266.931C120.941 264.788 121.301 262.646 121.578 260.507L98.5859 277.28L98.5612 277.124Z" fill="#F54342"/>
<path d="M101.558 265.541L122.237 247.698L122.304 248.022C122.25 242.276 121.516 236.556 120.117 230.983L104.332 249.293C103.608 254.969 102.683 260.385 101.558 265.541Z" fill="#F54342"/>
<path d="M122.309 248.399L101.35 266.483C100.58 269.916 99.7228 273.22 98.7773 276.393L121.578 259.76L121.631 260.095C122.12 256.216 122.346 252.308 122.309 248.399Z" fill="#F54342"/>
<path d="M81.8596 309.467C81.878 309.185 81.8956 308.895 81.9124 308.598C85.6476 304.148 88.8331 299.264 91.3998 294.052L78.7419 278.278C78.576 277.74 78.4024 277.203 78.2212 276.668L91.6944 293.457C93.5318 289.704 95.1424 285.843 96.5175 281.896L69.8703 255.128C69.9535 254.918 70.0378 254.703 70.1229 254.484L96.736 281.217L96.7581 281.204C98.3953 276.41 99.773 271.532 100.885 266.591L74.458 240.431C74.5135 240.188 74.5682 239.944 74.6222 239.698L101.051 265.859C101.295 264.763 101.526 263.674 101.744 262.591L75.3939 235.76C75.438 235.504 75.4808 235.247 75.5226 234.989L101.893 261.841C102.779 257.349 103.452 253.005 103.963 248.959L78.1296 221.396L78.2574 221.075C77.6453 221.967 77.0506 222.902 76.4708 223.87C76.4863 220.807 76.2375 217.749 75.7272 214.729L65.8288 239.554C66.6286 242.977 67.2017 246.449 67.5443 249.948C67.4844 250.539 67.4303 251.134 67.3873 251.736L67.7125 252.062C67.7331 252.381 67.7523 252.7 67.7682 253.017L67.3355 252.582C67.3151 252.93 67.2997 253.281 67.2846 253.632C67.082 248.911 66.4351 244.219 65.3525 239.618L27.9923 231.932C29.8742 233.864 31.8466 235.741 33.8622 237.552C29.9496 236.326 25.8896 235.632 21.7917 235.489L22.0829 235.546L27.5977 250.101C31.812 253.067 36.4419 256.523 41.1615 260.396L34.3723 238.008C34.6239 238.232 34.876 238.454 35.1287 238.676L41.9004 261.007C46.3073 264.657 50.3868 268.337 54.139 272.048L51.027 251.032C51.2452 251.184 51.4622 251.334 51.6782 251.484L54.8238 272.727C57.3118 275.216 59.6429 277.708 61.8173 280.206L60.309 257.165C60.523 257.299 60.7332 257.43 60.9394 257.558L62.4637 280.842L62.3185 280.779C63.1746 281.774 64.0045 282.768 64.8081 283.761L65.0997 260.071C65.3242 260.203 65.5318 260.324 65.7223 260.434L65.4255 284.534C65.6724 284.844 65.9218 285.154 66.1637 285.464C68.4874 288.432 70.6479 291.525 72.6354 294.728L72.776 292.572C72.9493 293.211 73.1228 293.84 73.2964 294.457L73.2164 295.683C73.5062 296.164 73.7875 296.646 74.0646 297.127C74.2808 297.861 74.4948 298.575 74.7066 299.269C74.0928 298.131 73.4517 297.005 72.7832 295.891L34.8767 300.129C54.8079 310.613 79.5408 315.583 81.1171 315.893C80.7432 314.24 80.2886 312.601 79.7654 310.977C79.9015 310.835 80.0359 310.69 80.1706 310.547C80.2349 310.74 80.3015 310.934 80.3637 311.128C80.2933 311.203 80.224 311.281 80.1534 311.355C80.2314 311.319 80.3131 311.28 80.3984 311.239C80.7626 312.381 81.089 313.519 81.3777 314.653C81.4931 313.731 81.6475 312.332 81.7823 310.563C88.6089 307.145 106.289 297.158 115.265 281.5L91.8075 294.307C89.1341 299.754 85.7924 304.846 81.8596 309.467ZM74.0871 272.478L74.1452 271.588L74.7402 272.33L74.6821 273.219L74.0871 272.478Z" fill="#F54342"/>
<path d="M105.502 209.423L105.709 209.325C100.53 206.705 94.9964 207.122 89.7478 210.012L105.516 230.46C106.065 218.103 105.51 209.546 105.502 209.423Z" fill="#F54342"/>
<path d="M68.7995 307L62 328.587C62 328.587 78.0357 335.271 94.2695 328.587L88.2995 307H68.7995Z" fill="#3F3D56"/>
<path d="M96.6625 282.88C95.3995 286.431 93.9441 289.912 92.3027 293.305L115.538 280.619L115.569 280.957C117.274 277.926 118.587 274.691 119.478 271.329C119.823 270.007 120.134 268.681 120.413 267.353L97.0529 281.758C96.9232 282.133 96.7948 282.509 96.6625 282.88Z" fill="#F54342"/>
<path d="M105.474 231.38L89.3436 210.464L89.4837 210.158C85.5434 212.394 81.7716 216.026 78.4399 220.813L104.063 248.152C104.795 242.161 105.229 236.467 105.474 231.38Z" fill="#F54342"/>
<path d="M21.5156 235.483C17.0373 235.419 12.9776 236.234 9.6093 238.033C9.43407 238.127 9.26362 238.225 9.09375 238.323C10.319 239.002 17.4841 243.038 26.8575 249.582L21.5156 235.483Z" fill="#F54342"/>
<path d="M41.4211 261.14L4.31086 268.205L4.10815 267.925C5.74198 271.678 7.75078 275.256 10.1039 278.605L51.1937 269.784C47.8743 266.631 44.5647 263.737 41.4211 261.14Z" fill="#F54342"/>
<path d="M54.1365 272.647C53.3414 271.854 52.545 271.075 51.7471 270.311L10.5058 279.165L10.2993 278.886C11.1277 280.067 12.0096 281.247 12.9449 282.425L12.7364 282.148L54.1365 272.647Z" fill="#F54342"/>
<path d="M72.4385 295.323C70.2515 291.762 67.8528 288.335 65.2553 285.061L24.8733 294.016C27.9345 296.192 31.1381 298.161 34.4625 299.908L34.2527 299.593L72.4385 295.323Z" fill="#F54342"/>
<path d="M8.85122 238.675L8.87917 238.448C3.89361 241.419 1.28334 246.317 0.915039 252.297L26.6271 249.924C16.4839 242.846 8.95932 238.734 8.85122 238.675Z" fill="#F54342"/>
<path d="M27.3817 250.453L1.07972 252.88L0.896174 252.598C0.675752 257.123 1.72484 262.254 3.98454 267.63L40.7926 260.623C36.1239 256.798 31.5474 253.384 27.3817 250.453Z" fill="#F54342"/>
<path d="M64.7992 284.487C61.627 280.538 58.2444 276.763 54.6661 273.178L13.1641 282.702C14.4383 284.293 15.808 285.875 17.2731 287.446C19.388 289.677 21.7019 291.71 24.186 293.52L64.7989 284.513L64.7992 284.487Z" fill="#F54342"/>
<path d="M236.868 198.658H229.706V251.179H236.868V198.658Z" fill="#3F3D56"/>
<path d="M321.379 198.658H314.217V251.179H321.379V198.658Z" fill="#3F3D56"/>
<path d="M405.89 190.541H145.194V202.477H405.89V190.541Z" fill="#626C7C"/>
<path d="M405.89 228.261H145.194V240.197H405.89V228.261Z" fill="#626C7C"/>
<path d="M405.89 206.297H145.194V213.459H405.89V206.297Z" fill="#626C7C"/>
<path d="M405.89 217.279H145.194V224.441H405.89V217.279Z" fill="#626C7C"/>
<path d="M152.595 188.392H144.478V251.418H152.595V188.392Z" fill="#3F3D56"/>
<path d="M405.89 188.153H397.773V251.179H405.89V188.153Z" fill="#3F3D56"/>
<path d="M130.393 267.89H122.276V333.303H130.393V267.89Z" fill="#3F3D56"/>
<path d="M157.131 265.503H149.014V300.358H157.131V265.503Z" fill="#3F3D56"/>
<path d="M403.98 265.503H395.864V300.358H403.98V265.503Z" fill="#3F3D56"/>
<path d="M426.899 267.89H418.782V333.303H426.899V267.89Z" fill="#3F3D56"/>
<path d="M426.899 267.89H122.276V276.485H426.899V267.89Z" fill="#3F3D56"/>
<path d="M144.239 248.792L122.276 267.89H426.899L405.89 248.792H144.239Z" fill="#626C7C"/>
<path d="M207.89 172.072C209.242 171.11 210.733 170.362 212.313 169.854C222.327 166.128 232.82 163.843 243.476 163.07C252.743 162.413 262.786 163.193 270.023 169.017C271.149 169.843 272.07 170.916 272.716 172.154C273.627 174.119 273.351 176.403 273.056 178.548C272.99 179.381 272.78 180.195 272.436 180.956C271.462 182.81 269.064 183.46 266.981 183.237C264.899 183.015 262.944 182.134 260.89 181.725C259.619 181.504 258.333 181.373 257.043 181.333L244.159 180.636C236.147 180.202 228.029 179.776 220.17 181.393C217.751 181.827 215.413 182.633 213.24 183.781C211.445 184.789 210.236 186.235 208.57 184.373C205.644 181.103 204.024 175.092 207.89 172.072Z" fill="#2F2E41"/>
<path d="M227.856 177.769C227.856 177.769 245.185 170.001 251.759 178.964C258.332 187.928 248.173 184.343 248.173 184.343L236.819 187.928L224.27 185.538L227.856 177.769Z" fill="#F2F2F2"/>
<path d="M228.752 172.092C228.752 172.092 231.142 183.446 229.35 186.434C227.557 189.422 239.508 193.605 239.508 193.605L250.862 188.825C250.862 188.825 247.874 170.3 250.862 166.714L228.752 172.092Z" fill="#FFB9B9"/>
<path opacity="0.1" d="M228.752 172.092C228.752 172.092 231.142 183.446 229.35 186.434C227.557 189.422 239.508 193.605 239.508 193.605L250.862 188.825C250.862 188.825 247.874 170.3 250.862 166.714L228.752 172.092Z" fill="black"/>
<path d="M217.554 308.616C219.264 311.894 220.372 315.445 221.503 318.965C221.52 319.083 221.561 319.195 221.625 319.295C221.688 319.396 221.772 319.481 221.87 319.547C221.969 319.613 222.081 319.657 222.198 319.677C222.315 319.696 222.434 319.691 222.549 319.661L233.178 319.649C234.49 319.648 236.25 319.226 236.237 317.914C236.227 316.993 235.285 316.418 234.584 315.82C232.638 314.16 232.131 311.422 231.326 308.995C229.759 304.318 226.741 300.264 222.71 297.422C222.165 296.996 221.538 296.686 220.868 296.512C220.194 296.414 219.507 296.452 218.848 296.622C216.982 296.998 210.015 298.286 211.331 301C211.898 302.169 213.998 303.385 214.879 304.477C215.905 305.765 216.801 307.152 217.554 308.616Z" fill="#575A89"/>
<path d="M254.516 296.289C254.142 297.076 253.725 297.843 253.267 298.586C251.727 301.125 249.91 303.495 248.476 306.096C247.581 307.718 246.828 309.472 246.729 311.322C246.631 313.172 247.282 315.141 248.758 316.26C250.301 317.431 252.417 317.486 254.334 317.213C256.252 316.94 258.158 316.39 260.09 316.535C259.439 312.85 262.547 309.607 263.324 305.946C263.542 304.918 263.575 303.852 263.867 302.842C264.182 301.919 264.585 301.028 265.07 300.182C266.618 297.168 267.712 293.942 268.317 290.608C268.39 290.204 258.868 290.137 257.975 290.33C255.188 290.933 255.595 293.977 254.516 296.289Z" fill="#575A89"/>
<path d="M181.127 238.393C178.409 242.646 179.036 248.284 180.945 252.957C182.854 257.63 185.892 261.761 187.972 266.361C189.298 269.293 190.228 272.403 191.72 275.254C193.569 278.784 196.268 281.896 197.509 285.683C198.3 288.097 198.481 290.743 199.762 292.937C200.537 294.109 201.42 295.205 202.402 296.211C205.161 299.372 207.232 303.072 208.485 307.077C209.655 303.589 213.161 301.302 216.762 300.548C220.363 299.794 224.094 300.306 227.737 300.821C225.705 297.673 223.653 294.485 222.442 290.939C221.27 287.51 220.925 283.861 220.136 280.325C218.517 273.072 215.06 266.382 211.638 259.786L229.229 258.39C232.1 258.102 234.986 257.995 237.871 258.07C242.412 258.284 246.86 259.397 251.376 259.911C255.892 260.426 260.67 260.291 264.694 258.179C256.998 269.221 252.99 282.414 253.243 295.871C254.963 294.538 256.96 293.607 259.086 293.146C261.213 292.684 263.415 292.704 265.533 293.204C267.651 293.703 269.63 294.671 271.326 296.034C273.022 297.398 274.391 299.123 275.334 301.084C282.228 291.664 281.408 278.549 286.871 268.233C287.994 266.112 289.371 264.136 290.583 262.064C292.981 257.966 294.72 253.524 296.448 249.102C297.976 245.194 299.516 240.845 298.05 236.913C297.442 235.422 296.555 234.059 295.439 232.898C292.287 229.423 287.9 226.852 283.21 226.745C276.01 226.581 270.063 231.918 263.747 235.378C256.308 239.454 247.63 241.075 239.168 240.475C230.493 239.861 222.208 237.022 213.943 234.521C209.808 233.211 205.606 232.127 201.354 231.273C197.809 230.608 194.434 231.345 190.941 232.251C187.138 233.238 183.316 234.968 181.127 238.393Z" fill="#2F2E41"/>
<path d="M256.24 160.738C256.237 165.492 254.347 170.049 250.985 173.411C247.624 176.772 243.067 178.662 238.313 178.666C237.245 178.667 236.179 178.571 235.128 178.379C231.773 177.773 228.66 176.223 226.155 173.911C223.65 171.598 221.856 168.619 220.984 165.323C220.112 162.028 220.197 158.551 221.231 155.303C222.265 152.054 224.203 149.167 226.82 146.981C229.436 144.795 232.621 143.4 236.002 142.961C239.383 142.521 242.819 143.054 245.907 144.499C248.996 145.943 251.608 148.238 253.438 151.114C255.269 153.99 256.241 157.329 256.24 160.738V160.738Z" fill="#FFB9B9"/>
<path d="M227.856 177.769C227.856 177.769 231.142 179.263 232.337 180.458C233.533 181.654 237.118 188.227 243.094 184.044C249.07 179.861 249.667 177.471 251.46 177.471C253.253 177.471 255.643 181.056 255.643 181.056L272.076 230.356C267.647 235.356 262.514 239.684 256.838 243.204C247.277 249.18 235.923 252.168 230.545 249.778C225.167 247.387 215.008 245.595 213.215 240.814C211.422 236.033 208.434 221.691 208.434 221.691L216.8 185.239L227.856 177.769Z" fill="#F2F2F2"/>
<path d="M225.548 227.63C226.851 224.816 227.041 221.631 227.151 218.532C227.326 215.462 227.245 212.383 226.907 209.328C226.378 205.33 225.076 201.479 224.254 197.532C223.533 194.069 223.183 190.54 223.209 187.004C223.221 185.39 223.338 183.692 224.217 182.339C224.831 181.395 225.79 180.664 226.173 179.605C226.925 177.53 225.068 175.356 223.033 174.502C220.612 173.485 217.844 173.553 215.297 174.191C212.75 174.829 210.374 176.003 208.021 177.168C206.321 178.01 204.585 178.877 203.266 180.241C201.411 182.161 200.596 184.834 199.937 187.421C199.41 189.492 198.942 191.651 199.343 193.749C199.994 197.157 202.772 199.72 204.253 202.857C205.973 206.5 205.857 210.746 205.173 214.716C204.489 218.687 203.274 222.569 202.9 226.58C202.526 230.591 203.1 234.903 205.614 238.052C206.638 239.335 209.416 242.376 211.291 242.032C212.764 241.762 214.899 238.519 216.085 237.492C219.513 234.523 223.58 231.882 225.548 227.63Z" fill="#2F2E41"/>
<path d="M256.857 175.82C256.909 179.153 255.44 182.321 253.713 185.172C251.985 188.022 249.955 190.718 248.682 193.799C247.1 197.655 246.777 201.913 247.759 205.964C248.124 207.343 248.564 208.702 249.078 210.034L252.352 219.015C252.792 220.427 253.432 221.769 254.25 223.001C254.991 223.945 255.859 224.78 256.831 225.483C259.318 227.492 262.18 228.985 265.25 229.875C268.33 230.69 271.701 230.638 274.611 229.341C274.927 217.167 276.883 205.09 280.426 193.438C281.081 191.287 281.796 189.022 281.291 186.831C280.726 184.377 278.755 182.535 276.881 180.852C271.15 175.706 264.848 170.3 257.178 169.607C252.738 169.205 256.819 173.411 256.857 175.82Z" fill="#2F2E41"/>
<path d="M217.641 245.298C218.096 246.187 218.379 247.156 218.828 248.049C219.491 249.245 220.311 250.348 221.267 251.327C225.262 255.758 230.146 260.171 236.106 260.438C236.698 260.494 237.295 260.419 237.855 260.218C238.898 259.785 239.514 258.668 239.717 257.557C240.139 255.243 239.118 252.934 238.095 250.815C235.878 246.224 233.384 241.516 229.233 238.554C225.142 235.635 219.66 234.926 214.888 236.396C212.726 237.062 209.141 238.225 212.004 240.198C214.175 241.694 216.382 242.833 217.641 245.298Z" fill="#FFB9B9"/>
<path d="M243.405 186.842C242.675 185.211 241.912 183.533 240.601 182.32C239.361 181.272 237.894 180.529 236.317 180.15C234.273 179.566 232.158 179.263 230.032 179.249C227.502 179.233 224.567 179.912 223.492 182.203C222.639 184.023 223.301 186.178 224.16 187.994C224.527 188.935 225.139 189.762 225.932 190.387C227.023 191.125 228.434 191.101 229.728 191.348C231.757 191.736 233.572 192.823 235.34 193.891L239.772 196.571L247.386 201.173C247.185 201.052 247.257 195.83 247.023 194.975C246.27 192.218 244.574 189.452 243.405 186.842Z" fill="#FFB9B9"/>
<path d="M221.226 317.612C219.445 320.033 219.802 323.494 218.224 326.052C216.856 328.27 214.278 329.432 212.567 331.397C212.021 332.05 211.534 332.75 211.112 333.49C209.525 336.148 208.235 339.556 209.798 342.229C211.056 344.379 213.699 345.219 216.123 345.792C219.187 346.516 222.37 347.095 225.47 346.542C228.569 345.989 231.598 344.091 232.703 341.143C232.92 340.402 233.179 339.673 233.477 338.96C235.157 335.653 240.426 335.617 242.145 332.331C243.348 330.03 242.242 327.25 241.136 324.901L237.76 317.728C236.639 315.348 232.097 316.717 229.729 316.146C226.641 315.402 223.448 314.582 221.226 317.612Z" fill="#2F2E41"/>
<path d="M247.343 311.45C245.91 312.454 244.984 314.03 244.288 315.635C242.617 319.49 242.043 323.717 241.486 327.881C241.262 329.55 241.04 331.257 241.389 332.904C242.109 336.305 245.191 338.81 248.509 339.85C251.826 340.89 255.384 340.73 258.857 340.559C259.972 340.505 261.132 340.438 262.109 339.899C263.855 338.937 264.536 336.675 264.237 334.704C263.938 332.734 262.861 330.981 261.808 329.29C260.754 327.598 259.677 325.846 259.375 323.876C258.868 320.563 260.3 315.699 258.264 312.701C256.224 309.697 250.065 309.542 247.343 311.45Z" fill="#2F2E41"/>
<path d="M255.79 151.396C255.471 150.323 254.768 149.406 253.816 148.819C253.865 147.671 253.724 146.522 253.399 145.42C252.314 142.21 249.742 142.394 247.315 140.975C246.262 140.359 246.327 139.815 245.779 138.804C245.061 137.478 243.985 136.381 242.674 135.636C241.117 134.644 239.474 133.623 237.632 133.497C233.762 133.233 230.794 136.874 227.095 138.042C225.464 138.557 223.712 138.578 222.073 139.065C220.434 139.552 218.798 140.715 218.554 142.407C218.441 143.188 218.64 143.99 218.526 144.771C218.299 146.323 216.936 147.411 216.025 148.688C214.008 151.511 214.239 155.501 215.851 158.573C216.191 159.209 216.58 159.817 217.014 160.393C217.149 161.845 217.566 163.257 218.242 164.549C219.854 167.621 222.629 169.917 225.527 171.824C225.29 170.806 225.146 169.767 225.097 168.722C225.056 168.374 225.102 168.021 225.229 167.694C225.552 167.019 226.405 166.84 227.055 166.47C228.402 165.705 228.931 164.011 228.969 162.462C229.008 160.913 228.68 159.362 228.842 157.821C228.849 157.467 228.929 157.118 229.079 156.797C229.228 156.475 229.444 156.189 229.711 155.956C230.208 155.672 230.776 155.537 231.347 155.566C234.107 155.453 236.99 155.403 239.425 154.097C240.255 153.652 241.027 153.063 241.939 152.826C244.008 152.286 246.122 153.736 247.314 155.511C248.507 157.285 249.101 159.397 250.201 161.231C251.301 163.064 253.202 164.699 255.328 164.481C255.448 164.482 255.567 164.457 255.676 164.408C255.786 164.359 255.884 164.288 255.964 164.199C256.055 164.034 256.096 163.846 256.081 163.658L256.199 155.528C256.298 154.137 256.16 152.74 255.79 151.396Z" fill="#2F2E41"/>
<path d="M199.055 193.923C197.345 196.446 195.372 198.872 194.432 201.772C193.88 203.477 193.708 205.278 193.308 207.025C191.975 212.843 188.125 218.01 187.738 223.965C187.603 225.289 187.797 226.625 188.304 227.855C189.408 230.257 192.051 231.523 194.573 232.319C197.094 233.116 199.801 233.69 201.814 235.404C202.827 236.376 203.746 237.441 204.557 238.585C207.841 242.669 212.257 245.691 217.253 247.272C216.858 244.552 216.673 241.275 218.847 239.594C220.023 238.685 221.595 238.523 223.077 238.395L230.079 237.789C225.41 233.261 220.264 229.252 214.73 225.833C212.794 224.637 210.687 223.375 209.803 221.278C209.25 219.967 209.258 218.499 209.245 217.076C209.197 211.869 208.756 206.672 207.926 201.531C207.349 197.962 206.586 194.424 205.713 190.915C205.468 189.93 204.02 185.511 202.237 186.545C201.817 186.789 201.424 189.592 201.179 190.173C200.595 191.49 199.884 192.745 199.055 193.923Z" fill="#2F2E41"/>
<path d="M279.698 184.386L282.558 190.333C283.935 192.778 284.562 195.575 284.36 198.374L284.53 216.212C284.553 218.596 284.571 221.015 283.944 223.315C283.765 224.083 283.43 224.805 282.958 225.436C282.473 225.98 281.901 226.44 281.266 226.798C275.855 230.18 268.838 232.101 263.12 229.268C261.811 228.57 260.566 227.757 259.4 226.839C257.121 225.152 254.809 223.432 253.105 221.166C251.32 218.794 250.298 215.955 249.098 213.241C246.944 208.373 244.16 203.808 240.819 199.663C240.334 199.061 239.811 198.404 239.794 197.631C239.758 196.067 241.614 195.297 243.06 194.703C245.531 193.686 247.861 191.725 248.275 189.086C253.529 195.976 259.328 203.257 267.62 205.775C267.75 205.858 267.9 205.904 268.054 205.909C268.208 205.914 268.361 205.877 268.496 205.802C268.631 205.727 268.743 205.617 268.82 205.483C268.898 205.35 268.938 205.198 268.936 205.044C269.406 203.074 269.573 201.046 269.917 199.051C270.549 195.418 271.765 191.911 273.518 188.666C274.5 186.847 277.68 180.189 279.698 184.386Z" fill="#2F2E41"/>
<path opacity="0.1" d="M208.744 201.583C208.823 205.804 207.926 209.987 206.124 213.805C205.655 214.648 205.309 215.555 205.098 216.497C204.784 218.506 205.927 220.451 207.234 222.009C209.812 225.073 213.156 227.399 216.925 228.751" fill="black"/>
<path opacity="0.1" d="M270.834 198.025C270.413 199.158 270.795 200.411 271.12 201.575C272.061 204.952 272.5 208.45 272.423 211.955C272.437 212.016 272.435 212.08 272.418 212.14C272.401 212.2 272.369 212.256 272.325 212.301C272.281 212.346 272.227 212.379 272.167 212.397C272.107 212.416 272.043 212.42 271.982 212.407C270.602 212.492 269.023 212.501 268.087 211.484" fill="black"/>
<path d="M487.132 61.3862H316.531V95.069H487.132V61.3862Z" fill="#626C7C"/>
<path d="M487.132 100.756H316.531V134.439H487.132V100.756Z" fill="#626C7C"/>
<path d="M334.466 88.07C340.023 88.07 344.527 83.5655 344.527 78.0089C344.527 72.4523 340.023 67.9478 334.466 67.9478C328.91 67.9478 324.405 72.4523 324.405 78.0089C324.405 83.5655 328.91 88.07 334.466 88.07Z" fill="#F54342"/>
<path d="M457.824 74.072H358.525V76.2592H457.824V74.072Z" fill="#F54342"/>
<path d="M457.824 79.7586H358.525V81.9458H457.824V79.7586Z" fill="#F54342"/>
<path d="M334.466 127.877C340.023 127.877 344.527 123.372 344.527 117.816C344.527 112.259 340.023 107.755 334.466 107.755C328.91 107.755 324.405 112.259 324.405 117.816C324.405 123.372 328.91 127.877 334.466 127.877Z" fill="#CCCCCC"/>
<path d="M457.824 113.879H358.525V116.066H457.824V113.879Z" fill="#CCCCCC"/>
<path d="M457.824 119.566H358.525V121.753H457.824V119.566Z" fill="#CCCCCC"/>
<path d="M487.132 139.43H316.531V173.113H487.132V139.43Z" fill="#626C7C"/>
<path d="M334.466 166.552C340.023 166.552 344.527 162.047 344.527 156.491C344.527 150.934 340.023 146.43 334.466 146.43C328.91 146.43 324.405 150.934 324.405 156.491C324.405 162.047 328.91 166.552 334.466 166.552Z" fill="#CCCCCC"/>
<path d="M457.824 152.554H358.525V154.741H457.824V152.554Z" fill="#CCCCCC"/>
<path d="M457.824 158.24H358.525V160.428H457.824V158.24Z" fill="#CCCCCC"/>
<path d="M333.549 81.8127L329.946 77.008L330.8 76.3682L333.735 80.282L345.293 70.8257L345.968 71.6518L333.549 81.8127Z" fill="#F2F2F2"/>
</g>
<defs>
<clipPath id="clip0">
<rect width="486.265" height="346.253" fill="white" transform="translate(0.867432 0.509338)"/>
</clipPath>
</defs>
</svg>
