<svg width="331" height="277" viewBox="0 0 331 277" fill="none" xmlns="http://www.w3.org/2000/svg">
<g clip-path="url(#clip0)">
<path d="M226.114 0.566975L0.0351562 134.532L6.83432 146.007L232.913 12.0412L226.114 0.566975Z" fill="#2E3135"/>
<path d="M275.252 11.7984L49.1729 145.764L55.972 157.238L282.051 23.2726L275.252 11.7984Z" fill="#2E3135"/>
<path d="M318.774 24.0828L92.6953 158.048L99.4945 169.523L325.573 35.557L318.774 24.0828Z" fill="#2E3135"/>
<path d="M147.292 157.607C186.385 157.607 218.075 125.916 218.075 86.8243C218.075 47.7321 186.385 16.0416 147.292 16.0416C108.2 16.0416 76.5098 47.7321 76.5098 86.8243C76.5098 125.916 108.2 157.607 147.292 157.607Z" fill="white"/>
<path d="M75.9834 86.8244C75.9834 47.5044 107.973 15.5153 147.293 15.5153C186.613 15.5153 218.602 47.5044 218.602 86.8244C218.602 126.144 186.613 158.133 147.293 158.133C107.973 158.133 75.9834 126.144 75.9834 86.8244ZM77.0364 86.8244C77.0364 125.564 108.553 157.081 147.293 157.081C186.032 157.081 217.549 125.564 217.549 86.8244C217.549 48.0851 186.032 16.5682 147.293 16.5682C108.553 16.5682 77.0364 48.0851 77.0364 86.8244H77.0364Z" fill="#3F3D56"/>
<path d="M134.675 87.1321C134.675 84.6365 135.415 82.197 136.801 80.122C138.188 78.047 140.158 76.4298 142.464 75.4748C144.77 74.5198 147.307 74.2699 149.754 74.7567C152.202 75.2436 154.45 76.4453 156.215 78.21C157.979 79.9746 159.181 82.2229 159.668 84.6705C160.155 87.1181 159.905 89.6551 158.95 91.9607C157.995 94.2663 156.378 96.2369 154.303 97.6234C152.228 99.0098 149.788 99.7499 147.293 99.7499C143.946 99.7499 140.737 98.4205 138.37 96.0542C136.004 93.6879 134.675 90.4785 134.675 87.1321V87.1321ZM147.293 75.1298C144.11 75.1334 141.06 76.3991 138.81 78.6491C136.56 80.8992 135.294 83.95 135.29 87.1321V87.1321C135.29 89.5059 135.994 91.8265 137.313 93.8002C138.632 95.774 140.506 97.3123 142.7 98.2208C144.893 99.1292 147.306 99.3669 149.634 98.9038C151.962 98.4406 154.101 97.2975 155.779 95.619C157.458 93.9404 158.601 91.8018 159.064 89.4736C159.527 87.1454 159.29 84.7322 158.381 82.539C157.473 80.3459 155.934 78.4714 153.961 77.1526C151.987 75.8337 149.666 75.1298 147.293 75.1298V75.1298Z" fill="#3F3D56"/>
<path d="M123.288 87.132C123.288 82.3843 124.696 77.7433 127.334 73.7958C129.971 69.8483 133.72 66.7715 138.107 64.9547C142.493 63.1378 147.319 62.6625 151.976 63.5887C156.632 64.5149 160.909 66.8011 164.266 70.1582C167.624 73.5153 169.91 77.7925 170.836 82.449C171.762 87.1054 171.287 91.9319 169.47 96.3182C167.653 100.704 164.576 104.453 160.629 107.091C156.681 109.729 152.04 111.137 147.293 111.137C144.14 111.137 141.019 110.516 138.106 109.309C135.194 108.103 132.548 106.335 130.319 104.106C128.09 101.877 126.322 99.2305 125.115 96.3181C123.909 93.4058 123.288 90.2843 123.288 87.132V87.132ZM147.293 63.7429C142.667 63.7429 138.145 65.1147 134.298 67.6847C130.452 70.2547 127.454 73.9076 125.684 78.1814C123.914 82.4552 123.451 87.1579 124.353 91.695C125.255 96.232 127.483 100.4 130.754 103.671C134.025 106.942 138.193 109.169 142.73 110.072C147.267 110.974 151.969 110.511 156.243 108.741C160.517 106.97 164.17 103.973 166.74 100.126C169.31 96.28 170.682 91.7579 170.682 87.132C170.675 80.931 168.208 74.9859 163.823 70.6012C159.439 66.2164 153.494 63.7499 147.293 63.7429Z" fill="#3F3D56"/>
<path d="M100.514 87.132C100.514 77.8802 103.257 68.8361 108.397 61.1435C113.537 53.4509 120.843 47.4552 129.391 43.9147C137.938 40.3741 147.344 39.4478 156.418 41.2527C165.492 43.0577 173.827 47.5129 180.369 54.0549C186.911 60.5969 191.366 68.932 193.171 78.0061C194.976 87.0801 194.05 96.4856 190.509 105.033C186.969 113.581 180.973 120.887 173.28 126.027C165.588 131.167 156.544 133.91 147.292 133.91C134.89 133.896 123 128.963 114.23 120.194C105.461 111.424 100.528 99.534 100.514 87.132ZM147.292 40.9694C138.162 40.9694 129.237 43.6768 121.645 48.7492C114.054 53.8216 108.137 61.0313 104.643 69.4664C101.149 77.9015 100.235 87.1832 102.016 96.1379C103.797 105.093 108.194 113.318 114.65 119.774C121.106 126.23 129.331 130.626 138.286 132.408C147.241 134.189 156.522 133.275 164.957 129.781C173.393 126.287 180.602 120.37 185.675 112.779C190.747 105.187 193.454 96.2621 193.454 87.132C193.441 74.8932 188.573 63.1596 179.918 54.5054C171.264 45.8513 159.531 40.9833 147.292 40.9694Z" fill="#3F3D56"/>
<path d="M147.293 92.6716C150.522 92.6716 153.14 90.0537 153.14 86.8243C153.14 83.595 150.522 80.9771 147.293 80.9771C144.063 80.9771 141.445 83.595 141.445 86.8243C141.445 90.0537 144.063 92.6716 147.293 92.6716Z" fill="#F54342"/>
<path d="M132.212 109.598C135.442 109.598 138.06 106.98 138.06 103.751C138.06 100.521 135.442 97.9033 132.212 97.9033C128.983 97.9033 126.365 100.521 126.365 103.751C126.365 106.98 128.983 109.598 132.212 109.598Z" fill="#F54342"/>
<path d="M191.044 107.136C194.273 107.136 196.891 104.518 196.891 101.289C196.891 98.0592 194.273 95.4413 191.044 95.4413C187.814 95.4413 185.196 98.0592 185.196 101.289C185.196 104.518 187.814 107.136 191.044 107.136Z" fill="#F54342"/>
<path d="M147.292 89.5941C148.822 89.5941 150.062 88.354 150.062 86.8243C150.062 85.2946 148.822 84.0546 147.292 84.0546C145.763 84.0546 144.522 85.2946 144.522 86.8243C144.522 88.354 145.763 89.5941 147.292 89.5941Z" fill="#2F2E41"/>
<path d="M191.043 104.058C192.573 104.058 193.813 102.818 193.813 101.289C193.813 99.7589 192.573 98.5188 191.043 98.5188C189.514 98.5188 188.273 99.7589 188.273 101.289C188.273 102.818 189.514 104.058 191.043 104.058Z" fill="#2F2E41"/>
<path d="M132.212 106.828C133.742 106.828 134.982 105.588 134.982 104.058C134.982 102.529 133.742 101.289 132.212 101.289C130.682 101.289 129.442 102.529 129.442 104.058C129.442 105.588 130.682 106.828 132.212 106.828Z" fill="#2F2E41"/>
<path d="M18.0373 58.5112C19.567 58.5112 20.8071 57.2711 20.8071 55.7414C20.8071 54.2117 19.567 52.9717 18.0373 52.9717C16.5076 52.9717 15.2676 54.2117 15.2676 55.7414C15.2676 57.2711 16.5076 58.5112 18.0373 58.5112Z" fill="#F54342"/>
<path d="M147.138 55.8955H25.5762V55.28H147.754V86.9779H147.138V55.8955Z" fill="#2F2E41"/>
<path d="M10.0352 55.7415C10.0352 54.159 10.5044 52.612 11.3837 51.2961C12.2629 49.9803 13.5125 48.9547 14.9746 48.3491C16.4367 47.7435 18.0455 47.585 19.5977 47.8937C21.1498 48.2025 22.5756 48.9645 23.6946 50.0836C24.8136 51.2026 25.5757 52.6284 25.8845 54.1805C26.1932 55.7326 26.0347 57.3415 25.4291 58.8036C24.8235 60.2657 23.7979 61.5153 22.4821 62.3945C21.1663 63.2738 19.6192 63.743 18.0367 63.7431C16.9859 63.7431 15.9454 63.5361 14.9746 63.134C14.0038 62.7319 13.1218 62.1425 12.3788 61.3995C11.6357 60.6565 11.0463 59.7744 10.6442 58.8036C10.2421 57.8328 10.0352 56.7923 10.0352 55.7415V55.7415ZM18.0367 48.3555C16.5759 48.3555 15.1479 48.7887 13.9332 49.6003C12.7186 50.4119 11.7719 51.5654 11.2129 52.915C10.6539 54.2646 10.5076 55.7497 10.7926 57.1825C11.0776 58.6152 11.781 59.9313 12.814 60.9642C13.8469 61.9972 15.163 62.7006 16.5957 62.9856C18.0285 63.2706 19.5136 63.1244 20.8632 62.5653C22.2128 62.0063 23.3663 61.0596 24.1779 59.845C24.9895 58.6304 25.4227 57.2023 25.4227 55.7415C25.4205 53.7833 24.6416 51.906 23.2569 50.5213C21.8723 49.1366 19.9949 48.3578 18.0367 48.3555V48.3555Z" fill="#2F2E41"/>
<path d="M36.5022 138.219C38.0319 138.219 39.2719 136.979 39.2719 135.449C39.2719 133.919 38.0319 132.679 36.5022 132.679C34.9725 132.679 33.7324 133.919 33.7324 135.449C33.7324 136.979 34.9725 138.219 36.5022 138.219Z" fill="#F54342"/>
<path d="M28.501 135.449C28.501 133.866 28.9703 132.319 29.8495 131.003C30.7287 129.688 31.9784 128.662 33.4404 128.056C34.9025 127.451 36.5114 127.292 38.0635 127.601C39.6157 127.91 41.0414 128.672 42.1604 129.791C43.2794 130.91 44.0415 132.336 44.3503 133.888C44.659 135.44 44.5005 137.049 43.8949 138.511C43.2893 139.973 42.2637 141.223 40.9479 142.102C39.6321 142.981 38.085 143.45 36.5025 143.45C34.3804 143.45 32.3451 142.607 30.8446 141.107C29.344 139.606 28.501 137.571 28.501 135.449V135.449ZM36.5025 128.063C35.0417 128.063 33.6137 128.496 32.399 129.308C31.1844 130.119 30.2377 131.273 29.6787 132.622C29.1197 133.972 28.9734 135.457 29.2584 136.89C29.5434 138.323 30.2468 139.639 31.2798 140.672C32.3127 141.705 33.6288 142.408 35.0615 142.693C36.4943 142.978 37.9794 142.832 39.329 142.273C40.6786 141.714 41.8321 140.767 42.6437 139.552C43.4553 138.338 43.8885 136.91 43.8885 135.449C43.8863 133.491 43.1074 131.613 41.7227 130.229C40.338 128.844 38.4607 128.065 36.5025 128.063Z" fill="#2F2E41"/>
<path d="M276.906 71.4367C278.435 71.4367 279.675 70.1967 279.675 68.667C279.675 67.1373 278.435 65.8972 276.906 65.8972C275.376 65.8972 274.136 67.1373 274.136 68.667C274.136 70.1967 275.376 71.4367 276.906 71.4367Z" fill="#F54342"/>
<path d="M268.904 68.6671C268.904 67.0845 269.374 65.5375 270.253 64.2216C271.132 62.9058 272.382 61.8802 273.844 61.2746C275.306 60.669 276.915 60.5105 278.467 60.8193C280.019 61.128 281.445 61.8901 282.564 63.0091C283.683 64.1282 284.445 65.5539 284.754 67.106C285.062 68.6582 284.904 70.267 284.298 71.7291C283.693 73.1912 282.667 74.4408 281.351 75.3201C280.035 76.1993 278.488 76.6686 276.906 76.6686C275.855 76.6686 274.815 76.4616 273.844 76.0595C272.873 75.6574 271.991 75.068 271.248 74.325C270.505 73.582 269.915 72.6999 269.513 71.7291C269.111 70.7583 268.904 69.7178 268.904 68.6671V68.6671ZM276.906 61.2811C274.948 61.2833 273.07 62.0622 271.686 63.4468C270.301 64.8315 269.522 66.7089 269.52 68.6671V68.6671C269.52 70.1279 269.953 71.5559 270.765 72.7705C271.576 73.9851 272.73 74.9318 274.079 75.4908C275.429 76.0499 276.914 76.1961 278.347 75.9111C279.78 75.6262 281.096 74.9227 282.129 73.8897C283.162 72.8568 283.865 71.5407 284.15 70.108C284.435 68.6752 284.289 67.1902 283.73 65.8405C283.171 64.4909 282.224 63.3374 281.009 62.5258C279.795 61.7142 278.367 61.281 276.906 61.281V61.2811Z" fill="#2F2E41"/>
<path d="M190.735 69.595L269.207 68.3594L269.217 68.9745L191.351 70.2009V101.289H190.735V69.595Z" fill="#2F2E41"/>
<path d="M44.1963 135.141H131.905V104.058H132.52V135.756H44.1963V135.141Z" fill="#2F2E41"/>
<path d="M34.9629 70.2058H1.11035V72.3601H34.9629V70.2058Z" fill="#2E3135"/>
<path d="M34.9629 76.3607H1.11035V78.515H34.9629V76.3607Z" fill="#2E3135"/>
<path d="M34.9629 82.5157H1.11035V84.67H34.9629V82.5157Z" fill="#2E3135"/>
<path d="M53.4288 149.913H19.5762V152.067H53.4288V149.913Z" fill="#2E3135"/>
<path d="M53.4288 156.068H19.5762V158.222H53.4288V156.068Z" fill="#2E3135"/>
<path d="M53.4288 162.223H19.5762V164.377H53.4288V162.223Z" fill="#2E3135"/>
<path d="M293.832 83.4391H259.979V85.5933H293.832V83.4391Z" fill="#2E3135"/>
<path d="M293.832 89.594H259.979V91.7483H293.832V89.594Z" fill="#2E3135"/>
<path d="M293.832 95.749H259.979V97.9033H293.832V95.749Z" fill="#2E3135"/>
<path d="M309.948 266.983L305.134 268.703L296.206 250.953L303.312 248.413L309.948 266.983Z" fill="#FFB8B8"/>
<path d="M297.32 276.758L297.25 276.562C296.679 274.96 296.768 273.196 297.496 271.658C298.224 270.121 299.532 268.935 301.133 268.361L310.614 264.972L312.844 271.211L297.32 276.758Z" fill="#2F2E41"/>
<path d="M278.642 271.745L273.53 271.744L271.098 252.024L278.643 252.025L278.642 271.745Z" fill="#FFB8B8"/>
<path d="M279.946 276.701L263.461 276.7V276.491C263.461 275.649 263.627 274.814 263.949 274.036C264.272 273.257 264.745 272.55 265.34 271.954C265.936 271.359 266.644 270.886 267.422 270.563C268.2 270.241 269.035 270.075 269.877 270.075H269.878L279.946 270.075L279.946 276.701Z" fill="#2F2E41"/>
<path d="M290.294 145.76L288.07 141.366C288.07 141.366 279.787 143.442 279.034 148.242L290.294 145.76Z" fill="#F54342"/>
<path d="M299.468 195.996L293.421 229.738L309.477 258.131L299.885 261.884L283.621 234.361L281.536 226.855L280.285 266.055L271.635 265.792L267.669 229.189L274.03 195.162L299.468 195.996Z" fill="#2F2E41"/>
<path d="M270.588 202.083C270.401 201.247 269.862 175.738 269.862 175.738C269.862 175.738 278.755 146.544 278.837 146.304L278.868 146.21L285.62 143.679C285.715 143.635 287.964 142.633 289.805 143.469C290.277 143.698 290.694 144.028 291.025 144.436C291.357 144.843 291.595 145.317 291.724 145.826C292.49 146.397 298.008 152.579 298.008 160.964L298.217 180.751L302.844 202.203L302.639 202.246C302.513 202.273 296.873 203.972 287.99 203.972C283.054 203.972 270.588 202.083 270.588 202.083Z" fill="#3F3D56"/>
<path d="M281.165 139.983C286.204 139.983 290.29 135.897 290.29 130.858C290.29 125.818 286.204 121.732 281.165 121.732C276.125 121.732 272.039 125.818 272.039 130.858C272.039 135.897 276.125 139.983 281.165 139.983Z" fill="#FFB8B8"/>
<path opacity="0.2" d="M294.164 171.061L278.2 193.336L275.842 182.933L294.164 171.061Z" fill="black"/>
<path d="M265.83 193.816C266.402 193.794 266.962 193.646 267.471 193.383C267.98 193.12 268.425 192.75 268.774 192.296C269.124 191.843 269.37 191.319 269.496 190.76C269.621 190.202 269.622 189.622 269.499 189.063L281.362 181.786L274.812 178.722L264.551 186.102C263.625 186.37 262.83 186.969 262.317 187.785C261.803 188.6 261.606 189.576 261.764 190.527C261.922 191.478 262.423 192.338 263.172 192.944C263.921 193.55 264.867 193.861 265.83 193.816V193.816Z" fill="#FFB8B8"/>
<path d="M274.03 178.898L269.967 181.745L273.413 187.864L278.2 183.902L274.03 178.898Z" fill="#F54342"/>
<path d="M271.902 179.077L281.459 168L277.798 152.721C277.419 151.142 277.628 149.479 278.386 148.043C279.144 146.607 280.398 145.496 281.915 144.917C283.432 144.338 285.108 144.331 286.63 144.897C288.152 145.463 289.415 146.564 290.185 147.994L290.268 148.149L293.642 170.838L276.689 188.215L271.902 179.077Z" fill="#3F3D56"/>
<path d="M288.937 138.781L281.362 139.052C280.901 139.069 279.648 134.086 279.484 133.053C279.354 132.38 278.984 131.777 278.442 131.357C277.901 130.937 277.225 130.729 276.541 130.771C275.974 130.824 274.544 129.765 273.069 128.511C270.268 126.129 270.414 121.657 273.49 119.645C273.575 119.59 273.657 119.54 273.738 119.494C275.679 118.408 277.95 118.043 280.174 118.015C282.19 117.99 284.264 118.244 286.04 119.198C289.225 120.909 290.919 124.648 291.068 128.26C291.217 131.872 290.059 135.404 288.745 138.772" fill="#2F2E41"/>
<path d="M330.547 276.825H238.387C238.276 276.825 238.17 276.782 238.092 276.703C238.014 276.625 237.97 276.519 237.97 276.408C237.97 276.298 238.014 276.192 238.092 276.114C238.17 276.035 238.276 275.991 238.387 275.991H330.547C330.658 275.991 330.764 276.035 330.842 276.114C330.921 276.192 330.964 276.298 330.964 276.408C330.964 276.519 330.921 276.625 330.842 276.703C330.764 276.782 330.658 276.825 330.547 276.825Z" fill="#3F3D56"/>
<path d="M38.6285 240.925C38.1864 240.925 37.8281 240.788 37.5537 240.514C37.2945 240.239 37.1649 239.881 37.1649 239.439V226.06C37.1649 225.618 37.2868 225.275 37.5308 225.031C37.79 224.787 38.1407 224.665 38.5828 224.665H46.6101C47.5402 224.665 48.0052 225.061 48.0052 225.854C48.0052 226.632 47.5402 227.02 46.6101 227.02H40.0694V231.411H46.1527C47.0828 231.411 47.5478 231.808 47.5478 232.601C47.5478 233.378 47.0828 233.767 46.1527 233.767H40.0694V239.439C40.0694 239.881 39.9398 240.239 39.6806 240.514C39.4214 240.788 39.0707 240.925 38.6285 240.925ZM54.7436 240.971C53.6001 240.971 52.5938 240.735 51.7248 240.262C50.871 239.789 50.2078 239.111 49.7351 238.227C49.2625 237.342 49.0261 236.313 49.0261 235.139C49.0261 233.965 49.2625 232.944 49.7351 232.075C50.2078 231.19 50.871 230.512 51.7248 230.039C52.5938 229.567 53.6001 229.33 54.7436 229.33C55.8871 229.33 56.8858 229.567 57.7396 230.039C58.6086 230.512 59.2719 231.19 59.7293 232.075C60.2019 232.944 60.4382 233.965 60.4382 235.139C60.4382 236.313 60.2019 237.342 59.7293 238.227C59.2719 239.111 58.6086 239.789 57.7396 240.262C56.8858 240.735 55.8871 240.971 54.7436 240.971ZM54.7207 238.753C55.6508 238.753 56.3598 238.448 56.8476 237.838C57.3355 237.228 57.5795 236.328 57.5795 235.139C57.5795 233.965 57.3355 233.073 56.8476 232.463C56.3598 231.838 55.6584 231.526 54.7436 231.526C53.8288 231.526 53.1199 231.838 52.6167 232.463C52.1288 233.073 51.8849 233.965 51.8849 235.139C51.8849 236.328 52.1288 237.228 52.6167 237.838C53.1046 238.448 53.806 238.753 54.7207 238.753ZM67.7611 240.971C66.6481 240.971 65.6647 240.735 64.8108 240.262C63.9723 239.789 63.3243 239.119 62.8669 238.249C62.4095 237.38 62.1808 236.367 62.1808 235.208C62.1808 234.049 62.4171 233.027 62.8898 232.143C63.3777 231.244 64.0561 230.55 64.9252 230.062C65.7943 229.574 66.7929 229.33 67.9212 229.33C68.5158 229.33 69.1104 229.414 69.705 229.582C70.3149 229.749 70.8485 229.978 71.3059 230.268C71.7938 230.588 72.0377 230.992 72.0377 231.48C72.0377 231.815 71.9539 232.09 71.7862 232.303C71.6337 232.501 71.4279 232.601 71.1687 232.601C71.001 232.601 70.8256 232.562 70.6427 232.486C70.4597 232.41 70.2768 232.319 70.0938 232.212C69.7584 232.014 69.4382 231.861 69.1333 231.754C68.8283 231.632 68.4777 231.571 68.0812 231.571C67.136 231.571 66.4041 231.884 65.8857 232.509C65.3826 233.119 65.131 234.003 65.131 235.162C65.131 236.306 65.3826 237.19 65.8857 237.815C66.4041 238.425 67.136 238.73 68.0812 238.73C68.4624 238.73 68.7978 238.676 69.0875 238.57C69.3925 238.448 69.7279 238.288 70.0938 238.089C70.3225 237.952 70.5207 237.853 70.6884 237.792C70.8561 237.716 71.0238 237.678 71.1916 237.678C71.4355 237.678 71.6413 237.784 71.809 237.998C71.9768 238.211 72.0606 238.478 72.0606 238.798C72.0606 239.058 71.9996 239.286 71.8776 239.484C71.7709 239.667 71.588 239.835 71.3288 239.988C70.8561 240.293 70.3072 240.536 69.6821 240.719C69.057 240.887 68.4167 240.971 67.7611 240.971ZM82.793 229.376C83.2352 229.376 83.5859 229.498 83.845 229.742C84.1042 229.986 84.2338 230.314 84.2338 230.725V239.599C84.2338 239.995 84.0966 240.315 83.8222 240.559C83.563 240.803 83.2199 240.925 82.793 240.925C82.3814 240.925 82.0536 240.811 81.8096 240.582C81.5657 240.353 81.4437 240.041 81.4437 239.645V239.073C81.093 239.683 80.6204 240.155 80.0258 240.491C79.4312 240.811 78.7603 240.971 78.0132 240.971C75.2688 240.971 73.8966 239.431 73.8966 236.351V230.725C73.8966 230.314 74.0262 229.986 74.2854 229.742C74.5446 229.498 74.8877 229.376 75.3146 229.376C75.7567 229.376 76.1074 229.498 76.3666 229.742C76.6258 229.986 76.7554 230.314 76.7554 230.725V236.374C76.7554 237.167 76.9155 237.754 77.2356 238.135C77.5558 238.516 78.059 238.707 78.7451 238.707C79.5379 238.707 80.1706 238.448 80.6433 237.929C81.1312 237.396 81.3751 236.694 81.3751 235.825V230.725C81.3751 230.314 81.5047 229.986 81.7639 229.742C82.0231 229.498 82.3661 229.376 82.793 229.376ZM91.2572 240.971C89.5953 240.971 88.2536 240.643 87.2321 239.988C86.7442 239.698 86.5003 239.286 86.5003 238.753C86.5003 238.448 86.5841 238.204 86.7518 238.021C86.9196 237.823 87.1254 237.723 87.3693 237.723C87.6285 237.723 87.9868 237.845 88.4442 238.089C88.9321 238.318 89.3743 238.493 89.7707 238.615C90.1823 238.737 90.7007 238.798 91.3258 238.798C91.9662 238.798 92.4617 238.692 92.8124 238.478C93.1783 238.265 93.3613 237.967 93.3613 237.586C93.3613 237.327 93.285 237.121 93.1326 236.969C92.9953 236.816 92.7361 236.679 92.355 236.557C91.9891 236.42 91.4249 236.267 90.6626 236.1C89.3057 235.825 88.3299 235.436 87.7353 234.933C87.1559 234.43 86.8662 233.736 86.8662 232.852C86.8662 232.181 87.0644 231.579 87.4608 231.045C87.8572 230.497 88.3985 230.077 89.0846 229.788C89.7859 229.483 90.5787 229.33 91.4631 229.33C92.1034 229.33 92.7209 229.414 93.3155 229.582C93.9101 229.734 94.4438 229.963 94.9164 230.268C95.4043 230.573 95.6482 230.977 95.6482 231.48C95.6482 231.785 95.5644 232.044 95.3967 232.258C95.229 232.456 95.0231 232.555 94.7792 232.555C94.6115 232.555 94.4438 232.524 94.2761 232.463C94.1236 232.387 93.9254 232.28 93.6814 232.143C93.2393 231.914 92.8581 231.747 92.5379 231.64C92.2178 231.518 91.8213 231.457 91.3487 231.457C90.7846 231.457 90.3348 231.571 89.9994 231.8C89.6792 232.029 89.5191 232.341 89.5191 232.738C89.5191 233.119 89.6868 233.409 90.0222 233.607C90.3577 233.805 91.0057 234.003 91.9662 234.201C92.9877 234.415 93.7882 234.659 94.3675 234.933C94.9469 235.208 95.3586 235.551 95.6025 235.962C95.8617 236.374 95.9913 236.9 95.9913 237.54C95.9913 238.577 95.5568 239.408 94.6877 240.033C93.8339 240.658 92.6904 240.971 91.2572 240.971ZM109.618 240.971C108.475 240.971 107.468 240.735 106.599 240.262C105.745 239.789 105.082 239.111 104.61 238.227C104.137 237.342 103.901 236.313 103.901 235.139C103.901 233.965 104.137 232.944 104.61 232.075C105.082 231.19 105.745 230.512 106.599 230.039C107.468 229.567 108.475 229.33 109.618 229.33C110.762 229.33 111.76 229.567 112.614 230.039C113.483 230.512 114.146 231.19 114.604 232.075C115.076 232.944 115.313 233.965 115.313 235.139C115.313 236.313 115.076 237.342 114.604 238.227C114.146 239.111 113.483 239.789 112.614 240.262C111.76 240.735 110.762 240.971 109.618 240.971ZM109.595 238.753C110.525 238.753 111.234 238.448 111.722 237.838C112.21 237.228 112.454 236.328 112.454 235.139C112.454 233.965 112.21 233.073 111.722 232.463C111.234 231.838 110.533 231.526 109.618 231.526C108.703 231.526 107.994 231.838 107.491 232.463C107.003 233.073 106.759 233.965 106.759 235.139C106.759 236.328 107.003 237.228 107.491 237.838C107.979 238.448 108.68 238.753 109.595 238.753ZM124.168 229.33C125.509 229.33 126.508 229.711 127.164 230.474C127.819 231.236 128.147 232.387 128.147 233.927V239.553C128.147 239.98 128.018 240.315 127.758 240.559C127.514 240.803 127.171 240.925 126.729 240.925C126.287 240.925 125.936 240.803 125.677 240.559C125.418 240.315 125.288 239.98 125.288 239.553V234.087C125.288 233.218 125.121 232.585 124.785 232.189C124.465 231.793 123.954 231.594 123.253 231.594C122.43 231.594 121.766 231.854 121.263 232.372C120.775 232.89 120.531 233.584 120.531 234.453V239.553C120.531 239.98 120.402 240.315 120.143 240.559C119.883 240.803 119.533 240.925 119.091 240.925C118.648 240.925 118.298 240.803 118.039 240.559C117.795 240.315 117.673 239.98 117.673 239.553V230.702C117.673 230.306 117.802 229.986 118.061 229.742C118.321 229.498 118.671 229.376 119.113 229.376C119.51 229.376 119.83 229.498 120.074 229.742C120.333 229.971 120.463 230.275 120.463 230.657V231.274C120.844 230.649 121.355 230.169 121.995 229.833C122.635 229.498 123.36 229.33 124.168 229.33ZM143.068 238.798C143.831 238.844 144.212 239.187 144.212 239.827C144.212 240.193 144.06 240.475 143.755 240.674C143.465 240.857 143.046 240.933 142.497 240.902L141.879 240.857C139.318 240.674 138.037 239.301 138.037 236.74V231.754H136.894C136.482 231.754 136.162 231.663 135.933 231.48C135.72 231.297 135.613 231.03 135.613 230.68C135.613 230.329 135.72 230.062 135.933 229.879C136.162 229.696 136.482 229.605 136.894 229.605H138.037V227.501C138.037 227.089 138.167 226.761 138.426 226.517C138.685 226.273 139.036 226.151 139.478 226.151C139.905 226.151 140.248 226.273 140.507 226.517C140.766 226.761 140.896 227.089 140.896 227.501V229.605H142.84C143.251 229.605 143.564 229.696 143.777 229.879C144.006 230.062 144.12 230.329 144.12 230.68C144.12 231.03 144.006 231.297 143.777 231.48C143.564 231.663 143.251 231.754 142.84 231.754H140.896V236.946C140.896 238.074 141.414 238.676 142.451 238.753L143.068 238.798ZM152.243 229.33C154.865 229.33 156.176 230.862 156.176 233.927V239.553C156.176 239.98 156.047 240.315 155.787 240.559C155.543 240.803 155.2 240.925 154.758 240.925C154.316 240.925 153.965 240.803 153.706 240.559C153.447 240.315 153.317 239.98 153.317 239.553V233.927C153.317 233.119 153.15 232.532 152.814 232.166C152.494 231.785 151.983 231.594 151.282 231.594C150.459 231.594 149.795 231.854 149.292 232.372C148.804 232.89 148.56 233.584 148.56 234.453V239.553C148.56 239.98 148.431 240.315 148.172 240.559C147.912 240.803 147.562 240.925 147.12 240.925C146.678 240.925 146.327 240.803 146.068 240.559C145.824 240.315 145.702 239.98 145.702 239.553V225.877C145.702 225.48 145.831 225.16 146.091 224.916C146.365 224.672 146.716 224.55 147.143 224.55C147.569 224.55 147.912 224.665 148.172 224.893C148.431 225.122 148.56 225.435 148.56 225.831V231.16C148.942 230.565 149.445 230.115 150.07 229.81C150.71 229.49 151.434 229.33 152.243 229.33ZM167.93 237.723C168.19 237.723 168.395 237.823 168.548 238.021C168.716 238.219 168.799 238.486 168.799 238.821C168.799 239.294 168.517 239.69 167.953 240.01C167.435 240.3 166.848 240.536 166.192 240.719C165.537 240.887 164.912 240.971 164.317 240.971C162.518 240.971 161.092 240.453 160.04 239.416C158.988 238.379 158.462 236.961 158.462 235.162C158.462 234.019 158.691 233.005 159.148 232.12C159.606 231.236 160.246 230.55 161.069 230.062C161.908 229.574 162.853 229.33 163.905 229.33C164.912 229.33 165.788 229.551 166.535 229.993C167.282 230.436 167.862 231.061 168.273 231.869C168.685 232.677 168.891 233.63 168.891 234.727C168.891 235.383 168.601 235.711 168.022 235.711H161.275C161.367 236.763 161.664 237.54 162.167 238.044C162.67 238.532 163.402 238.775 164.363 238.775C164.851 238.775 165.277 238.714 165.643 238.593C166.025 238.471 166.451 238.303 166.924 238.089C167.382 237.845 167.717 237.723 167.93 237.723ZM163.974 231.343C163.196 231.343 162.571 231.587 162.099 232.075C161.641 232.562 161.367 233.264 161.275 234.179H166.444C166.413 233.249 166.185 232.547 165.758 232.075C165.331 231.587 164.736 231.343 163.974 231.343ZM43.3397 260.33C44.3003 260.33 45.1541 260.574 45.9012 261.062C46.6635 261.55 47.2505 262.244 47.6622 263.143C48.0891 264.027 48.3025 265.049 48.3025 266.208C48.3025 267.367 48.0891 268.38 47.6622 269.249C47.2505 270.119 46.6711 270.789 45.924 271.262C45.177 271.735 44.3155 271.971 43.3397 271.971C42.5469 271.971 41.838 271.803 41.2128 271.468C40.5877 271.132 40.1075 270.667 39.772 270.073V274.738C39.772 275.135 39.6424 275.447 39.3833 275.676C39.1241 275.905 38.781 276.019 38.3541 276.019C37.9272 276.019 37.5765 275.897 37.3021 275.653C37.0429 275.409 36.9133 275.089 36.9133 274.693V261.725C36.9133 261.314 37.0353 260.986 37.2792 260.742C37.5384 260.498 37.8815 260.376 38.3084 260.376C38.7353 260.376 39.0783 260.498 39.3375 260.742C39.5967 260.986 39.7263 261.314 39.7263 261.725V262.297C40.0617 261.672 40.542 261.192 41.1671 260.856C41.8075 260.506 42.5317 260.33 43.3397 260.33ZM42.585 269.753C43.4846 269.753 44.1859 269.448 44.6891 268.838C45.1922 268.213 45.4438 267.336 45.4438 266.208C45.4438 265.049 45.1922 264.149 44.6891 263.509C44.1859 262.869 43.4846 262.549 42.585 262.549C41.6702 262.549 40.9613 262.861 40.4581 263.486C39.9702 264.111 39.7263 265.003 39.7263 266.162C39.7263 267.306 39.9702 268.19 40.4581 268.815C40.9613 269.44 41.6702 269.753 42.585 269.753ZM56.8921 260.376C57.2886 260.345 57.6011 260.429 57.8298 260.628C58.0585 260.826 58.1729 261.123 58.1729 261.519C58.1729 261.931 58.0738 262.236 57.8755 262.434C57.6773 262.632 57.319 262.762 56.8007 262.823L56.1146 262.892C55.215 262.983 54.5518 263.288 54.1249 263.806C53.7132 264.325 53.5074 264.973 53.5074 265.75V270.553C53.5074 270.995 53.3702 271.338 53.0957 271.582C52.8213 271.811 52.4782 271.925 52.0666 271.925C51.6549 271.925 51.3119 271.811 51.0374 271.582C50.7782 271.338 50.6487 270.995 50.6487 270.553V261.702C50.6487 261.275 50.7782 260.948 51.0374 260.719C51.3119 260.49 51.6473 260.376 52.0437 260.376C52.4401 260.376 52.7603 260.49 53.0043 260.719C53.2482 260.932 53.3702 261.245 53.3702 261.657V262.571C53.6599 261.901 54.0868 261.382 54.6509 261.016C55.2303 260.65 55.8706 260.445 56.572 260.399L56.8921 260.376ZM60.8215 271.925C60.4098 271.925 60.0668 271.811 59.7923 271.582C59.5331 271.338 59.4035 270.995 59.4035 270.553V261.725C59.4035 261.283 59.5331 260.948 59.7923 260.719C60.0668 260.49 60.4098 260.376 60.8215 260.376C61.2331 260.376 61.5762 260.49 61.8506 260.719C62.1251 260.948 62.2623 261.283 62.2623 261.725V270.553C62.2623 270.995 62.1251 271.338 61.8506 271.582C61.5762 271.811 61.2331 271.925 60.8215 271.925ZM60.8215 258.341C60.3031 258.341 59.8914 258.203 59.5865 257.929C59.2816 257.639 59.1291 257.266 59.1291 256.808C59.1291 256.351 59.2816 255.985 59.5865 255.71C59.8914 255.436 60.3031 255.299 60.8215 255.299C61.3246 255.299 61.7286 255.436 62.0336 255.71C62.3538 255.985 62.5138 256.351 62.5138 256.808C62.5138 257.266 62.3614 257.639 62.0565 257.929C61.7515 258.203 61.3399 258.341 60.8215 258.341ZM70.3103 271.971C69.1669 271.971 68.1606 271.735 67.2915 271.262C66.4377 270.789 65.7745 270.111 65.3018 269.227C64.8292 268.342 64.5929 267.313 64.5929 266.139C64.5929 264.965 64.8292 263.944 65.3018 263.075C65.7745 262.19 66.4377 261.512 67.2915 261.039C68.1606 260.567 69.1669 260.33 70.3103 260.33C71.4538 260.33 72.4525 260.567 73.3063 261.039C74.1754 261.512 74.8386 262.19 75.296 263.075C75.7686 263.944 76.005 264.965 76.005 266.139C76.005 267.313 75.7686 268.342 75.296 269.227C74.8386 270.111 74.1754 270.789 73.3063 271.262C72.4525 271.735 71.4538 271.971 70.3103 271.971ZM70.2875 269.753C71.2175 269.753 71.9265 269.448 72.4144 268.838C72.9023 268.228 73.1462 267.328 73.1462 266.139C73.1462 264.965 72.9023 264.073 72.4144 263.463C71.9265 262.838 71.2251 262.526 70.3103 262.526C69.3956 262.526 68.6866 262.838 68.1834 263.463C67.6956 264.073 67.4516 264.965 67.4516 266.139C67.4516 267.328 67.6956 268.228 68.1834 268.838C68.6713 269.448 69.3727 269.753 70.2875 269.753ZM84.6085 260.376C85.0049 260.345 85.3175 260.429 85.5462 260.628C85.7749 260.826 85.8892 261.123 85.8892 261.519C85.8892 261.931 85.7901 262.236 85.5919 262.434C85.3937 262.632 85.0354 262.762 84.517 262.823L83.8309 262.892C82.9314 262.983 82.2682 263.288 81.8413 263.806C81.4296 264.325 81.2238 264.973 81.2238 265.75V270.553C81.2238 270.995 81.0865 271.338 80.8121 271.582C80.5377 271.811 80.1946 271.925 79.783 271.925C79.3713 271.925 79.0283 271.811 78.7538 271.582C78.4946 271.338 78.365 270.995 78.365 270.553V261.702C78.365 261.275 78.4946 260.948 78.7538 260.719C79.0283 260.49 79.3637 260.376 79.7601 260.376C80.1565 260.376 80.4767 260.49 80.7206 260.719C80.9646 260.932 81.0865 261.245 81.0865 261.657V262.571C81.3762 261.901 81.8031 261.382 82.3673 261.016C82.9466 260.65 83.587 260.445 84.2883 260.399L84.6085 260.376ZM88.5378 271.925C88.1262 271.925 87.7831 271.811 87.5087 271.582C87.2495 271.338 87.1199 270.995 87.1199 270.553V261.725C87.1199 261.283 87.2495 260.948 87.5087 260.719C87.7831 260.49 88.1262 260.376 88.5378 260.376C88.9495 260.376 89.2926 260.49 89.567 260.719C89.8414 260.948 89.9787 261.283 89.9787 261.725V270.553C89.9787 270.995 89.8414 271.338 89.567 271.582C89.2926 271.811 88.9495 271.925 88.5378 271.925ZM88.5378 258.341C88.0195 258.341 87.6078 258.203 87.3029 257.929C86.9979 257.639 86.8455 257.266 86.8455 256.808C86.8455 256.351 86.9979 255.985 87.3029 255.71C87.6078 255.436 88.0195 255.299 88.5378 255.299C89.041 255.299 89.445 255.436 89.75 255.71C90.0701 255.985 90.2302 256.351 90.2302 256.808C90.2302 257.266 90.0778 257.639 89.7728 257.929C89.4679 258.203 89.0562 258.341 88.5378 258.341ZM99.227 269.798C99.9894 269.844 100.371 270.187 100.371 270.827C100.371 271.193 100.218 271.475 99.9131 271.674C99.6234 271.857 99.2042 271.933 98.6553 271.902L98.0378 271.857C95.4764 271.674 94.1957 270.301 94.1957 267.74V262.754H93.0522C92.6405 262.754 92.3203 262.663 92.0916 262.48C91.8782 262.297 91.7714 262.03 91.7714 261.68C91.7714 261.329 91.8782 261.062 92.0916 260.879C92.3203 260.696 92.6405 260.605 93.0522 260.605H94.1957V258.501C94.1957 258.089 94.3252 257.761 94.5844 257.517C94.8436 257.273 95.1943 257.151 95.6365 257.151C96.0634 257.151 96.4064 257.273 96.6656 257.517C96.9248 257.761 97.0544 258.089 97.0544 258.501V260.605H98.9983C99.41 260.605 99.7225 260.696 99.936 260.879C100.165 261.062 100.279 261.329 100.279 261.68C100.279 262.03 100.165 262.297 99.936 262.48C99.7225 262.663 99.41 262.754 98.9983 262.754H97.0544V267.946C97.0544 269.074 97.5728 269.676 98.6095 269.753L99.227 269.798ZM103.278 271.925C102.867 271.925 102.524 271.811 102.249 271.582C101.99 271.338 101.86 270.995 101.86 270.553V261.725C101.86 261.283 101.99 260.948 102.249 260.719C102.524 260.49 102.867 260.376 103.278 260.376C103.69 260.376 104.033 260.49 104.307 260.719C104.582 260.948 104.719 261.283 104.719 261.725V270.553C104.719 270.995 104.582 271.338 104.307 271.582C104.033 271.811 103.69 271.925 103.278 271.925ZM103.278 258.341C102.76 258.341 102.348 258.203 102.043 257.929C101.738 257.639 101.586 257.266 101.586 256.808C101.586 256.351 101.738 255.985 102.043 255.71C102.348 255.436 102.76 255.299 103.278 255.299C103.781 255.299 104.185 255.436 104.49 255.71C104.811 255.985 104.971 256.351 104.971 256.808C104.971 257.266 104.818 257.639 104.513 257.929C104.208 258.203 103.797 258.341 103.278 258.341ZM116.518 268.723C116.777 268.723 116.983 268.823 117.135 269.021C117.303 269.219 117.387 269.486 117.387 269.821C117.387 270.294 117.105 270.69 116.541 271.01C116.022 271.3 115.435 271.536 114.78 271.719C114.124 271.887 113.499 271.971 112.904 271.971C111.105 271.971 109.68 271.453 108.628 270.416C107.576 269.379 107.05 267.961 107.05 266.162C107.05 265.019 107.278 264.005 107.736 263.12C108.193 262.236 108.833 261.55 109.657 261.062C110.495 260.574 111.441 260.33 112.493 260.33C113.499 260.33 114.376 260.551 115.123 260.993C115.87 261.436 116.449 262.061 116.861 262.869C117.272 263.677 117.478 264.63 117.478 265.727C117.478 266.383 117.189 266.711 116.609 266.711H109.863C109.954 267.763 110.251 268.54 110.755 269.044C111.258 269.532 111.99 269.775 112.95 269.775C113.438 269.775 113.865 269.714 114.231 269.593C114.612 269.471 115.039 269.303 115.511 269.089C115.969 268.845 116.304 268.723 116.518 268.723ZM112.561 262.343C111.784 262.343 111.159 262.587 110.686 263.075C110.229 263.562 109.954 264.264 109.863 265.179H115.031C115.001 264.249 114.772 263.547 114.345 263.075C113.918 262.587 113.324 262.343 112.561 262.343ZM123.865 271.971C122.203 271.971 120.861 271.643 119.84 270.988C119.352 270.698 119.108 270.286 119.108 269.753C119.108 269.448 119.192 269.204 119.359 269.021C119.527 268.823 119.733 268.723 119.977 268.723C120.236 268.723 120.594 268.845 121.052 269.089C121.54 269.318 121.982 269.493 122.378 269.615C122.79 269.737 123.308 269.798 123.933 269.798C124.574 269.798 125.069 269.692 125.42 269.478C125.786 269.265 125.969 268.967 125.969 268.586C125.969 268.327 125.893 268.121 125.74 267.969C125.603 267.816 125.344 267.679 124.962 267.557C124.597 267.42 124.032 267.267 123.27 267.1C121.913 266.825 120.937 266.436 120.343 265.933C119.763 265.43 119.474 264.736 119.474 263.852C119.474 263.181 119.672 262.579 120.068 262.045C120.465 261.497 121.006 261.077 121.692 260.788C122.393 260.483 123.186 260.33 124.071 260.33C124.711 260.33 125.328 260.414 125.923 260.582C126.518 260.734 127.051 260.963 127.524 261.268C128.012 261.573 128.256 261.977 128.256 262.48C128.256 262.785 128.172 263.044 128.004 263.258C127.836 263.456 127.631 263.555 127.387 263.555C127.219 263.555 127.051 263.524 126.884 263.463C126.731 263.387 126.533 263.28 126.289 263.143C125.847 262.914 125.466 262.747 125.145 262.64C124.825 262.518 124.429 262.457 123.956 262.457C123.392 262.457 122.942 262.571 122.607 262.8C122.287 263.029 122.127 263.341 122.127 263.738C122.127 264.119 122.294 264.409 122.63 264.607C122.965 264.805 123.613 265.003 124.574 265.201C125.595 265.415 126.396 265.659 126.975 265.933C127.554 266.208 127.966 266.551 128.21 266.962C128.469 267.374 128.599 267.9 128.599 268.54C128.599 269.577 128.164 270.408 127.295 271.033C126.441 271.658 125.298 271.971 123.865 271.971Z" fill="black"/>
</g>
<defs>
<clipPath id="clip0">
<rect width="330.929" height="276.259" fill="white" transform="translate(0.0351562 0.567017)"/>
</clipPath>
</defs>
</svg>
