<svg width="273" height="303" viewBox="0 0 273 303" fill="none" xmlns="http://www.w3.org/2000/svg">
<path d="M209.049 96.2093C209.381 94.8924 209.701 93.5632 210.046 92.2463C210.218 91.5571 210.427 90.8802 210.649 90.2157C210.756 89.7932 211.005 89.4206 211.355 89.1606C211.705 88.9006 212.133 88.769 212.569 88.788C213.627 88.788 214.673 88.948 215.719 89.0219C216.278 89.0953 216.842 89.12 217.405 89.0957C217.821 89.0705 218.215 88.9057 218.525 88.628C219.621 87.3973 220.667 86.1666 221.688 84.8128C221.857 84.5722 221.965 84.2938 222.002 84.002C222.038 83.7102 222.002 83.4138 221.898 83.139C221.528 81.9083 221.11 80.6776 220.753 79.4469C220.585 78.9721 220.493 78.4736 220.482 77.97C220.484 77.5977 220.629 77.2404 220.888 76.9731C222.699 75.5615 224.711 74.429 226.857 73.6133C227.171 73.4801 227.52 73.455 227.85 73.5419C228.18 73.6288 228.471 73.8227 228.679 74.0932C229.565 75.1147 230.488 76.1116 231.349 77.1577C231.631 77.5546 232.021 77.8619 232.473 78.043C232.925 78.2242 233.419 78.2715 233.897 78.1792C235.263 77.9577 236.642 77.8223 238.008 77.6377C238.269 77.6113 238.52 77.5182 238.735 77.3674C238.951 77.2166 239.124 77.013 239.238 76.7762C239.669 76.0132 240.063 75.2255 240.469 74.4501C240.875 73.6748 241.183 73.121 241.564 72.4687C241.73 72.1404 242.005 71.8799 242.342 71.7317C242.679 71.5836 243.056 71.557 243.411 71.6564C245.367 72.1487 247.337 72.6533 249.281 73.2194C249.658 73.3215 249.987 73.5521 250.212 73.8712C250.436 74.1903 250.543 74.5779 250.512 74.967C250.512 76.0378 250.352 77.0962 250.278 78.1669C250.278 78.6592 250.204 79.1638 250.204 79.6684C250.193 79.9916 250.259 80.3127 250.396 80.6057C250.533 80.8987 250.737 81.1552 250.992 81.3545C252.075 82.216 253.17 83.0652 254.229 83.9636C254.533 84.2405 254.907 84.4283 255.311 84.5065C255.715 84.5846 256.132 84.5501 256.518 84.4067C257.847 83.9882 259.176 83.5452 260.505 83.1759C260.938 82.9829 261.43 82.9676 261.874 83.1334C262.318 83.2991 262.68 83.6326 262.88 84.0621C263.804 85.6128 264.69 87.1881 265.551 88.7757C265.708 88.9872 265.821 89.2283 265.882 89.4843C265.944 89.7404 265.953 90.0062 265.909 90.266C265.866 90.5257 265.77 90.7739 265.628 90.9958C265.486 91.2176 265.301 91.4086 265.083 91.5571C264.431 92.1725 263.717 92.714 263.04 93.3048C262.565 93.7396 262.097 94.1827 261.637 94.6339C261.449 94.8245 261.305 95.0551 261.218 95.3086C261.131 95.5622 261.102 95.8322 261.133 96.0985C261.281 97.5261 261.428 98.9538 261.613 100.369C261.66 100.755 261.804 101.122 262.033 101.436C262.261 101.751 262.565 102.002 262.917 102.166C263.742 102.56 264.567 102.941 265.379 103.397C265.891 103.642 266.388 103.917 266.868 104.221C267.21 104.408 267.478 104.707 267.626 105.068C267.774 105.429 267.793 105.829 267.68 106.203C267.2 107.975 266.696 109.747 266.191 111.507C266.1 111.778 265.981 112.038 265.834 112.282C265.702 112.569 265.484 112.808 265.211 112.966C264.938 113.125 264.623 113.195 264.308 113.169L260.542 112.861H260.259C259.731 112.765 259.186 112.831 258.696 113.051C258.206 113.27 257.794 113.633 257.515 114.092C256.887 114.978 256.161 115.79 255.484 116.639C255.164 117.011 254.953 117.464 254.873 117.948C254.792 118.432 254.846 118.928 255.028 119.384C255.435 120.614 255.828 121.734 256.185 122.916C256.294 123.139 256.356 123.382 256.366 123.63C256.376 123.878 256.335 124.126 256.245 124.357C256.154 124.588 256.017 124.798 255.842 124.974C255.666 125.149 255.457 125.287 255.225 125.377C253.625 126.325 251.989 127.236 250.303 128.11C249.938 128.348 249.497 128.441 249.068 128.367C248.639 128.294 248.253 128.062 247.989 127.716C247.263 126.94 246.573 126.116 245.884 125.254C244.395 123.507 244.05 123.371 241.774 123.679L239.115 124.06C238.69 124.101 238.282 124.252 237.933 124.498C237.583 124.744 237.303 125.077 237.122 125.463C236.654 126.411 236.211 127.371 235.719 128.306C235.455 128.786 235.146 129.24 234.795 129.66C234.649 129.879 234.436 130.045 234.187 130.134C233.939 130.222 233.669 130.229 233.417 130.153L227.842 128.602C227.589 128.512 227.345 128.397 227.116 128.257C226.825 128.129 226.581 127.913 226.42 127.639C226.259 127.365 226.188 127.048 226.217 126.731C226.316 125.5 226.414 124.27 226.5 123.039C226.5 122.67 226.5 122.288 226.5 121.907C226.51 121.598 226.446 121.292 226.313 121.014C226.18 120.736 225.983 120.493 225.737 120.307C224.679 119.494 223.633 118.67 222.587 117.845C222.288 117.597 221.928 117.434 221.545 117.373C221.162 117.312 220.769 117.356 220.408 117.501C219.239 117.907 218.058 118.264 216.876 118.645H216.741C215.19 119.064 214.661 118.904 213.849 117.513C213.036 116.122 212.113 114.387 211.313 112.787C211.186 112.607 211.096 112.403 211.049 112.187C211.003 111.972 211.001 111.749 211.044 111.532C211.086 111.316 211.172 111.11 211.297 110.928C211.422 110.746 211.582 110.591 211.769 110.473C212.655 109.661 213.578 108.873 214.538 108.135C215.013 107.817 215.384 107.366 215.603 106.838C215.822 106.311 215.879 105.73 215.769 105.169C215.572 103.938 215.436 102.609 215.252 101.329C215.22 101.069 215.125 100.821 214.974 100.606C214.824 100.392 214.624 100.217 214.39 100.098C213.258 99.5076 212.126 98.9292 211.006 98.3261C210.221 98.0257 209.57 97.4536 209.172 96.7139L209.049 96.2093ZM250.487 99.9014C250.353 98.292 249.901 96.7252 249.157 95.2916C248.413 93.8579 247.393 92.5859 246.154 91.5491C244.916 90.5122 243.485 89.7311 241.943 89.2509C240.401 88.7706 238.779 88.6007 237.171 88.7511C233.991 89.1202 231.077 90.7044 229.037 93.1724C226.998 95.6404 225.992 98.8011 226.23 101.994C226.518 105.195 228.057 108.154 230.513 110.228C232.97 112.302 236.145 113.323 239.349 113.07C240.951 112.948 242.513 112.508 243.943 111.775C245.372 111.042 246.641 110.03 247.675 108.8C248.709 107.571 249.487 106.147 249.964 104.612C250.44 103.078 250.606 101.464 250.45 99.8645L250.487 99.9014Z" fill="#F54342"/>
<path d="M233.664 130.793C233.485 130.792 233.307 130.768 233.134 130.719L231.83 130.362L227.547 129.131C227.292 129.04 227.045 128.929 226.808 128.799C226.387 128.62 226.032 128.314 225.794 127.923C225.556 127.533 225.445 127.077 225.479 126.621L225.615 124.984L225.762 122.916C225.781 122.559 225.781 122.202 225.762 121.845C225.775 121.629 225.735 121.412 225.645 121.215C225.554 121.018 225.417 120.845 225.245 120.713C224.224 119.938 223.227 119.138 222.218 118.35L222.082 118.239C221.864 118.055 221.599 117.934 221.317 117.891C221.035 117.847 220.746 117.883 220.483 117.993C219.67 118.276 218.846 118.535 218.021 118.805L216.926 119.15H216.766C214.92 119.655 214.12 119.335 213.184 117.735C212.249 116.135 211.289 114.301 210.624 112.984C210.303 112.5 210.184 111.908 210.295 111.337C210.405 110.766 210.736 110.261 211.215 109.932C212.261 108.984 213.16 108.234 214.021 107.557C214.403 107.301 214.7 106.937 214.873 106.512C215.046 106.086 215.088 105.619 214.993 105.169C214.87 104.381 214.76 103.569 214.661 102.708L214.477 101.268C214.462 101.098 214.405 100.934 214.311 100.792C214.216 100.65 214.087 100.534 213.935 100.455L212.581 99.7539C211.904 99.397 211.215 99.0524 210.538 98.6832C209.629 98.3233 208.881 97.6454 208.434 96.7756C208.421 96.7105 208.421 96.6437 208.434 96.5786V96.111C208.421 96.0459 208.421 95.9791 208.434 95.9141L208.68 94.8926L209.418 91.9388C209.603 91.2496 209.812 90.5604 210.034 89.8712C210.173 89.3297 210.493 88.8518 210.94 88.5162C211.388 88.1807 211.936 88.0075 212.495 88.0251C213.209 88.0251 213.91 88.099 214.612 88.1728L215.67 88.259H216.113C216.494 88.2951 216.877 88.2951 217.258 88.259C217.519 88.241 217.77 88.1516 217.984 88.0005C219.141 86.6837 220.224 85.3422 221.11 84.2099C221.222 84.0481 221.292 83.8603 221.311 83.6643C221.33 83.4683 221.299 83.2706 221.221 83.09C221.061 82.5484 220.889 82.0069 220.704 81.4531C220.519 80.8993 220.273 80.087 220.076 79.3978C219.891 78.8673 219.791 78.3106 219.781 77.7486C219.778 77.4702 219.835 77.1945 219.948 76.9398C220.06 76.6851 220.226 76.4574 220.433 76.2718C222.291 74.8037 224.367 73.6367 226.587 72.8135C227.014 72.6458 227.484 72.6199 227.927 72.7395C228.37 72.8592 228.763 73.1181 229.048 73.478L229.984 74.5365C230.574 75.201 231.214 75.8533 231.731 76.5425C231.943 76.8572 232.242 77.1022 232.593 77.2468C232.943 77.3914 233.329 77.4289 233.7 77.3548C234.599 77.2071 235.485 77.0964 236.383 76.9856L237.836 76.801C237.993 76.7796 238.142 76.7187 238.269 76.624C238.396 76.5293 238.497 76.4038 238.562 76.2595L239.3 74.8564L239.989 73.6257C240.285 73.0719 240.58 72.5058 240.912 71.9766C241.14 71.5436 241.506 71.1994 241.952 70.9986C242.398 70.7979 242.899 70.7522 243.374 70.8689C245.749 71.472 247.558 71.9519 249.257 72.4442C249.756 72.5914 250.191 72.9046 250.488 73.3319C250.786 73.7593 250.929 74.2753 250.894 74.7949C250.894 75.521 250.82 76.2472 250.746 76.9487C250.746 77.3056 250.684 77.6625 250.647 78.0194C250.611 78.3763 250.586 78.9917 250.586 79.4839C250.571 79.7187 250.613 79.9537 250.71 80.1682C250.806 80.3828 250.954 80.5704 251.14 80.7147L251.903 81.3177C252.74 81.9823 253.577 82.6469 254.364 83.3361C254.591 83.5436 254.872 83.6836 255.174 83.7401C255.476 83.7967 255.788 83.7676 256.075 83.6561L258.019 83.0407L260.062 82.3884C260.638 82.1702 261.274 82.1755 261.846 82.4033C262.418 82.6311 262.884 83.0649 263.152 83.6192C264.087 85.1945 264.985 86.7821 265.835 88.3451C266.217 88.8923 266.369 89.5676 266.259 90.2258C266.148 90.884 265.784 91.4726 265.244 91.865C264.85 92.2342 264.444 92.5788 264.013 92.9234L263.176 93.6372C262.709 94.0434 262.253 94.4864 261.81 94.8679C261.681 94.9923 261.583 95.1448 261.523 95.3135C261.464 95.4823 261.444 95.6625 261.465 95.8402L261.552 96.6279C261.675 97.7847 261.81 98.9416 261.958 100.086C261.988 100.372 262.092 100.645 262.261 100.879C262.429 101.112 262.656 101.297 262.918 101.415L263.976 101.92L265.391 102.597C265.871 102.843 266.413 103.126 266.93 103.458C267.386 103.712 267.741 104.114 267.936 104.598C268.131 105.082 268.154 105.618 268.001 106.117C267.525 107.889 267.032 109.661 266.524 111.433C266.426 111.721 266.298 111.998 266.142 112.258C265.95 112.657 265.641 112.988 265.256 113.208C264.872 113.427 264.43 113.525 263.988 113.489L260.222 113.181C260.116 113.191 260.009 113.191 259.902 113.181C259.486 113.107 259.057 113.161 258.672 113.337C258.287 113.513 257.965 113.802 257.749 114.166C257.293 114.806 256.801 115.396 256.309 115.987L255.693 116.738C255.44 117.028 255.273 117.384 255.21 117.764C255.147 118.144 255.191 118.535 255.336 118.892C255.792 120.208 256.173 121.353 256.506 122.461C256.64 122.751 256.715 123.065 256.725 123.385C256.736 123.704 256.682 124.023 256.568 124.321C256.453 124.62 256.279 124.892 256.057 125.122C255.835 125.352 255.569 125.535 255.275 125.661C253.786 126.534 252.186 127.433 250.352 128.405C249.872 128.713 249.294 128.831 248.732 128.735C248.17 128.64 247.663 128.338 247.312 127.888C246.709 127.248 246.143 126.584 245.577 125.907L245.183 125.451C243.829 123.851 243.682 123.802 241.626 124.085L238.956 124.467C238.629 124.495 238.317 124.609 238.049 124.797C237.781 124.985 237.567 125.24 237.43 125.537L236.986 126.461C236.683 127.109 236.363 127.749 236.027 128.38C235.752 128.902 235.421 129.393 235.042 129.845C234.901 130.098 234.703 130.316 234.464 130.48C234.225 130.645 233.951 130.752 233.664 130.793ZM221.147 116.689C221.771 116.694 222.374 116.911 222.858 117.304L222.993 117.415C223.99 118.202 224.999 119.002 226.008 119.778C226.326 120.02 226.581 120.333 226.754 120.692C226.928 121.052 227.014 121.447 227.005 121.845C227.005 122.239 227.005 122.645 227.005 123.076C227.005 123.765 226.907 124.467 226.845 125.156L226.722 126.793C226.706 126.99 226.753 127.188 226.857 127.356C226.961 127.524 227.117 127.655 227.301 127.728H227.411C227.568 127.821 227.733 127.9 227.904 127.962L232.174 129.193L233.467 129.55C233.604 129.59 233.75 129.584 233.884 129.533C234.017 129.482 234.13 129.388 234.205 129.267C234.53 128.884 234.819 128.472 235.067 128.036C235.387 127.42 235.694 126.805 236.002 126.165L236.457 125.217C236.684 124.742 237.03 124.332 237.461 124.028C237.892 123.724 238.394 123.536 238.919 123.482L241.577 123.101C244.038 122.756 244.617 122.978 246.241 124.885L246.635 125.353C247.189 126.005 247.743 126.657 248.334 127.273C248.415 127.397 248.521 127.503 248.645 127.585C248.769 127.667 248.908 127.723 249.054 127.75C249.201 127.776 249.351 127.773 249.496 127.739C249.64 127.706 249.777 127.644 249.897 127.556C251.706 126.596 253.306 125.697 254.82 124.836C255.681 124.331 255.792 124.036 255.496 123.039C255.201 122.042 254.795 120.836 254.352 119.532C254.133 118.978 254.069 118.375 254.167 117.787C254.265 117.2 254.52 116.65 254.906 116.196L255.533 115.433C256.013 114.867 256.493 114.289 256.912 113.686C257.258 113.135 257.76 112.7 258.353 112.435C258.947 112.17 259.606 112.087 260.247 112.196H260.506L264.198 112.492C264.398 112.518 264.601 112.475 264.773 112.369C264.946 112.264 265.077 112.103 265.145 111.913C265.273 111.718 265.377 111.507 265.453 111.286C265.958 109.514 266.45 107.754 266.93 105.981C267.016 105.735 267.009 105.466 266.909 105.226C266.809 104.985 266.623 104.789 266.388 104.677C265.928 104.387 265.452 104.124 264.961 103.889L263.57 103.212L262.512 102.708C262.063 102.504 261.675 102.186 261.386 101.787C261.097 101.388 260.916 100.921 260.862 100.431C260.702 99.2739 260.579 98.1047 260.456 96.9356L260.37 96.1602C260.326 95.8011 260.365 95.4365 260.484 95.095C260.604 94.7534 260.801 94.4441 261.059 94.1911C261.515 93.7234 261.995 93.268 262.487 92.8373L263.348 92.0988C263.742 91.7788 264.136 91.4465 264.505 91.0896C265.281 90.3635 265.355 89.9697 264.862 89.0589C264.013 87.5082 263.127 85.9329 262.204 84.3576C262.138 84.2061 262.041 84.0695 261.921 83.956C261.801 83.8425 261.659 83.7544 261.504 83.697C261.349 83.6395 261.184 83.6139 261.019 83.6217C260.853 83.6295 260.691 83.6705 260.542 83.7422L258.512 84.3945L256.543 85.0222C256.058 85.1923 255.536 85.2295 255.032 85.13C254.527 85.0304 254.059 84.7977 253.675 84.4561C252.875 83.7792 252.05 83.1269 251.214 82.4746L250.451 81.8592C250.122 81.6039 249.858 81.2747 249.681 80.8984C249.503 80.522 249.417 80.1091 249.429 79.6932C249.429 79.1763 249.429 78.6594 249.503 78.1425C249.577 77.6256 249.564 77.404 249.601 77.0471C249.601 76.3333 249.724 75.6687 249.737 74.9795C249.763 74.733 249.704 74.4849 249.57 74.2766C249.436 74.0683 249.234 73.9124 248.998 73.8349C247.312 73.3427 245.503 72.8627 243.152 72.2719C242.925 72.2066 242.682 72.2254 242.467 72.3249C242.252 72.4243 242.08 72.5978 241.983 72.8135C241.676 73.3304 241.38 73.8719 241.097 74.4134L240.42 75.6441C240.174 76.1241 239.916 76.5918 239.657 77.0717C239.499 77.3835 239.268 77.6519 238.982 77.8535C238.697 78.0552 238.367 78.1839 238.02 78.2286L236.556 78.4132C235.682 78.524 234.796 78.6347 233.922 78.7701C233.338 78.8823 232.734 78.8262 232.18 78.6083C231.627 78.3904 231.147 78.0197 230.796 77.5394C230.254 76.8748 229.676 76.2225 229.098 75.5826C228.778 75.2257 228.458 74.8688 228.15 74.4995C228.022 74.323 227.837 74.1959 227.626 74.1399C227.415 74.0838 227.192 74.1022 226.993 74.1919C224.913 75.0037 222.967 76.1238 221.221 77.5148C221.119 77.6679 221.063 77.8475 221.061 78.0317C221.08 78.4722 221.162 78.9075 221.307 79.324C221.504 79.9968 221.713 80.6737 221.935 81.3546L222.452 83.0038C222.581 83.3755 222.62 83.773 222.564 84.1627C222.509 84.5525 222.36 84.9232 222.132 85.2437C221.221 86.3883 220.138 87.7052 218.956 89.0836C218.542 89.4801 218.002 89.7195 217.43 89.7605C216.968 89.8036 216.502 89.8036 216.04 89.7605H215.633L214.55 89.662C213.874 89.662 213.197 89.5389 212.52 89.5266C212.218 89.5171 211.922 89.6106 211.68 89.7918C211.439 89.973 211.266 90.2311 211.191 90.5235C210.981 91.1881 210.772 91.8527 210.6 92.5173C210.341 93.5019 210.108 94.4741 209.861 95.4464L209.64 96.3817V96.6402C209.998 97.1982 210.524 97.6289 211.141 97.8709L213.184 98.9416L214.538 99.6431C214.872 99.8068 215.159 100.051 215.374 100.354C215.589 100.657 215.725 101.01 215.769 101.378L215.953 102.843C216.064 103.631 216.163 104.418 216.286 105.206C216.412 105.873 216.343 106.561 216.087 107.19C215.832 107.819 215.401 108.36 214.846 108.75C214.009 109.403 213.135 110.141 212.114 111.077C211.486 111.643 211.424 111.926 211.794 112.652C212.458 113.883 213.344 115.655 214.329 117.341C214.969 118.461 215.203 118.572 216.52 118.19L217.75 117.796L220.212 117.009C220.516 116.85 220.845 116.742 221.184 116.689H221.147ZM238.242 113.71C235.048 113.698 231.974 112.491 229.624 110.328C227.273 108.165 225.817 105.201 225.541 102.018C225.394 100.343 225.583 98.6546 226.097 97.0528C226.61 95.451 227.438 93.9677 228.531 92.6896C230.142 90.7296 232.303 89.2964 234.735 88.5745C237.168 87.8526 239.76 87.8749 242.18 88.6386C244.599 89.4023 246.735 90.8724 248.312 92.8598C249.889 94.8473 250.835 97.2611 251.029 99.7908C251.212 101.404 251.07 103.038 250.611 104.596C250.153 106.154 249.387 107.604 248.358 108.861C247.265 110.241 245.898 111.38 244.343 112.206C242.789 113.032 241.08 113.527 239.325 113.661C238.977 113.694 238.628 113.711 238.279 113.71H238.242ZM238.156 89.2928H237.146C234.144 89.6303 231.39 91.122 229.467 93.4526C227.991 95.1925 227.064 97.3313 226.803 99.5982C226.543 101.865 226.961 104.158 228.005 106.187C229.048 108.217 230.671 109.891 232.666 110.998C234.661 112.104 236.94 112.594 239.214 112.406C240.804 112.282 242.351 111.833 243.759 111.086C245.167 110.338 246.406 109.309 247.398 108.061C248.331 106.936 249.029 105.635 249.452 104.236C249.874 102.837 250.013 101.367 249.86 99.9139C249.629 96.9924 248.294 94.2686 246.127 92.2958C243.96 90.323 241.123 89.2493 238.193 89.2928H238.156Z" fill="#D2B330"/>
<path d="M62.6675 27.5229C62.6675 27.5229 32.2195 26.0091 26.0659 46.0945V86.3021C26.0659 86.3021 49.7327 67.669 62.6675 73.8841V27.5229Z" fill="#4C506D"/>
<path d="M26.0656 86.9176C25.9762 86.9345 25.8843 86.9345 25.7948 86.9176C25.6913 86.8668 25.6041 86.788 25.5431 86.6901C25.4822 86.5921 25.45 86.4791 25.4502 86.3637V46.0946C25.4443 46.0373 25.4443 45.9796 25.4502 45.9223C31.6777 25.6154 62.3718 26.8831 62.6795 26.9077C62.8384 26.914 62.9887 26.9817 63.0988 27.0964C63.2089 27.2111 63.2704 27.364 63.2703 27.523V73.8842C63.2709 73.9904 63.244 74.095 63.1922 74.1877C63.1405 74.2805 63.0656 74.3582 62.9749 74.4134C62.8851 74.4653 62.7832 74.4926 62.6795 74.4926C62.5758 74.4926 62.474 74.4653 62.3841 74.4134C49.9416 68.4075 26.6933 86.573 26.4225 86.7206C26.3329 86.8293 26.2053 86.8997 26.0656 86.9176ZM26.681 46.193V85.0592C31.2839 81.6255 50.2123 68.3337 62.0642 72.9489V28.1138C57.8551 28.0276 32.2192 28.3968 26.681 46.193Z" fill="#4C506D"/>
<path d="M94.1122 240.733C89.9401 242.111 85.7064 243.33 81.6327 244.93C74.8391 247.6 69.3255 245.754 65.6334 239.847C59.849 230.702 51.8124 224.327 42.865 218.481C29.7333 209.866 20.7121 197.707 17.143 182.347C9.88176 151.42 27.8995 125.193 59.7382 117.858C106.715 107.064 135.378 149.857 122.505 190.47C119.022 201.461 115.761 212.119 116.622 223.798C117.102 230.296 113.558 234.468 107.219 236.339C102.813 237.681 98.4813 239.268 94.1122 240.733Z" fill="#F5E6A5"/>
<path d="M75.8731 246.751C71.5287 246.751 67.8734 244.536 65.1289 240.179C58.9753 230.518 50.2865 224.057 42.5329 218.998C29.4293 210.7 20.1017 197.594 16.5524 182.495C13.1187 167.837 15.1494 153.918 22.423 142.238C30.115 129.931 43.3452 121.008 59.6153 117.267C80.2176 112.529 98.6537 117.599 111.527 131.556C125.447 146.632 129.877 169.302 123.108 190.704C119.798 201.165 116.376 211.983 117.25 223.798C117.73 230.382 114.333 234.875 107.404 236.979C104.389 237.865 101.349 238.911 98.4076 239.921L94.297 241.311L90.4818 242.542C87.6265 243.453 84.6728 244.4 81.8667 245.508C79.9637 246.292 77.931 246.713 75.8731 246.751ZM74.2609 116.762C69.4206 116.786 64.5985 117.356 59.8861 118.461C43.8867 122.153 30.9888 130.768 23.4691 142.891C16.3678 154.287 14.3864 167.887 17.7462 182.212C21.2661 197.202 29.8319 209.288 43.2098 217.964C51.0741 223.097 59.9476 229.669 66.1627 239.527C69.7934 245.274 74.9132 246.911 81.3991 244.363C84.2666 243.243 87.2327 242.296 90.1126 241.373L93.9155 240.142L98.0138 238.751C100.955 237.742 104.007 236.684 107.06 235.798C113.361 233.939 116.45 229.829 116.019 223.897C115.121 211.836 118.591 200.907 121.927 190.335C128.573 169.413 124.24 147.149 110.629 132.393C106.02 127.36 100.394 123.364 94.1245 120.669C87.8547 117.975 81.0841 116.643 74.2609 116.762Z" fill="#F5E6A5"/>
<path d="M110.845 235.217L77.189 246.452C74.1781 247.457 72.5521 250.713 73.5572 253.724L74.1417 255.475C75.1468 258.486 78.4025 260.112 81.4134 259.107L115.069 247.872C118.08 246.867 119.706 243.611 118.701 240.6L118.117 238.849C117.111 235.838 113.856 234.212 110.845 235.217Z" fill="#F54342"/>
<path d="M79.6141 260.006C78.2791 260.011 76.9767 259.593 75.8935 258.813C74.8103 258.032 74.0017 256.929 73.5836 255.661L72.9928 253.901C72.4625 252.3 72.5882 250.554 73.3425 249.046C74.0968 247.537 75.4182 246.389 77.0173 245.853L110.665 234.616C112.268 234.085 114.016 234.211 115.526 234.965C117.037 235.719 118.187 237.041 118.726 238.641L119.305 240.388C119.839 241.991 119.715 243.74 118.961 245.252C118.206 246.763 116.882 247.913 115.28 248.449L81.6325 259.661C80.9827 259.884 80.3011 260.001 79.6141 260.006ZM112.684 235.527C112.132 235.527 111.584 235.615 111.059 235.785L77.3619 247.022C76.0824 247.464 75.0289 248.393 74.4299 249.607C73.8308 250.822 73.7346 252.223 74.162 253.508L74.7528 255.255C74.9622 255.896 75.2976 256.489 75.7394 256.998C76.1811 257.507 76.7202 257.923 77.325 258.221C77.9283 258.525 78.5859 258.707 79.2597 258.755C79.9335 258.804 80.6103 258.719 81.251 258.504L114.899 247.268C115.538 247.054 116.129 246.716 116.638 246.274C117.146 245.831 117.563 245.293 117.864 244.689C118.164 244.086 118.343 243.429 118.39 242.757C118.436 242.084 118.35 241.409 118.136 240.77L117.557 239.022C117.212 238.003 116.557 237.118 115.682 236.491C114.808 235.864 113.759 235.527 112.684 235.527Z" fill="#F54342"/>
<path d="M119.772 260.363C121.36 265.138 114.85 271.587 105.373 274.775C95.8965 277.962 86.8015 276.67 85.2139 271.907L119.772 260.363Z" fill="#231F20"/>
<path d="M95.3183 277.138C94.2849 277.144 93.2523 277.074 92.2292 276.928C88.1802 276.35 85.4726 274.639 84.6234 272.104C84.5757 271.947 84.59 271.778 84.6633 271.632C84.7365 271.485 84.8632 271.372 85.0172 271.316L119.576 259.784C119.729 259.733 119.897 259.745 120.042 259.816C120.187 259.888 120.298 260.013 120.351 260.166C121.2 262.713 120.08 265.704 117.188 268.596C113.875 271.697 109.903 274.007 105.57 275.353C102.27 276.491 98.8089 277.094 95.3183 277.138ZM86.0387 272.276C86.9371 274.048 89.1647 275.255 92.4015 275.71C96.7201 276.074 101.068 275.555 105.179 274.184C109.29 272.812 113.079 270.618 116.314 267.735C118.616 265.421 119.674 263.12 119.33 261.163L86.0387 272.276Z" fill="#231F20"/>
<path d="M84.18 237.582C84.0426 237.579 83.9098 237.532 83.8012 237.448C83.6926 237.364 83.6139 237.247 83.577 237.115L83.2693 235.884C80.8079 225.509 78.1741 214.851 73.5958 205.116C66.968 206.379 60.1289 205.956 53.7074 203.885C49.9522 202.835 46.5505 200.789 43.8616 197.965C42.5023 196.519 41.5363 194.748 41.0559 192.822C40.5754 190.896 40.5965 188.878 41.1171 186.963C41.6791 185.57 42.5207 184.308 43.5901 183.253C44.6594 182.199 45.9337 181.375 47.3342 180.833C48.7346 180.291 50.2314 180.042 51.7319 180.101C53.2325 180.161 54.7049 180.527 56.0581 181.178C60.4887 183.738 65.2269 188.907 70.1621 196.538C71.6673 198.868 73.0278 201.289 74.2358 203.787C79.677 202.681 84.836 200.478 89.3983 197.313C89.2998 196.87 89.2014 196.439 89.1152 195.996L88.8937 194.913C87.1214 186.52 84.9308 176.071 88.5614 167.837C89.1398 166.508 91.3182 162.139 94.8011 161.413C95.6327 161.257 96.4901 161.313 97.2944 161.576C98.0987 161.838 98.8242 162.298 99.404 162.915C101.317 164.796 102.756 167.104 103.601 169.651C104.446 172.197 104.674 174.908 104.265 177.56C103.41 182.799 101.059 187.68 97.4964 191.615C95.5044 193.921 93.2491 195.987 90.7767 197.769C93.4588 209.047 97.5308 219.948 102.899 230.223C102.937 230.295 102.961 230.375 102.968 230.456C102.974 230.538 102.965 230.62 102.94 230.698C102.915 230.776 102.874 230.848 102.821 230.91C102.767 230.972 102.702 231.023 102.629 231.059C102.483 231.129 102.315 231.14 102.162 231.09C102.008 231.039 101.88 230.931 101.804 230.789C96.4664 220.571 92.3994 209.738 89.6936 198.532C85.2133 201.568 80.1911 203.716 74.9004 204.857C79.4417 214.592 82.0263 225.201 84.5246 235.539L84.8446 236.77C84.8816 236.928 84.8545 237.095 84.7692 237.233C84.6839 237.371 84.5473 237.47 84.3893 237.508L84.18 237.582ZM51.5167 181.191C50.2525 181.199 49.0007 181.441 47.8246 181.905C46.568 182.339 45.4226 183.046 44.4697 183.973C43.5168 184.9 42.7798 186.026 42.3109 187.27C41.859 188.986 41.8476 190.788 42.2779 192.509C42.7082 194.23 43.5662 195.815 44.7724 197.116C47.2996 199.765 50.4917 201.686 54.0151 202.679C60.1287 204.67 66.6395 205.118 72.9682 203.984C71.8168 201.638 70.5306 199.362 69.116 197.165C64.2916 189.707 59.6887 184.674 55.4304 182.2C54.235 181.531 52.8866 181.183 51.5167 181.191ZM95.8226 162.521C95.5957 162.523 95.3694 162.544 95.1457 162.582C92.8443 163.075 90.8628 165.856 89.7798 168.305C86.3215 176.145 88.4629 186.372 90.1859 194.606L90.4198 195.676C90.4198 195.947 90.5305 196.206 90.5798 196.476C92.8113 194.813 94.8504 192.906 96.6595 190.79C100.069 187.037 102.321 182.379 103.145 177.375C103.522 174.927 103.313 172.423 102.536 170.07C101.76 167.717 100.438 165.582 98.6779 163.838C97.9275 163.052 96.9069 162.582 95.8226 162.521Z" fill="#4C506D"/>
<path d="M202.083 58.4263C201.714 58.4263 184.853 106.178 184.853 106.178H230.587L240.162 56.2603L202.083 58.4263Z" fill="#E9D0D3"/>
<path d="M230.587 106.794H184.902C184.806 106.793 184.71 106.769 184.625 106.724C184.539 106.68 184.465 106.615 184.41 106.535C184.351 106.455 184.312 106.361 184.297 106.263C184.282 106.164 184.291 106.063 184.324 105.969C201.074 58.3771 201.468 57.8233 202.059 57.8233L240.137 55.6572C240.229 55.6528 240.322 55.6693 240.407 55.7055C240.492 55.7418 240.568 55.7968 240.629 55.8664C240.689 55.9375 240.732 56.0203 240.758 56.1093C240.783 56.1983 240.79 56.2916 240.777 56.3833L231.202 106.289C231.178 106.433 231.103 106.564 230.989 106.657C230.876 106.75 230.733 106.799 230.587 106.794ZM185.776 105.563H230.082L239.411 56.9248L202.489 59.0171C201.197 61.9954 192.04 87.779 185.776 105.563Z" fill="#231F20"/>
<path d="M194.009 90.9541C193.915 90.9555 193.821 90.9352 193.736 90.8946C193.651 90.8541 193.576 90.7944 193.517 90.7203C193.456 90.6387 193.415 90.5436 193.398 90.443C193.381 90.3424 193.388 90.2391 193.419 90.1418L198.982 73.4533C199.015 73.3415 199.081 73.2421 199.17 73.1676C199.26 73.0931 199.37 73.0469 199.486 73.0348L206.575 72.1733C206.676 72.1586 206.778 72.1702 206.873 72.2068C206.968 72.2435 207.052 72.304 207.117 72.3825C207.184 72.4609 207.231 72.5549 207.252 72.656C207.274 72.7571 207.269 72.862 207.24 72.961L202.083 90.031C202.047 90.1516 201.974 90.258 201.875 90.3353C201.776 90.4125 201.655 90.4567 201.529 90.4618L194.046 90.9541H194.009ZM200.028 74.204L194.871 89.6618L201.025 89.268L205.787 73.5148L200.028 74.204Z" fill="#4C506D"/>
<path d="M225.922 101.501H202.083C201.987 101.503 201.892 101.482 201.807 101.439C201.721 101.396 201.647 101.333 201.591 101.255C201.531 101.18 201.49 101.092 201.473 100.997C201.456 100.902 201.463 100.805 201.493 100.714L213.147 61.6753C213.186 61.5566 213.26 61.4521 213.359 61.3754C213.457 61.2986 213.577 61.2531 213.701 61.2446L235.854 59.6447C235.95 59.6388 236.046 59.6559 236.133 59.6944C236.221 59.733 236.298 59.7918 236.359 59.8662C236.424 59.9383 236.471 60.0255 236.494 60.12C236.518 60.2144 236.518 60.3133 236.494 60.4077L226.55 101.021C226.516 101.161 226.435 101.285 226.321 101.373C226.207 101.46 226.066 101.505 225.922 101.501ZM202.908 100.271H225.442L235.067 60.8877L214.206 62.3892L202.908 100.271Z" fill="#4C506D"/>
<path d="M168.238 86.1298C168.238 86.1298 173.53 81.6869 175.98 79.6686C178.429 77.6502 180.792 72.1119 183.007 72.1366C185.222 72.1612 181.259 78.7455 181.259 78.7455C181.259 78.7455 189.493 72.4319 192.053 72.2473C194.613 72.0627 196.053 76.3825 195.413 77.724C194.773 79.0655 187.794 82.3392 185.21 84.9237C182.625 87.5082 174.133 93.2926 174.133 93.2926" fill="white"/>
<path d="M174.183 93.8465C174.049 93.8489 173.918 93.8076 173.81 93.7289C173.702 93.6502 173.622 93.5384 173.583 93.4104C173.544 93.2824 173.548 93.1453 173.594 93.0196C173.64 92.894 173.726 92.7868 173.838 92.7143C173.924 92.7143 182.269 86.9422 184.779 84.4192C186.642 82.8159 188.663 81.4057 190.81 80.2102C192.272 79.4496 193.629 78.5022 194.847 77.3918C194.941 76.7945 194.915 76.1845 194.771 75.5972C194.628 75.0098 194.369 74.4569 194.01 73.9704C193.836 73.6097 193.565 73.304 193.229 73.0869C192.892 72.8698 192.502 72.7496 192.102 72.7397C190.354 72.8628 184.89 76.6165 181.641 79.1025C181.53 79.1946 181.391 79.245 181.247 79.245C181.103 79.245 180.964 79.1946 180.853 79.1025C180.746 79.0076 180.675 78.8774 180.655 78.7353C180.635 78.5931 180.666 78.4484 180.743 78.3272C182.232 75.8657 183.327 73.1458 183.032 72.6535C181.998 72.6535 180.57 74.635 179.34 76.3457C178.488 77.6944 177.476 78.9343 176.324 80.0379C173.863 82.0562 168.595 86.4991 168.595 86.4991L167.795 85.5638C167.795 85.5638 173.1 81.1086 175.537 79.0902C176.601 78.0605 177.539 76.9079 178.33 75.6565C179.856 73.4781 181.309 71.4228 182.946 71.4228C183.169 71.4153 183.39 71.4686 183.585 71.577C183.78 71.6854 183.942 71.8448 184.053 72.0382C184.546 72.9489 183.881 74.8073 183.081 76.4688C185.776 74.5365 190.071 71.6567 191.954 71.5459C192.564 71.534 193.166 71.6866 193.697 71.9876C194.227 72.2886 194.667 72.727 194.97 73.2566C195.456 73.9144 195.791 74.6708 195.953 75.4726C196.115 76.2743 196.098 77.1017 195.905 77.8964C195.524 78.6841 194.022 79.6317 191.401 81.2316C189.36 82.3935 187.439 83.7539 185.665 85.293C183.069 87.8898 174.897 93.5019 174.589 93.7358C174.472 93.8224 174.327 93.8619 174.183 93.8465Z" fill="white"/>
<path d="M171.623 50.7466C174.21 48.9308 176.992 47.4115 179.918 46.2176C183.278 45.1099 187.536 44.3592 186.576 42.9316C185.616 41.5039 177.641 43.5715 177.641 43.5715C177.641 43.5715 182.293 36.4457 184.903 35.0303C187.512 33.615 191.253 33.7258 189.407 32.372C187.561 31.0182 182.023 30.809 180.041 31.8059C178.06 32.8027 166.909 45.0607 166.343 45.713C165.777 46.3653 171.623 50.7466 171.623 50.7466Z" fill="white"/>
<path d="M171.623 51.362C171.489 51.3629 171.36 51.3196 171.253 51.2389C168.792 49.3929 165.801 46.956 165.691 45.9222C165.676 45.8124 165.685 45.7009 165.717 45.5949C165.749 45.4888 165.803 45.3907 165.875 45.3069C165.986 45.1838 177.604 32.3597 179.758 31.2644C181.911 30.169 187.671 30.3413 189.776 31.8797C190.01 32.052 190.625 32.5074 190.502 33.1104C190.379 33.7135 189.493 34.095 188.164 34.4519C187.132 34.6912 186.133 35.0505 185.185 35.5226C183.524 36.4211 180.705 40.1625 179.032 42.5378C181.899 41.8978 186.17 41.1963 187.068 42.5378C187.189 42.6998 187.267 42.8889 187.297 43.0885C187.327 43.2881 187.308 43.492 187.24 43.6823C186.871 44.7161 185.21 45.2453 182.318 46.1438C181.579 46.353 180.816 46.5745 180.09 46.8084C177.228 47.9934 174.505 49.4873 171.967 51.2636C171.864 51.3285 171.745 51.3627 171.623 51.362ZM166.995 45.9099C168.403 47.4265 169.962 48.7956 171.647 49.9959C174.163 48.2363 176.872 46.7704 179.721 45.6269C180.459 45.393 181.235 45.1592 181.998 44.95C183.462 44.5192 185.924 43.8054 186.096 43.3131C185.616 42.7224 181.751 43.1408 177.801 44.1623C177.681 44.1933 177.555 44.1876 177.439 44.1459C177.322 44.1042 177.221 44.0284 177.149 43.9285C177.079 43.8248 177.041 43.7027 177.041 43.5777C177.041 43.4527 177.079 43.3306 177.149 43.227C177.345 42.9316 181.911 35.9534 184.631 34.4888C185.66 33.9572 186.746 33.5443 187.868 33.2581C188.287 33.1474 188.828 32.9997 189.099 32.8766L189.037 32.8151C187.339 31.5843 182.022 31.4243 180.312 32.2982C178.601 33.172 168.681 44.0146 166.995 45.9099Z" fill="white"/>
<path d="M114.542 60.937C114.542 60.937 143.673 65.0845 148.079 63.9768L165.309 44.6545L175.414 51.2389C175.414 51.2389 170.097 67.1152 162.811 76.284C155.525 85.4529 107.859 87.4344 107.859 87.4344L114.542 60.937Z" fill="#F54342"/>
<path d="M177.678 229.226C177.678 229.226 174.318 236.487 175.081 239.379C175.845 242.271 188.853 261.471 190.736 259.304C192.619 257.138 189.776 238.382 189.776 238.382L177.678 229.226Z" fill="#231F20"/>
<path d="M115.08 247.883L81.4244 259.118C78.4135 260.123 76.7874 263.379 77.7925 266.389L78.3771 268.141C79.3822 271.151 82.6378 272.777 85.6487 271.772L119.305 260.537C122.316 259.532 123.942 256.277 122.936 253.266L122.352 251.515C121.347 248.504 118.091 246.878 115.08 247.883Z" fill="#F54342"/>
<path d="M190.342 260.092H189.997C186.391 259.243 175.106 241.914 174.49 239.576C173.703 236.548 176.767 229.73 177.124 229.004C177.163 228.922 177.22 228.85 177.29 228.792C177.36 228.735 177.442 228.694 177.53 228.672C177.618 228.648 177.71 228.645 177.8 228.662C177.889 228.679 177.974 228.716 178.047 228.77L190.145 237.878C190.209 237.924 190.262 237.983 190.303 238.05C190.343 238.118 190.369 238.193 190.379 238.271C190.859 241.459 193.16 257.483 191.191 259.747C191.083 259.863 190.951 259.954 190.805 260.014C190.658 260.074 190.5 260.1 190.342 260.092ZM177.924 230.124C176.902 232.487 175.155 237.201 175.672 239.182C176.533 242.444 188.262 258.812 190.317 258.812C191.4 257.581 190.317 246.308 189.185 238.616L177.924 230.124Z" fill="#231F20"/>
<path d="M184.533 214.149L177.678 229.226L189.776 238.333L198.847 220.697L184.533 214.149Z" fill="white"/>
<path d="M189.776 238.948C189.643 238.945 189.515 238.902 189.406 238.825L177.309 229.718C177.196 229.633 177.116 229.513 177.08 229.377C177.044 229.241 177.055 229.096 177.112 228.967L183.967 213.891C184.041 213.743 184.168 213.628 184.324 213.571C184.473 213.509 184.641 213.509 184.791 213.571L199.105 220.118C199.181 220.153 199.25 220.202 199.307 220.263C199.364 220.325 199.408 220.397 199.437 220.475C199.498 220.629 199.498 220.801 199.437 220.955L190.366 238.591C190.327 238.674 190.269 238.746 190.196 238.802C190.123 238.857 190.038 238.895 189.948 238.911L189.776 238.948ZM178.441 229.029L189.517 237.398L197.972 220.98L184.804 214.962L178.441 229.029Z" fill="#231F20"/>
<path d="M148.621 128.996C148.621 128.996 199.215 141.832 209.147 149.918C219.079 158.004 211.449 216.155 199.412 226.863L180.484 216.906C180.484 216.906 190.576 172.354 186.871 168.687C183.167 165.019 141.421 159.641 141.421 159.641L114.124 129.107L148.621 128.996Z" fill="#231F20"/>
<path d="M199.412 227.478C199.313 227.479 199.216 227.453 199.129 227.404L180.201 217.448C180.081 217.386 179.984 217.286 179.926 217.164C179.868 217.041 179.852 216.903 179.881 216.771C183.758 199.676 188.964 171.616 186.441 169.117C183.512 166.225 152.891 161.733 141.347 160.244C141.199 160.23 141.063 160.159 140.966 160.047L113.668 129.513C113.588 129.427 113.535 129.319 113.515 129.203C113.496 129.087 113.51 128.968 113.557 128.861C113.607 128.751 113.686 128.659 113.787 128.593C113.887 128.528 114.004 128.492 114.124 128.491L148.584 128.381H148.744C150.811 128.91 199.585 141.352 209.517 149.426C213.209 152.417 214.144 161.081 214.292 167.825C214.747 188.526 208.384 219.663 199.794 227.306C199.693 227.41 199.557 227.472 199.412 227.478ZM181.185 216.586L199.314 226.137C207.511 218.223 213.529 188.058 213.086 167.887C212.889 158.718 211.35 152.503 208.766 150.398C199.228 142.632 150.762 130.19 148.547 129.611L115.49 129.734L141.729 159.075C146.971 159.752 183.573 164.613 187.265 168.268C188.348 169.339 189.37 173.191 185.628 194.286C183.868 204.439 181.678 214.359 181.185 216.586Z" fill="#231F20"/>
<path d="M83.8358 271.67C82.502 271.663 81.2037 271.256 80.1225 270.505C79.0413 269.754 78.2311 268.697 77.8053 267.482L77.2269 265.803C76.9501 265.032 76.838 264.216 76.8972 263.403C76.9564 262.59 77.1858 261.797 77.5715 261.071C77.9372 260.345 78.4533 259.699 79.0883 259.172C79.7232 258.645 80.4635 258.249 81.2636 258.007L114.912 247.207C116.511 246.711 118.25 246.844 119.747 247.578C121.244 248.312 122.378 249.587 122.899 251.122L123.477 252.814C123.745 253.575 123.854 254.379 123.797 255.181C123.74 255.983 123.519 256.766 123.146 257.485C122.773 258.204 122.256 258.845 121.624 259.371C120.993 259.897 120.259 260.298 119.465 260.55L85.8173 271.351C85.1783 271.556 84.5097 271.664 83.8358 271.67ZM116.918 248.129C116.361 248.128 115.808 248.216 115.281 248.39L81.6329 259.166C80.3415 259.585 79.2751 260.478 78.6668 261.651C78.362 262.228 78.181 262.859 78.1345 263.505C78.088 264.151 78.1769 264.8 78.3961 265.412L78.9745 267.092C79.1859 267.708 79.522 268.279 79.9636 268.77C80.4052 269.261 80.9434 269.663 81.5474 269.953C82.1514 270.244 82.8092 270.416 83.4829 270.461C84.1566 270.506 84.8328 270.422 85.4727 270.215L119.121 259.415C119.761 259.21 120.353 258.886 120.862 258.461C121.372 258.037 121.789 257.519 122.09 256.939C122.391 256.358 122.569 255.726 122.615 255.079C122.661 254.432 122.573 253.783 122.357 253.169L121.779 251.489C121.567 250.874 121.231 250.306 120.789 249.817C120.348 249.327 119.81 248.927 119.207 248.638C118.494 248.302 117.711 248.128 116.918 248.129Z" fill="#F54342"/>
<path d="M143.735 254.012L142.147 267.907L155.562 274.332L158.614 255.157L143.735 254.012Z" fill="white"/>
<path d="M155.562 274.947C155.473 274.964 155.381 274.964 155.291 274.947L141.876 268.522C141.762 268.465 141.667 268.375 141.606 268.263C141.544 268.15 141.518 268.022 141.532 267.895L143.119 254C143.125 253.92 143.148 253.842 143.185 253.771C143.222 253.7 143.273 253.637 143.335 253.586C143.397 253.536 143.469 253.498 143.546 253.476C143.624 253.454 143.704 253.448 143.784 253.458L158.663 254.603C158.748 254.609 158.83 254.633 158.904 254.673C158.978 254.714 159.043 254.769 159.094 254.837C159.15 254.902 159.19 254.98 159.211 255.063C159.232 255.146 159.234 255.233 159.217 255.317L156.128 274.43C156.114 274.524 156.078 274.614 156.022 274.691C155.967 274.768 155.893 274.83 155.808 274.873C155.733 274.916 155.649 274.941 155.562 274.947ZM142.799 267.562L155.107 273.445L157.925 255.735L144.301 254.689L142.799 267.562Z" fill="#231F20"/>
<path d="M99.1211 142.005C99.1211 142.005 145.064 175.628 145.679 191.344C146.295 207.06 140.227 256.72 140.227 256.72L163.315 262.246C163.315 262.246 179.992 196.255 174.392 179.431C168.792 162.607 136.437 127.507 136.437 127.507L99.1211 142.005Z" fill="#231F20"/>
<path d="M163.316 262.861H163.168L140.129 257.311C139.982 257.278 139.853 257.192 139.766 257.069C139.68 256.946 139.642 256.795 139.661 256.646C139.661 256.154 145.716 206.839 145.101 191.356C144.51 176.12 99.2443 142.829 98.789 142.497C98.7025 142.429 98.6347 142.34 98.5916 142.239C98.5486 142.138 98.5318 142.028 98.5428 141.918C98.5604 141.809 98.6059 141.707 98.6749 141.62C98.7439 141.534 98.8341 141.467 98.9367 141.426L136.24 126.941C136.354 126.893 136.48 126.881 136.602 126.908C136.723 126.934 136.833 126.997 136.917 127.088C138.234 128.528 169.346 162.484 174.958 179.234C180.57 195.984 164.632 259.698 163.882 262.394C163.85 262.522 163.778 262.637 163.676 262.721C163.574 262.805 163.448 262.855 163.316 262.861ZM140.904 256.252L162.86 261.507C164.497 254.923 179.007 195.258 173.764 179.628C168.522 163.998 139.452 131.728 136.252 128.233L100.377 142.165C106.998 147.087 145.716 176.526 146.295 191.32C146.873 206.113 141.556 250.788 140.904 256.252Z" fill="#231F20"/>
<path d="M98.7275 45.147C96.9235 44.9198 95.2032 44.2519 93.7184 43.2025C90.9247 41.1595 89.4848 37.775 88.2417 34.5874C87.2636 32.4241 86.7121 30.0923 86.6172 27.72C86.7033 23.5356 89.4848 19.9296 92.34 16.8774C94.4815 14.5882 96.9183 11.6714 95.8968 8.70539C95.59 8.09071 95.3704 7.43622 95.2445 6.76085C95.1707 5.07477 97.4352 4.0902 99.0105 4.73017C100.513 5.55323 101.699 6.85195 102.383 8.42233C102.928 7.85162 103.325 7.15624 103.539 6.39684C103.754 5.63743 103.779 4.83708 103.613 4.06558C103.478 3.43791 103.22 2.76102 103.54 2.2195C103.819 1.8494 104.228 1.59875 104.684 1.51799C106.837 1.04107 109.091 1.41523 110.974 2.56217C112.857 3.70911 114.224 5.53995 114.788 7.67159C115.197 6.97601 115.453 6.20109 115.537 5.39875C115.622 4.59642 115.535 3.7852 115.281 3.01947C119.001 4.30632 122.149 6.86129 124.174 10.2366C126.199 13.612 126.972 17.5923 126.357 21.4803C125.97 24.3446 125.221 27.1483 124.13 29.8245C123.595 30.7265 122.873 31.503 122.013 32.1014C116.278 36.8889 113.693 42.9317 105.939 44.6916C103.581 45.2692 101.139 45.4234 98.7275 45.147Z" fill="#231F20"/>
<path d="M100.955 45.9099C100.181 45.9117 99.4083 45.8623 98.6411 45.7622C96.7364 45.5236 94.9215 44.8129 93.3614 43.6946C90.4692 41.5777 88.9677 38.1194 87.6754 34.7595C86.6475 32.5273 86.0703 30.1141 85.9771 27.6583C86.0755 23.2031 89.0046 19.474 91.8722 16.4095C94.149 13.9481 96.1551 11.3513 95.2936 8.8652C95.2198 8.66829 95.1459 8.48367 95.0598 8.29907C94.8117 7.81108 94.6572 7.28093 94.6044 6.73606C94.5937 6.30244 94.6945 5.87333 94.897 5.48978C95.0996 5.10623 95.3971 4.78106 95.7613 4.54537C96.2579 4.20026 96.8303 3.97983 97.4301 3.90271C98.0299 3.82559 98.6395 3.89405 99.2073 4.10231C100.591 4.77732 101.718 5.88286 102.419 7.25296C102.988 6.31656 103.177 5.1983 102.949 4.12693L102.875 3.85617C102.748 3.53093 102.688 3.18347 102.699 2.83456C102.709 2.48565 102.79 2.14245 102.936 1.82548C103.297 1.31273 103.845 0.963256 104.462 0.853213C105.604 0.577297 106.788 0.533165 107.947 0.723424C109.105 0.913684 110.214 1.33447 111.207 1.96086C112.744 2.8758 113.977 4.22447 114.751 5.83763C114.964 4.94136 114.922 4.00328 114.628 3.13004C114.592 3.02083 114.587 2.90358 114.614 2.79163C114.64 2.67967 114.698 2.57751 114.78 2.49674C114.862 2.41597 114.965 2.35984 115.078 2.33473C115.19 2.30962 115.307 2.31654 115.416 2.35469C117.761 3.19063 119.901 4.51481 121.696 6.23967C123.491 7.96453 124.899 10.0508 125.828 12.3604C126.975 15.2507 127.324 18.3964 126.837 21.4678C126.494 24.4203 125.77 27.316 124.683 30.0828C124.149 31.0126 123.423 31.8181 122.554 32.4458L122.406 32.5689C120.709 34.0469 119.114 35.6381 117.631 37.3317C114.493 40.7778 111.478 44.0392 106.075 45.2822C104.396 45.6765 102.679 45.8869 100.955 45.9099ZM97.9643 5.0992C97.443 5.09869 96.9333 5.25289 96.4997 5.54226C96.304 5.66232 96.1424 5.83061 96.0303 6.03101C95.9183 6.23142 95.8595 6.45722 95.8597 6.68683C95.9102 7.07862 96.0311 7.45805 96.2166 7.80678C96.3028 8.02831 96.4012 8.23753 96.4751 8.45906C97.7058 11.9912 94.5059 15.4126 92.7829 17.2464C90.0753 20.1386 87.3062 23.6461 87.2201 27.6829C87.3123 29.9764 87.8516 32.2298 88.8077 34.3165C90.0384 37.6394 91.4538 40.7901 94.0752 42.71C95.4744 43.7031 97.0983 44.3332 98.8011 44.5438C101.144 44.8125 103.516 44.6583 105.804 44.0884C110.887 42.9315 113.73 39.8178 116.733 36.5072C118.259 34.7558 119.904 33.111 121.656 31.5843L121.803 31.4612C122.531 30.9414 123.146 30.28 123.612 29.5167C124.619 26.8514 125.301 24.0746 125.643 21.2462C126.092 18.3909 125.769 15.4675 124.708 12.7789C123.105 8.80653 120.014 5.61777 116.093 3.89309C116.272 5.2747 115.977 6.67618 115.256 7.86832C115.191 7.97105 115.098 8.05245 114.988 8.1023C114.877 8.15215 114.754 8.16822 114.634 8.14849C114.515 8.12877 114.404 8.07413 114.315 7.99144C114.226 7.90875 114.164 7.80169 114.136 7.68371C113.607 5.71821 112.342 4.03196 110.602 2.97536C108.862 1.91876 106.783 1.57306 104.795 2.01009C104.495 2.04589 104.219 2.19041 104.019 2.41623C103.872 2.66237 104.019 3.06851 104.093 3.51157L104.167 3.80694C104.364 4.6746 104.345 5.5774 104.111 6.43585C103.877 7.2943 103.436 8.08208 102.826 8.72982C102.763 8.80286 102.682 8.85829 102.592 8.89067C102.501 8.92304 102.403 8.93122 102.309 8.91443C102.213 8.90608 102.12 8.87491 102.039 8.82352C101.958 8.77214 101.89 8.70203 101.841 8.61906C101.227 7.17365 100.149 5.9741 98.7765 5.20996C98.515 5.12283 98.2396 5.08526 97.9643 5.0992Z" fill="#231F20"/>
<path d="M125.151 32.8518C125.151 32.8518 129.446 40.7653 128.289 42.2299C127.132 43.6944 123.822 42.3653 123.822 42.3653" fill="white"/>
<path d="M126.468 43.5347C125.481 43.4999 124.508 43.3003 123.588 42.9439C123.438 42.8813 123.319 42.7621 123.257 42.6123C123.195 42.4625 123.194 42.2942 123.255 42.144C123.284 42.0692 123.327 42.0009 123.382 41.943C123.438 41.8851 123.504 41.8387 123.577 41.8067C123.65 41.7746 123.729 41.7574 123.809 41.7562C123.889 41.7549 123.969 41.7696 124.043 41.7994C124.794 42.0947 127.095 42.747 127.809 41.7994C128.289 41.184 126.8 37.1226 124.609 33.0982C124.569 33.0275 124.543 32.9493 124.533 32.8684C124.523 32.7874 124.53 32.7053 124.553 32.6271C124.576 32.5488 124.615 32.4761 124.667 32.4132C124.719 32.3503 124.783 32.2987 124.855 32.2613C125 32.1858 125.167 32.1693 125.324 32.2152C125.48 32.2611 125.612 32.3659 125.692 32.5074C127.034 34.9689 130.049 40.9502 128.769 42.5624C128.487 42.8912 128.132 43.1501 127.733 43.3188C127.333 43.4875 126.9 43.5614 126.468 43.5347Z" fill="#231F20"/>
<path d="M124.942 22.8709C127.871 25.7138 126.493 31.0675 126.173 34.5996C125.705 39.5717 125.122 44.5274 124.425 49.4667C123.982 52.6051 115.81 51.9282 114.456 50.9067L114.284 61.3924C114.284 61.3924 111.822 66.9799 105.546 63.3739C99.269 59.7678 98.0752 55.3619 98.0752 55.3619L99.8597 41.0363C99.8597 41.0363 105.238 41.5409 108.979 35.3873C112.721 29.2337 113.447 19.3879 113.447 19.3879C113.447 19.3879 122.087 20.0894 124.942 22.8709Z" fill="white"/>
<path d="M109.521 65.2076C108.012 65.1484 106.545 64.6989 105.263 63.903C98.8013 60.2109 97.5337 55.7557 97.4844 55.5711C97.4661 55.4942 97.4661 55.4141 97.4844 55.3372L99.269 40.9993C99.2933 40.8439 99.375 40.7032 99.4981 40.6052C99.6212 40.5072 99.7766 40.459 99.9336 40.4701C100.143 40.4701 105.004 40.8393 108.549 35.1165C112.167 29.1721 112.905 19.4618 112.918 19.3633C112.924 19.2824 112.946 19.2035 112.983 19.1312C113.02 19.0589 113.07 18.9946 113.132 18.942C113.194 18.8893 113.265 18.8495 113.343 18.8246C113.42 18.7998 113.501 18.7904 113.582 18.7972C113.939 18.7972 122.468 19.5233 125.459 22.4893C128.117 25.0615 127.539 29.3567 127.083 32.8151C126.997 33.4796 126.911 34.1319 126.849 34.7227C126.394 39.6456 125.803 44.6915 125.114 49.6144C125.012 50.138 124.767 50.6232 124.407 51.0163C124.046 51.4094 123.584 51.6952 123.071 51.842C120.488 52.6345 117.73 52.6601 115.133 51.9158L115.01 61.4662C115.021 61.5437 115.021 61.6225 115.01 61.7001C114.292 63.2174 113.012 64.3959 111.441 64.9861C110.818 65.1664 110.169 65.2412 109.521 65.2076ZM98.7028 55.3618C98.9367 56.0264 100.414 59.7309 105.878 62.8446C106.602 63.3445 107.424 63.6853 108.29 63.8444C109.155 64.0035 110.045 63.9773 110.899 63.7677C112.101 63.3176 113.095 62.4416 113.693 61.3062L113.828 50.9559C113.833 50.8417 113.869 50.7309 113.931 50.6354C113.994 50.54 114.082 50.4636 114.185 50.4144C114.281 50.3543 114.392 50.3225 114.505 50.3225C114.618 50.3225 114.729 50.3543 114.825 50.4144C115.564 51.0051 120.068 51.6451 122.53 50.6359C123.305 50.3282 123.76 49.8975 123.76 49.4052C124.449 44.4823 124.991 39.5594 125.496 34.5627C125.496 33.9596 125.643 33.332 125.729 32.6181C126.148 29.4306 126.677 25.48 124.499 23.3262C122.32 21.1725 115.97 20.3233 113.988 20.1017C113.767 22.4032 112.758 30.4028 109.496 35.7811C106.235 41.1593 101.964 41.6762 100.389 41.7255L98.7028 55.3618Z" fill="#231F20"/>
<path d="M124.609 45.7499C124.609 45.7499 120.56 47.7929 118.85 43.6331L124.609 45.7499Z" fill="white"/>
<path d="M122.407 46.8699C121.882 46.8728 121.361 46.7811 120.868 46.5991C120.268 46.3508 119.727 45.9793 119.28 45.5086C118.833 45.038 118.489 44.4787 118.271 43.8669C118.21 43.7134 118.212 43.5421 118.277 43.39C118.341 43.238 118.463 43.1175 118.616 43.0547C118.691 43.0247 118.771 43.0098 118.852 43.0109C118.933 43.012 119.013 43.0291 119.087 43.0611C119.162 43.0931 119.229 43.1394 119.285 43.1975C119.342 43.2555 119.386 43.3241 119.416 43.3993C119.569 43.8525 119.816 44.2686 120.141 44.6205C120.465 44.9724 120.86 45.2524 121.299 45.4423C122.308 45.736 123.39 45.6484 124.339 45.1961C124.412 45.1604 124.491 45.1394 124.571 45.1343C124.652 45.1292 124.733 45.1401 124.81 45.1664C124.887 45.1927 124.957 45.2339 125.018 45.2876C125.079 45.3412 125.128 45.4063 125.163 45.4792C125.233 45.625 125.244 45.7922 125.194 45.9458C125.143 46.0994 125.035 46.2276 124.893 46.3038C124.113 46.664 123.266 46.8568 122.407 46.8699Z" fill="#231F20"/>
<path d="M115.342 35.2151C115.308 33.9578 114.924 32.7348 114.234 31.6829C113.826 30.7876 113.287 29.958 112.634 29.2215C112.302 28.8671 111.897 28.5897 111.446 28.409C110.995 28.2282 110.51 28.1485 110.025 28.1754C109.598 28.2425 109.191 28.4003 108.83 28.638C108.469 28.8758 108.163 29.188 107.933 29.5538C107.469 30.2982 107.186 31.1414 107.108 32.0152C106.868 33.8716 107.12 35.7587 107.839 37.4868C108.559 39.215 109.72 40.7236 111.207 41.861L110.961 41.541" fill="white"/>
<path d="M111.207 42.5132C111.077 42.5152 110.951 42.4717 110.85 42.3901C109.273 41.1787 108.042 39.5755 107.277 37.7402C106.513 35.9048 106.243 33.9013 106.493 31.929C106.602 30.9801 106.921 30.0676 107.428 29.2583C107.703 28.8284 108.063 28.4598 108.486 28.176C108.91 27.8922 109.388 27.6992 109.89 27.6092C110.468 27.5631 111.05 27.6501 111.589 27.8634C112.129 28.0767 112.613 28.4107 113.004 28.8399C113.705 29.5982 114.282 30.462 114.714 31.3998C115.462 32.5515 115.867 33.8914 115.883 35.2642C115.865 35.423 115.788 35.5692 115.667 35.6739C115.547 35.7787 115.391 35.8345 115.231 35.8304C115.151 35.8257 115.072 35.805 115 35.7695C114.928 35.734 114.863 35.6844 114.811 35.6236C114.758 35.5628 114.718 35.4921 114.693 35.4156C114.668 35.339 114.658 35.2583 114.665 35.1781C114.624 34.0362 114.266 32.9282 113.631 31.9782C113.247 31.1523 112.741 30.3889 112.13 29.7137C111.87 29.4193 111.546 29.1877 111.184 29.0364C110.822 28.885 110.43 28.8178 110.038 28.8399C109.701 28.8998 109.38 29.0292 109.096 29.2199C108.812 29.4106 108.571 29.6584 108.388 29.9475C107.983 30.6005 107.73 31.3368 107.65 32.1013C107.437 33.8155 107.664 35.5558 108.31 37.1579C108.956 38.76 109.999 40.171 111.342 41.2578H111.404L111.662 41.5778C111.734 41.6692 111.779 41.7791 111.791 41.8949C111.804 42.0106 111.783 42.1275 111.731 42.2319C111.68 42.3363 111.599 42.4239 111.5 42.4846C111.401 42.5453 111.286 42.5765 111.17 42.5747L111.207 42.5132Z" fill="#231F20"/>
<path d="M114.444 50.9065C114.444 50.9065 110.333 49.2204 108.61 46.1559C108.61 46.1559 108.241 53.7494 114.542 56.4939L114.444 50.9065Z" fill="#231F20"/>
<path d="M114.542 57.1094C114.457 57.127 114.369 57.127 114.284 57.1094C107.675 54.2295 107.995 46.2545 107.995 46.1683C108.002 46.0346 108.053 45.9069 108.14 45.8047C108.226 45.7026 108.344 45.6315 108.475 45.6022C108.604 45.5736 108.74 45.5867 108.861 45.6398C108.983 45.6929 109.084 45.7831 109.152 45.8976C110.739 48.7405 114.641 50.3651 114.677 50.3774C114.79 50.4235 114.886 50.5019 114.954 50.6027C115.022 50.7034 115.058 50.822 115.059 50.9435L115.157 56.5433C115.157 56.6463 115.131 56.7475 115.082 56.8378C115.032 56.9281 114.961 57.0046 114.874 57.0602C114.771 57.1106 114.655 57.1278 114.542 57.1094ZM109.361 48.1621C109.505 49.659 109.991 51.1028 110.78 52.3828C111.57 53.6629 112.642 54.7451 113.914 55.5464L113.853 51.362C112.176 50.5726 110.655 49.4888 109.361 48.1621Z" fill="#231F20"/>
<path d="M123.224 28.8314C123.47 27.8754 123.365 27.0219 122.989 26.925C122.613 26.8282 122.109 27.5247 121.863 28.4807C121.616 29.4367 121.721 30.2902 122.097 30.387C122.473 30.4839 122.977 29.7874 123.224 28.8314Z" fill="#231F20"/>
<path d="M92.6968 51.6698C92.6968 51.6698 110.899 52.519 118.21 62.3032C125.52 72.0874 131.403 109.514 134.984 111.975C138.566 114.437 148.744 128.294 148.621 128.996C148.498 129.697 96.4998 146.226 96.4998 146.226C96.4998 146.226 93.4476 134.226 87.7124 118.682C81.9773 103.138 77.5344 52.7282 92.6968 51.6698Z" fill="#F54342"/>
<path d="M139.883 117.538C139.791 117.536 139.7 117.514 139.617 117.473C139.534 117.433 139.461 117.375 139.403 117.304C133.484 109.427 129.436 100.307 127.563 90.6342C124.88 75.521 119.859 66.3398 119.81 66.2537C119.73 66.1116 119.71 65.9438 119.754 65.7869C119.797 65.63 119.902 65.4969 120.044 65.4168C120.115 65.3778 120.193 65.3532 120.273 65.3445C120.354 65.3358 120.435 65.3431 120.513 65.366C120.591 65.3888 120.663 65.4268 120.726 65.4778C120.789 65.5288 120.842 65.5917 120.88 65.6629C120.88 65.7491 126.049 75.0903 128.769 90.4127C130.607 99.8834 134.571 108.813 140.363 116.529C140.465 116.655 140.513 116.816 140.497 116.977C140.481 117.138 140.401 117.287 140.277 117.39C140.166 117.483 140.027 117.535 139.883 117.538Z" fill="#231F20"/>
<path d="M107.54 66.8936C107.958 67.4105 128.536 100.234 128.536 100.234L169.457 80.5423L179.45 92.0618C179.45 92.0618 144.966 118.128 131.514 122.547C118.062 126.965 87.2081 78.9177 87.5527 73.638C87.8973 68.3582 101.632 59.5708 107.54 66.8936Z" fill="#F54342"/>
<path d="M128.535 100.899C128.43 100.899 128.327 100.874 128.235 100.824C128.142 100.775 128.064 100.703 128.006 100.615C128.006 100.615 109.644 71.3613 109.361 70.9429C109.283 70.806 109.26 70.6444 109.298 70.4914C109.335 70.3383 109.43 70.2055 109.562 70.1203C109.695 70.0351 109.855 70.004 110.01 70.0334C110.165 70.0628 110.302 70.1504 110.394 70.2783C110.628 70.6352 126.332 95.6311 128.708 99.4217L150.393 88.0868C150.537 88.0129 150.704 87.9985 150.858 88.0469C151.012 88.0953 151.141 88.2024 151.217 88.3452C151.256 88.417 151.28 88.4958 151.288 88.5769C151.295 88.658 151.287 88.7398 151.263 88.8177C151.239 88.8955 151.2 88.9678 151.148 89.0304C151.095 89.093 151.031 89.1445 150.959 89.1821L128.806 100.775C128.727 100.838 128.634 100.881 128.535 100.899Z" fill="#231F20"/>
<path d="M130.603 122.571C121.988 122.571 112.733 115.298 102.961 100.886C102.915 100.82 102.882 100.746 102.865 100.667C102.848 100.588 102.847 100.507 102.862 100.428C102.877 100.349 102.908 100.273 102.952 100.206C102.997 100.139 103.054 100.081 103.121 100.037C103.257 99.946 103.424 99.9118 103.584 99.9417C103.745 99.9716 103.888 100.063 103.983 100.197C114.641 115.926 124.573 122.941 133.52 121.045C142.467 119.15 160.35 105.046 160.522 104.947C160.584 104.896 160.657 104.858 160.734 104.835C160.812 104.812 160.893 104.805 160.974 104.814C161.054 104.823 161.132 104.848 161.202 104.888C161.273 104.928 161.334 104.982 161.383 105.046C161.435 105.108 161.473 105.181 161.496 105.258C161.519 105.336 161.526 105.417 161.517 105.498C161.508 105.578 161.482 105.656 161.443 105.726C161.403 105.796 161.349 105.858 161.285 105.907C160.547 106.498 143.07 120.27 133.766 122.239C132.727 122.463 131.666 122.575 130.603 122.571Z" fill="#231F20"/>
<path d="M114.911 59.817L113.939 62.7461L116.339 65.8722C116.339 65.8722 111.564 90.2404 75.2698 70.795L63.6025 75.0533L70.5315 84.4929C70.5315 84.4929 114.197 101.292 117.594 66.2044L118.21 62.2908L114.911 59.817Z" fill="#231F20"/>
<path d="M91.9827 89.0837C89.2096 89.0694 86.4412 88.8514 83.7 88.4314C79.1381 87.7303 74.6542 86.5929 70.3098 85.0346C70.1979 84.9985 70.1021 84.9245 70.039 84.8254L63.11 75.3858C63.0523 75.3099 63.0133 75.2214 62.9964 75.1275C62.9795 75.0336 62.985 74.9371 63.0127 74.8458C63.0403 74.7545 63.0892 74.6711 63.1553 74.6023C63.2215 74.5336 63.3029 74.4815 63.3931 74.4504L75.0726 70.2537C75.1496 70.2175 75.2337 70.1987 75.3188 70.1987C75.4039 70.1987 75.4879 70.2175 75.5649 70.2537C89.2628 77.638 99.9824 79.5087 107.404 76.0011C109.413 75.0088 111.189 73.6017 112.614 71.8728C114.04 70.1438 115.083 68.1323 115.674 65.9708L113.459 63.0663C113.398 62.987 113.357 62.894 113.339 62.7954C113.322 62.6967 113.329 62.5954 113.36 62.5001L114.333 59.5833C114.363 59.4918 114.415 59.4086 114.483 59.3403C114.552 59.272 114.635 59.2204 114.726 59.1895C114.82 59.1597 114.919 59.153 115.016 59.1702C115.112 59.1874 115.203 59.2278 115.28 59.288L118.566 61.7494C118.657 61.8139 118.727 61.902 118.771 62.004C118.814 62.1061 118.829 62.2181 118.812 62.3278L118.197 66.2415C117.348 75.0904 113.84 81.4901 107.81 85.2315C103.084 88.1729 97.3364 89.0837 91.9827 89.0837ZM70.9128 83.9516C73.005 84.7146 94.2965 92.1728 107.158 84.21C112.856 80.6902 116.166 74.5981 117.003 66.1184L117.569 62.5371L115.256 60.814L114.653 62.6232L116.843 65.4908C116.897 65.5596 116.935 65.6394 116.954 65.7245C116.973 65.8096 116.973 65.8979 116.954 65.9831C116.377 68.3915 115.271 70.6415 113.718 72.57C112.164 74.4985 110.2 76.0572 107.97 77.1334C100.216 80.8255 89.2136 78.9056 75.2449 71.4967L64.5992 75.3242L70.9128 83.9516Z" fill="#231F20"/>
<path d="M142.147 267.907C142.147 267.907 138.873 280.214 139.316 281.285C139.759 282.356 159.943 307.893 161.838 299.992C163.734 292.091 155.562 274.331 155.562 274.331L142.147 267.907Z" fill="#231F20"/>
<path d="M160.202 302.121C154.38 302.121 139.206 282.602 138.75 281.519C138.295 280.436 140.313 272.412 141.556 267.747C141.577 267.66 141.617 267.579 141.675 267.51C141.733 267.442 141.806 267.388 141.889 267.353C141.97 267.317 142.058 267.298 142.147 267.298C142.236 267.298 142.324 267.317 142.405 267.353L155.82 273.778C155.952 273.836 156.057 273.941 156.116 274.073C156.46 274.799 164.349 292.115 162.429 300.127C162.376 300.643 162.144 301.124 161.773 301.486C161.402 301.848 160.915 302.068 160.399 302.109L160.202 302.121ZM142.59 268.781C141.138 274.332 139.784 280.288 139.944 281.088C140.842 282.799 155.943 301.432 160.399 300.891C160.706 300.891 161.088 300.694 161.285 299.844C163.008 292.682 156.03 276.756 155.131 274.787L142.59 268.781Z" fill="#231F20"/>
<path d="M163.857 161.684C163.763 161.685 163.67 161.663 163.587 161.62C163.503 161.577 163.431 161.514 163.377 161.438L145.901 139.223C145.846 139.16 145.804 139.086 145.778 139.006C145.752 138.926 145.743 138.842 145.751 138.758C145.76 138.674 145.785 138.593 145.825 138.52C145.866 138.446 145.921 138.382 145.988 138.331C146.054 138.279 146.131 138.242 146.212 138.221C146.293 138.201 146.378 138.197 146.461 138.21C146.544 138.223 146.623 138.253 146.694 138.298C146.765 138.344 146.826 138.403 146.873 138.472L164.337 160.687C164.438 160.814 164.484 160.976 164.465 161.138C164.447 161.299 164.365 161.447 164.239 161.548C164.13 161.634 163.996 161.682 163.857 161.684Z" fill="#231F20"/>
<path d="M230.586 106.178L231.079 76.7147L241.146 29.5781L240.161 56.2601L230.586 106.178Z" fill="#E9D0D3"/>
<path d="M230.587 106.794H230.525C230.372 106.775 230.23 106.701 230.128 106.586C230.026 106.47 229.97 106.32 229.971 106.166L230.463 76.7024L240.543 29.4428C240.578 29.2941 240.666 29.1634 240.791 29.075C240.916 28.9867 241.068 28.9468 241.22 28.9628C241.374 28.9813 241.516 29.0576 241.617 29.1763C241.717 29.2951 241.769 29.4474 241.761 29.6028L240.777 56.2848L231.202 106.289C231.178 106.433 231.103 106.564 230.989 106.657C230.876 106.75 230.733 106.798 230.587 106.794ZM240.272 36.6425L231.657 76.8871L231.3 99.1385L239.534 56.1864L240.272 36.6425Z" fill="#231F20"/>
<path d="M0.909761 115.421C1.10668 114.842 1.3036 114.19 1.51282 113.661C1.62359 113.366 1.73435 113.058 1.86973 112.763C1.93365 112.575 2.06081 112.417 2.22931 112.313C2.3978 112.21 2.59707 112.169 2.79277 112.196C3.27275 112.196 3.74042 112.344 4.20809 112.43C4.4599 112.48 4.71485 112.513 4.97114 112.529C5.16094 112.526 5.34552 112.466 5.50035 112.356C6.05417 111.839 6.57108 111.298 7.08798 110.744C7.17172 110.64 7.22985 110.518 7.25764 110.388C7.28544 110.257 7.28212 110.122 7.24797 109.993C7.1249 109.427 6.98952 108.849 6.86645 108.283C6.82945 108.054 6.82945 107.822 6.86645 107.593C6.87231 107.51 6.89497 107.429 6.93305 107.355C6.97113 107.281 7.02384 107.216 7.08798 107.163C7.96905 106.613 8.92728 106.198 9.93094 105.932C10.08 105.886 10.2402 105.889 10.3869 105.943C10.5336 105.996 10.6588 106.096 10.7432 106.227C11.1001 106.72 11.4816 107.2 11.8262 107.717C11.945 107.903 12.1116 108.053 12.3087 108.153C12.5057 108.253 12.7259 108.297 12.9462 108.283C13.5739 108.283 14.1769 108.283 14.8292 108.197C14.9447 108.19 15.0568 108.155 15.1555 108.095C15.2543 108.035 15.3367 107.952 15.3953 107.852C15.6292 107.52 15.8384 107.175 16.0599 106.843C16.2815 106.51 16.4291 106.264 16.6261 105.994C16.7113 105.847 16.8461 105.735 17.0063 105.679C17.1664 105.622 17.3414 105.625 17.4999 105.686L20.0967 106.621C20.261 106.687 20.3974 106.807 20.4827 106.962C20.568 107.117 20.5969 107.297 20.5644 107.47C20.5644 107.95 20.4167 108.43 20.3305 108.91C20.3305 109.132 20.3305 109.353 20.2444 109.587C20.2267 109.734 20.2442 109.884 20.2956 110.023C20.3469 110.162 20.4306 110.287 20.5397 110.387C20.9951 110.818 21.4628 111.249 21.9058 111.692C22.0323 111.827 22.1926 111.925 22.3701 111.977C22.5476 112.029 22.7358 112.033 22.915 111.987L24.7857 111.556C24.9898 111.489 25.2121 111.504 25.4052 111.599C25.5982 111.693 25.7469 111.859 25.8195 112.061C26.1764 112.799 26.521 113.55 26.8533 114.301C26.9132 114.403 26.9525 114.515 26.9688 114.632C26.9851 114.749 26.9783 114.868 26.9485 114.983C26.9188 115.097 26.8669 115.204 26.7956 115.298C26.7244 115.393 26.6352 115.472 26.5333 115.532C26.2134 115.778 25.8688 115.999 25.5365 116.245C25.2042 116.492 25.0688 116.602 24.8473 116.799C24.7517 116.875 24.6759 116.973 24.6266 117.084C24.5773 117.196 24.5559 117.318 24.5642 117.439C24.5642 118.092 24.5642 118.744 24.5642 119.396C24.5713 119.573 24.6236 119.745 24.7163 119.896C24.809 120.047 24.9388 120.171 25.0934 120.258C25.438 120.467 25.8072 120.676 26.1518 120.898C26.3764 121.026 26.5942 121.165 26.8041 121.316C26.9515 121.416 27.06 121.563 27.1116 121.733C27.1631 121.904 27.1545 122.087 27.0872 122.251C26.8041 123.039 26.5087 123.827 26.2134 124.602C26.1626 124.721 26.0963 124.833 26.0164 124.934C25.9467 125.06 25.8391 125.162 25.7088 125.223C25.5786 125.285 25.4322 125.305 25.2903 125.279L23.5919 124.996H23.4689C23.2428 124.947 23.0074 124.962 22.7898 125.04C22.5721 125.119 22.3809 125.257 22.2381 125.439C21.9182 125.82 21.5489 126.165 21.2166 126.522C21.0563 126.679 20.9418 126.876 20.8854 127.093C20.829 127.31 20.8329 127.538 20.8967 127.753C21.032 128.307 21.1674 128.848 21.2782 129.402C21.3889 129.956 21.2782 130.239 20.749 130.497C19.9859 130.866 19.2106 131.211 18.4229 131.556C18.2494 131.645 18.0488 131.667 17.86 131.617C17.6713 131.567 17.5078 131.449 17.4014 131.285C17.0937 130.903 16.823 130.497 16.5399 130.054C15.9245 129.205 15.7769 129.119 14.7307 129.18H13.5C13.3048 129.184 13.1138 129.238 12.9456 129.337C12.7774 129.436 12.6377 129.577 12.5401 129.746C12.2939 130.153 12.0478 130.571 11.7893 130.977C11.6509 131.183 11.4944 131.377 11.3216 131.556C11.2455 131.646 11.1433 131.712 11.0288 131.742C10.9143 131.773 10.7932 131.768 10.6817 131.728L8.22024 130.805C8.10948 130.805 8.01102 130.682 7.90025 130.62C7.77408 130.55 7.67296 130.443 7.61114 130.313C7.54932 130.182 7.52992 130.036 7.55565 129.894C7.6418 129.328 7.74026 128.774 7.82641 128.22C7.83849 128.048 7.83849 127.876 7.82641 127.703C7.84705 127.565 7.83188 127.423 7.78234 127.291C7.73281 127.16 7.65054 127.043 7.54334 126.953L6.21417 125.722C6.08903 125.598 5.93276 125.509 5.76172 125.466C5.59068 125.423 5.41115 125.426 5.2419 125.476L3.51889 125.882H3.45735C2.73123 126.005 2.49739 125.882 2.22663 125.254C1.95587 124.627 1.56205 123.765 1.25437 123.014C1.20284 122.928 1.16955 122.832 1.15656 122.732C1.14356 122.632 1.15113 122.531 1.17879 122.434C1.20646 122.337 1.25364 122.247 1.31743 122.169C1.38122 122.091 1.46028 122.027 1.54974 121.981C1.9928 121.648 2.43586 121.316 2.90353 121.021C3.12882 120.895 3.31135 120.705 3.4276 120.474C3.54384 120.244 3.5885 119.984 3.55581 119.728C3.55581 119.138 3.55581 118.498 3.48197 117.968C3.47828 117.846 3.44502 117.726 3.38503 117.619C3.32504 117.511 3.24008 117.42 3.13737 117.353C2.64508 117.033 2.15279 116.738 1.67281 116.418C1.32877 116.25 1.05443 115.967 0.897461 115.618L0.909761 115.421ZM19.5182 118.695C19.5183 117.959 19.3728 117.231 19.0904 116.552C18.8079 115.874 18.3939 115.257 17.8723 114.739C17.3507 114.221 16.7317 113.811 16.051 113.533C15.3703 113.255 14.6414 113.115 13.9062 113.119C12.4508 113.167 11.0699 113.775 10.0518 114.816C9.03365 115.857 8.45686 117.251 8.44177 118.707C8.39119 119.465 8.49688 120.226 8.7523 120.942C9.00773 121.658 9.40745 122.313 9.92668 122.868C10.4459 123.423 11.0736 123.866 11.7708 124.168C12.468 124.471 13.22 124.627 13.98 124.627C14.74 124.627 15.492 124.471 16.1892 124.168C16.8864 123.866 17.5141 123.423 18.0333 122.868C18.5526 122.313 18.9523 121.658 19.2077 120.942C19.4631 120.226 19.5688 119.465 19.5182 118.707V118.695Z" fill="#F54342"/>
<path d="M10.8293 132.417C10.6813 132.419 10.5346 132.389 10.3985 132.331L7.93711 131.408C7.79824 131.354 7.6661 131.283 7.54328 131.199C7.30966 131.063 7.12241 130.86 7.00603 130.617C6.88965 130.373 6.84956 130.1 6.891 129.833L7.16176 128.159C7.17443 128.007 7.17443 127.855 7.16176 127.704C7.16176 127.544 7.16176 127.482 7.08792 127.445L5.94335 126.387L5.74643 126.19C5.69517 126.136 5.62904 126.1 5.55662 126.084C5.48419 126.069 5.40883 126.076 5.3403 126.104L4.10958 126.387L3.65421 126.485C2.55887 126.682 2.05427 126.485 1.63583 125.538C1.21739 124.59 0.95893 124.024 0.65125 123.261C0.496403 122.961 0.46111 122.614 0.552509 122.29C0.643908 121.965 0.855172 121.688 1.14354 121.513C1.59891 121.168 2.05427 120.836 2.53425 120.528C2.66578 120.459 2.77289 120.351 2.84112 120.219C2.90935 120.087 2.93541 119.937 2.91578 119.79C2.91578 119.421 2.91578 119.039 2.91578 118.67V118.018C2.9239 117.998 2.92808 117.977 2.92808 117.956C2.92808 117.935 2.9239 117.914 2.91578 117.895L1.43891 116.959C0.976351 116.717 0.617698 116.314 0.42972 115.827C0.418079 115.766 0.418079 115.704 0.42972 115.643V115.421C0.417958 115.356 0.417958 115.289 0.42972 115.224L0.57741 114.781C0.725097 114.338 0.872786 113.895 1.03278 113.464C1.19277 113.033 1.26661 112.836 1.40199 112.529C1.51646 112.217 1.73351 111.953 2.01752 111.781C2.30153 111.609 2.63563 111.538 2.96501 111.581C3.285 111.581 3.60498 111.68 3.93727 111.741L4.60186 111.852H5.05723C5.10996 111.863 5.16449 111.863 5.21722 111.852C5.70951 111.372 6.22641 110.843 6.73101 110.301C6.73101 110.301 6.73101 110.178 6.73101 110.092L6.55871 109.354C6.48487 109.021 6.42333 108.701 6.34949 108.381C6.28732 108.099 6.26249 107.809 6.27564 107.52C6.29127 107.341 6.34562 107.169 6.4349 107.013C6.52417 106.858 6.64623 106.724 6.79255 106.621C7.68178 106.036 8.65206 105.584 9.67243 105.28C9.93982 105.2 10.2258 105.207 10.489 105.299C10.7523 105.392 10.9792 105.566 11.137 105.797L11.5185 106.301C11.7647 106.634 12.0108 106.966 12.2323 107.311C12.286 107.411 12.3688 107.493 12.4698 107.546C12.5708 107.598 12.6853 107.619 12.7985 107.606C13.2169 107.606 13.6353 107.606 14.0292 107.606H14.6938C14.8611 107.393 15.0172 107.171 15.1614 106.941L15.543 106.351C15.7029 106.117 15.8506 105.883 16.0229 105.649C16.186 105.398 16.4296 105.21 16.7137 105.116C16.9978 105.022 17.3055 105.028 17.586 105.132C18.4598 105.44 19.3459 105.748 20.2074 106.08C20.4953 106.191 20.7371 106.396 20.8935 106.662C21.05 106.928 21.1118 107.239 21.0689 107.544C21.0689 107.889 20.9704 108.221 20.9089 108.554L20.8351 109.034C20.7943 109.241 20.7655 109.451 20.7489 109.661C20.7362 109.715 20.7387 109.771 20.7561 109.823C20.7735 109.875 20.8051 109.921 20.8474 109.957L21.192 110.289C21.5366 110.609 21.8935 110.941 22.2258 111.286C22.2815 111.348 22.3542 111.393 22.4351 111.415C22.516 111.437 22.6015 111.435 22.6811 111.409L23.5796 111.2L24.5395 110.978C24.8811 110.884 25.2451 110.917 25.5642 111.071C25.8832 111.225 26.1357 111.489 26.2748 111.815C26.6317 112.566 26.9763 113.316 27.2963 114.08C27.4815 114.408 27.5336 114.796 27.4421 115.162C27.3505 115.528 27.1222 115.846 26.804 116.049C26.6071 116.209 26.3979 116.344 26.1887 116.492L25.7949 116.775L25.1426 117.292C25.1137 117.309 25.091 117.335 25.0778 117.366C25.0645 117.397 25.0614 117.431 25.0687 117.464V117.882C25.0687 118.387 25.0687 118.892 25.0687 119.396C25.0687 119.472 25.0893 119.546 25.1284 119.611C25.1674 119.677 25.2233 119.73 25.2903 119.765L25.7579 120.036L26.3733 120.405C26.6071 120.553 26.841 120.701 27.0625 120.873C27.3167 121.051 27.5037 121.309 27.593 121.606C27.6823 121.903 27.6689 122.221 27.5548 122.51C27.2717 123.285 26.9763 124.073 26.6687 124.861C26.609 125.01 26.5304 125.15 26.4348 125.279C26.3028 125.515 26.1 125.704 25.8549 125.819C25.6098 125.934 25.3348 125.969 25.0687 125.919L23.3826 125.648H23.2103C23.0847 125.614 22.9515 125.621 22.8298 125.667C22.7082 125.714 22.6044 125.798 22.5334 125.907C22.2996 126.177 22.0412 126.436 21.7827 126.694L21.4873 127.002C21.4007 127.084 21.3387 127.188 21.3083 127.304C21.2778 127.419 21.2802 127.54 21.315 127.654C21.4627 128.208 21.5981 128.774 21.7089 129.328C21.8308 129.679 21.8085 130.064 21.647 130.398C21.4855 130.733 21.198 130.99 20.8474 131.113C20.072 131.482 19.2843 131.826 18.4967 132.159C18.1989 132.308 17.8575 132.345 17.5345 132.264C17.2115 132.183 16.9284 131.988 16.7368 131.716C16.4906 131.383 16.2445 131.051 16.0106 130.707L15.8629 130.51C15.3953 129.845 15.3953 129.845 14.6322 129.894H13.4015C13.3074 129.89 13.2141 129.913 13.1331 129.961C13.0521 130.009 12.9871 130.08 12.9461 130.165L12.6877 130.571C12.5277 130.854 12.3554 131.137 12.1831 131.408C12.0256 131.651 11.8442 131.878 11.6416 132.085C11.4209 132.292 11.1317 132.41 10.8293 132.417ZM5.5126 124.848C5.92187 124.846 6.3156 125.005 6.60794 125.291L6.81716 125.488L7.93711 126.534C8.10952 126.686 8.24306 126.877 8.32656 127.091C8.41006 127.306 8.44111 127.537 8.4171 127.765C8.4171 127.95 8.4171 128.147 8.4171 128.331L8.14634 130.017C8.14634 130.017 8.14633 130.017 8.22018 130.128L8.4171 130.251L10.8785 131.174C11.0139 131.002 11.1493 130.842 11.2601 130.67C11.3708 130.497 11.5924 130.14 11.74 129.87L11.9985 129.451C12.1481 129.197 12.3597 128.984 12.6137 128.833C12.8676 128.683 13.1556 128.599 13.4507 128.59H14.6815C15.1419 128.483 15.6252 128.537 16.0507 128.743C16.4762 128.949 16.8182 129.294 17.0198 129.722L17.1675 129.931C17.4013 130.251 17.6229 130.571 17.869 130.867C18.1152 131.162 18.0167 131.027 18.1767 130.953C18.9521 130.633 19.7151 130.288 20.4781 129.919C20.5578 129.884 20.6323 129.838 20.6997 129.783C20.7151 129.69 20.7151 129.594 20.6997 129.5C20.5889 128.959 20.4658 128.417 20.3305 127.888C20.2378 127.572 20.2323 127.238 20.3146 126.919C20.397 126.601 20.5641 126.31 20.7981 126.079L21.1058 125.759C21.344 125.529 21.5699 125.287 21.7827 125.033C22.0011 124.748 22.2987 124.535 22.638 124.419C22.9774 124.303 23.3435 124.289 23.6903 124.381L25.4749 124.676C25.4749 124.676 25.4749 124.676 25.5979 124.59C25.6467 124.525 25.688 124.455 25.721 124.381C26.0164 123.605 26.3118 122.83 26.5948 122.042C26.5948 121.968 26.5948 121.919 26.5087 121.808C26.3215 121.663 26.1241 121.531 25.9179 121.415L25.3272 121.07L24.8595 120.787C24.6177 120.648 24.4152 120.449 24.271 120.21C24.1268 119.971 24.0456 119.7 24.0349 119.421C24.0349 118.904 24.0349 118.387 24.0349 117.882V117.452C24.0267 117.239 24.068 117.027 24.1556 116.832C24.2431 116.638 24.3745 116.467 24.5395 116.332C24.7664 116.126 25.0047 115.932 25.2533 115.753L25.6841 115.446L26.2379 115.052C26.4964 114.83 26.4964 114.806 26.3733 114.535C26.041 113.784 25.7087 113.046 25.3518 112.307C25.2656 112.135 25.2287 112.098 24.9949 112.147L24.0472 112.369L23.1365 112.566C22.8553 112.637 22.56 112.633 22.281 112.553C22.0021 112.473 21.7494 112.32 21.5489 112.11C21.2166 111.778 20.8843 111.458 20.5397 111.15L20.1951 110.818C20.0294 110.661 19.9005 110.469 19.8175 110.256C19.7345 110.044 19.6996 109.815 19.7151 109.587C19.7151 109.341 19.7151 109.095 19.8136 108.861L19.8997 108.357C19.9619 108.06 20.0071 107.76 20.0351 107.458C20.0351 107.286 20.0351 107.261 19.9612 107.249C19.112 106.917 18.2505 106.621 17.389 106.314C17.3275 106.314 17.2906 106.314 17.2167 106.4C17.1429 106.486 16.9214 106.831 16.7737 107.052L16.3922 107.631L15.9983 108.246C15.8832 108.422 15.7288 108.569 15.5474 108.676C15.3659 108.783 15.1622 108.846 14.9522 108.861H14.2753C13.8692 108.861 13.4753 108.861 13.0446 108.861C12.7151 108.893 12.3833 108.832 12.0873 108.684C11.7912 108.536 11.5429 108.307 11.3708 108.024C11.1493 107.704 10.9155 107.384 10.6693 107.064L10.2878 106.547C10.2878 106.474 10.2139 106.461 10.1278 106.547C9.18527 106.823 8.28923 107.238 7.46944 107.778C7.51898 107.935 7.55602 108.096 7.58021 108.258C7.64174 108.566 7.71558 108.886 7.78943 109.206L7.96173 109.969C8.00712 110.185 8.00185 110.408 7.94633 110.622C7.89081 110.835 7.78655 111.033 7.64174 111.2C7.12484 111.766 6.59563 112.307 6.04181 112.836C5.77361 113.055 5.43978 113.176 5.09415 113.181C4.85862 113.168 4.62424 113.14 4.39264 113.095L3.72805 112.984C3.43268 112.984 3.1373 112.873 2.84193 112.849C2.54656 112.824 2.63271 112.849 2.54656 113.046C2.46041 113.243 2.30042 113.612 2.20196 113.907L1.7589 115.212L1.63583 115.556C1.76379 115.722 1.92795 115.857 2.11581 115.95L3.51883 116.898C3.70302 117.016 3.8554 117.178 3.96267 117.369C4.06993 117.56 4.12882 117.774 4.13419 117.993V118.658C4.13419 119.015 4.13419 119.384 4.13419 119.741C4.1749 120.108 4.1082 120.479 3.94216 120.809C3.77613 121.139 3.5179 121.413 3.19884 121.599C2.74347 121.895 2.31272 122.202 1.88197 122.535C1.82771 122.574 1.77817 122.619 1.73429 122.67V122.842C2.04197 123.581 2.34965 124.319 2.69425 125.045C2.81732 125.316 2.87885 125.365 2.89116 125.365C3.02541 125.39 3.16305 125.39 3.2973 125.365L3.78959 125.254L5.02031 124.984C5.17729 124.916 5.34299 124.87 5.5126 124.848ZM14.0046 124.848C12.7905 124.843 11.6051 124.479 10.5975 123.802C9.58995 123.125 8.80523 122.164 8.34212 121.042C7.87901 119.92 7.75821 118.686 7.99493 117.495C8.23164 116.304 8.8153 115.21 9.67243 114.35C10.8017 113.21 12.3267 112.549 13.9307 112.504C14.745 112.494 15.5531 112.646 16.3083 112.951C17.0634 113.256 17.7505 113.708 18.3298 114.28C18.909 114.853 19.3689 115.534 19.6828 116.286C19.9966 117.037 20.1582 117.843 20.1582 118.658C20.177 119.44 20.0398 120.219 19.7545 120.948C19.4693 121.677 19.0417 122.342 18.4967 122.904C17.9219 123.52 17.2265 124.012 16.4538 124.349C15.6811 124.685 14.8474 124.859 14.0046 124.861V124.848ZM13.9307 113.772C12.6536 113.817 11.4425 114.35 10.5462 115.261C10.087 115.718 9.72234 116.26 9.47314 116.858C9.22394 117.455 9.09509 118.096 9.09399 118.744C9.09399 120.05 9.61265 121.302 10.5359 122.225C11.4591 123.148 12.7112 123.667 14.0169 123.667C14.6933 123.673 15.3637 123.539 15.9863 123.275C16.6088 123.01 17.1701 122.62 17.6352 122.128C18.5023 121.227 18.9798 120.02 18.9644 118.769C18.9644 118.116 18.8347 117.47 18.5827 116.867C18.3307 116.265 17.9615 115.719 17.4965 115.261C17.0315 114.803 16.4801 114.442 15.8742 114.199C15.2684 113.956 14.6203 113.836 13.9676 113.846L13.9307 113.772Z" fill="#F54342"/>
<path d="M206.686 247.699C206.957 246.628 207.215 245.545 207.498 244.474C207.634 243.908 207.806 243.367 207.978 242.813C208.068 242.468 208.274 242.166 208.561 241.955C208.848 241.744 209.198 241.639 209.554 241.656C210.415 241.656 211.264 241.779 212.126 241.841C212.584 241.884 213.046 241.884 213.504 241.841C213.842 241.818 214.162 241.684 214.415 241.459C215.313 240.45 216.15 239.404 216.987 238.345C217.129 238.151 217.219 237.923 217.249 237.684C217.279 237.446 217.248 237.203 217.159 236.979C216.852 235.97 216.519 234.973 216.224 233.976C216.092 233.579 216.022 233.164 216.015 232.746C216.012 232.596 216.039 232.447 216.093 232.307C216.148 232.168 216.23 232.041 216.335 231.933C217.828 230.775 219.487 229.849 221.258 229.189C221.514 229.075 221.801 229.052 222.072 229.124C222.342 229.195 222.581 229.357 222.747 229.583C223.473 230.419 224.224 231.219 224.925 232.044C225.154 232.369 225.473 232.62 225.842 232.766C226.212 232.913 226.616 232.948 227.005 232.869C228.113 232.696 229.245 232.586 230.353 232.426C230.56 232.402 230.758 232.327 230.928 232.206C231.098 232.086 231.235 231.924 231.325 231.736C231.67 231.109 231.99 230.506 232.334 229.829C232.679 229.152 232.913 228.746 233.233 228.216C233.357 227.94 233.579 227.72 233.856 227.597C234.133 227.475 234.446 227.458 234.734 227.552C236.334 227.958 237.934 228.376 239.509 228.783C239.812 228.87 240.075 229.061 240.253 229.321C240.43 229.582 240.511 229.896 240.482 230.21C240.482 231.072 240.346 231.946 240.285 232.807C240.285 233.213 240.285 233.632 240.285 234.038C240.275 234.302 240.328 234.564 240.439 234.804C240.55 235.043 240.717 235.253 240.925 235.416C241.811 236.118 242.709 236.807 243.558 237.545C243.808 237.769 244.115 237.921 244.444 237.984C244.774 238.047 245.114 238.018 245.429 237.902C246.512 237.57 247.595 237.201 248.691 236.868C249.044 236.713 249.443 236.702 249.805 236.838C250.166 236.974 250.459 237.245 250.623 237.595C251.378 238.858 252.104 240.138 252.801 241.434C252.93 241.606 253.022 241.803 253.072 242.011C253.123 242.22 253.13 242.437 253.095 242.648C253.059 242.86 252.981 243.062 252.865 243.243C252.749 243.423 252.597 243.579 252.42 243.699C251.878 244.204 251.3 244.647 250.758 245.139C250.217 245.631 249.983 245.84 249.614 246.222C249.451 246.379 249.327 246.572 249.255 246.786C249.182 247.001 249.161 247.229 249.195 247.453C249.318 248.61 249.441 249.779 249.589 250.936C249.626 251.25 249.744 251.549 249.932 251.804C250.12 252.058 250.37 252.26 250.66 252.388L252.666 253.36C253.089 253.561 253.5 253.787 253.896 254.037C254.178 254.186 254.398 254.429 254.519 254.723C254.641 255.018 254.656 255.345 254.561 255.649C254.167 257.101 253.761 258.541 253.33 259.981C253.255 260.201 253.156 260.411 253.035 260.609C252.931 260.843 252.756 261.039 252.536 261.169C252.315 261.299 252.059 261.357 251.804 261.335L248.74 261.089H248.506C248.074 261.014 247.63 261.07 247.231 261.25C246.832 261.43 246.496 261.725 246.266 262.098C245.761 262.824 245.171 263.489 244.617 264.178C244.353 264.48 244.178 264.849 244.111 265.244C244.044 265.64 244.087 266.046 244.235 266.418C244.568 267.366 244.9 268.326 245.183 269.298C245.278 269.481 245.334 269.682 245.346 269.888C245.358 270.094 245.326 270.3 245.253 270.493C245.18 270.686 245.066 270.861 244.921 271.007C244.775 271.153 244.6 271.267 244.408 271.341C243.091 272.116 241.762 272.855 240.408 273.569C240.113 273.764 239.754 273.838 239.406 273.776C239.058 273.714 238.747 273.521 238.537 273.236C237.934 272.609 237.38 271.932 236.814 271.267C235.583 269.839 235.313 269.729 233.454 270.036L231.288 270.344C230.941 270.376 230.608 270.499 230.323 270.699C230.038 270.9 229.811 271.172 229.664 271.489C229.282 272.264 228.925 273.039 228.519 273.802C228.306 274.196 228.055 274.567 227.768 274.91C227.647 275.086 227.474 275.218 227.272 275.289C227.071 275.36 226.853 275.365 226.648 275.304L222.095 274.073C221.888 274.006 221.69 273.915 221.504 273.802C221.27 273.698 221.074 273.524 220.944 273.303C220.814 273.083 220.756 272.827 220.778 272.572L220.999 269.544C221.018 269.237 221.018 268.928 220.999 268.621C221.007 268.37 220.955 268.122 220.848 267.895C220.741 267.668 220.582 267.47 220.384 267.316C219.51 266.652 218.661 265.975 217.799 265.298C217.558 265.097 217.268 264.965 216.958 264.915C216.649 264.865 216.331 264.9 216.04 265.015C215.08 265.347 214.107 265.643 213.147 265.95C213.111 265.956 213.073 265.956 213.037 265.95C211.806 266.295 211.338 266.172 210.686 265.04C210.034 263.907 209.271 262.48 208.606 261.175C208.503 261.029 208.43 260.863 208.393 260.687C208.356 260.512 208.354 260.331 208.389 260.155C208.423 259.979 208.493 259.812 208.594 259.664C208.695 259.515 208.824 259.389 208.975 259.292C209.714 258.628 210.464 257.988 211.24 257.385C211.628 257.117 211.927 256.74 212.1 256.302C212.274 255.863 212.312 255.384 212.212 254.923C212.052 253.889 211.941 252.843 211.794 251.797C211.773 251.578 211.699 251.367 211.576 251.185C211.453 251.002 211.287 250.853 211.092 250.751L208.323 249.311C207.687 249.068 207.159 248.605 206.834 248.006L206.686 247.699ZM240.482 250.677C240.372 249.364 240.003 248.086 239.396 246.917C238.789 245.748 237.956 244.711 236.945 243.866C235.934 243.022 234.766 242.386 233.507 241.996C232.249 241.606 230.926 241.469 229.614 241.594C227.021 241.898 224.645 243.192 222.983 245.205C221.32 247.219 220.499 249.796 220.692 252.4C220.93 255.012 222.187 257.426 224.19 259.119C226.194 260.812 228.784 261.648 231.399 261.446C232.708 261.35 233.985 260.994 235.154 260.398C236.323 259.801 237.362 258.977 238.208 257.974C239.054 256.971 239.691 255.808 240.082 254.555C240.472 253.302 240.608 251.984 240.482 250.677Z" fill="#F54342"/>
<path d="M226.808 276.03C226.655 276.027 226.502 276.006 226.353 275.968L225.122 275.624L221.811 274.701C221.586 274.63 221.371 274.53 221.171 274.405C220.813 274.25 220.512 273.986 220.311 273.65C220.11 273.314 220.019 272.924 220.052 272.535L220.15 271.218C220.15 270.652 220.236 270.073 220.273 269.507C220.292 269.22 220.292 268.932 220.273 268.646C220.283 268.485 220.254 268.325 220.188 268.179C220.121 268.033 220.019 267.906 219.892 267.809C219.071 267.201 218.283 266.586 217.529 265.963L217.307 265.79C217.141 265.645 216.936 265.551 216.717 265.52C216.499 265.49 216.276 265.524 216.076 265.618L214.021 266.283L213.172 266.553H213.049C212.769 266.689 212.464 266.766 212.153 266.777C211.842 266.788 211.532 266.733 211.244 266.618C210.955 266.502 210.694 266.326 210.477 266.103C210.26 265.88 210.092 265.614 209.984 265.323C209.172 263.92 208.446 262.517 207.892 261.434C207.624 261.014 207.528 260.507 207.624 260.019C207.721 259.531 208.002 259.098 208.409 258.812C209.27 258.037 209.997 257.409 210.698 256.868C210.993 256.673 211.222 256.393 211.356 256.066C211.49 255.739 211.522 255.379 211.449 255.034C211.35 254.381 211.264 253.742 211.178 253.089L211.03 251.859C211.021 251.736 210.98 251.618 210.911 251.517C210.842 251.415 210.747 251.334 210.637 251.28L209.529 250.689L207.88 249.84C207.112 249.531 206.482 248.954 206.107 248.216C206.096 248.155 206.096 248.092 206.107 248.031V247.649C206.101 247.58 206.101 247.51 206.107 247.44L206.354 246.456C206.538 245.705 206.723 244.954 206.92 244.203C207.117 243.453 207.24 243.071 207.424 242.517C207.558 242.05 207.843 241.64 208.236 241.353C208.628 241.065 209.104 240.916 209.59 240.93C210.169 240.93 210.747 240.93 211.313 241.04L212.187 241.114H212.544C212.851 241.144 213.16 241.144 213.467 241.114C213.651 241.101 213.829 241.042 213.984 240.942C214.919 239.871 215.793 238.776 216.532 237.853C216.608 237.733 216.654 237.596 216.664 237.455C216.675 237.313 216.651 237.171 216.593 237.041C216.47 236.61 216.322 236.167 216.187 235.736C216.052 235.305 215.83 234.604 215.658 234.038C215.511 233.588 215.433 233.12 215.424 232.647C215.422 232.404 215.471 232.163 215.569 231.94C215.666 231.718 215.81 231.518 215.99 231.355C217.516 230.164 219.213 229.209 221.024 228.524C221.398 228.372 221.81 228.345 222.201 228.447C222.591 228.549 222.938 228.775 223.19 229.09C223.436 229.386 223.707 229.681 223.965 229.964C224.445 230.506 224.913 231.047 225.368 231.601C225.528 231.845 225.759 232.034 226.029 232.144C226.3 232.254 226.597 232.279 226.882 232.216C227.604 232.101 228.33 232.003 229.06 231.921L230.291 231.773C230.4 231.754 230.502 231.71 230.59 231.644C230.678 231.577 230.748 231.491 230.796 231.392L231.386 230.284L231.977 229.176C232.211 228.733 232.457 228.29 232.716 227.859C232.915 227.475 233.24 227.171 233.636 226.999C234.033 226.826 234.477 226.795 234.894 226.912C236.789 227.379 238.315 227.786 239.694 228.143C240.125 228.266 240.502 228.533 240.759 228.901C241.017 229.268 241.14 229.713 241.109 230.161C241.099 230.753 241.058 231.345 240.986 231.933L240.912 232.807C240.912 233.201 240.912 233.595 240.912 234.038C240.904 234.209 240.936 234.38 241.007 234.536C241.078 234.692 241.184 234.829 241.318 234.936L241.897 235.391C242.598 235.945 243.3 236.499 243.977 237.078C244.142 237.223 244.344 237.322 244.56 237.363C244.777 237.404 245 237.386 245.207 237.311L246.795 236.807L248.469 236.278C248.955 236.088 249.494 236.085 249.983 236.269C250.471 236.453 250.874 236.811 251.115 237.274C251.87 238.554 252.596 239.847 253.293 241.151C253.616 241.618 253.745 242.192 253.654 242.752C253.562 243.312 253.256 243.815 252.801 244.154C252.481 244.45 252.149 244.733 251.804 245.016L251.127 245.594C250.746 245.939 250.376 246.283 250.02 246.653C249.926 246.739 249.854 246.847 249.812 246.967C249.769 247.087 249.756 247.216 249.773 247.342L249.847 248.093C249.946 248.991 250.044 249.902 250.167 250.812C250.19 251.028 250.269 251.233 250.396 251.408C250.524 251.583 250.695 251.722 250.893 251.809L251.718 252.203L252.949 252.769C253.372 252.984 253.783 253.223 254.179 253.483C254.569 253.704 254.873 254.051 255.041 254.466C255.209 254.882 255.23 255.342 255.102 255.772C254.709 257.224 254.302 258.664 253.872 260.117C253.792 260.358 253.685 260.589 253.552 260.806C253.392 261.16 253.126 261.456 252.791 261.652C252.456 261.848 252.068 261.935 251.681 261.901L248.616 261.667H248.346C248.027 261.604 247.696 261.642 247.4 261.777C247.104 261.911 246.858 262.136 246.697 262.418C246.327 262.947 245.921 263.427 245.466 263.92L244.974 264.523C244.776 264.743 244.645 265.015 244.597 265.308C244.549 265.6 244.586 265.9 244.703 266.172C245.035 267.144 245.355 268.104 245.65 269.089C245.766 269.338 245.831 269.607 245.84 269.882C245.849 270.156 245.803 270.43 245.704 270.686C245.606 270.942 245.456 271.176 245.265 271.373C245.074 271.57 244.845 271.726 244.592 271.833C243.361 272.559 242.057 273.285 240.58 274.073C240.163 274.329 239.668 274.426 239.186 274.344C238.704 274.263 238.268 274.009 237.958 273.63C237.466 273.101 236.999 272.559 236.543 272.005L236.223 271.636C235.14 270.405 235.066 270.332 233.417 270.553L231.251 270.873C231.005 270.893 230.768 270.977 230.565 271.118C230.362 271.258 230.2 271.45 230.094 271.673L229.713 272.436C229.467 272.965 229.208 273.495 228.937 273.999C228.711 274.437 228.438 274.849 228.125 275.23C227.985 275.458 227.792 275.65 227.563 275.789C227.334 275.928 227.075 276.011 226.808 276.03ZM216.606 264.289C217.142 264.293 217.66 264.485 218.07 264.83L218.292 265.003L220.642 266.836C220.914 267.045 221.133 267.313 221.282 267.621C221.432 267.928 221.508 268.267 221.504 268.609C221.522 268.937 221.522 269.265 221.504 269.593C221.504 270.172 221.418 270.738 221.381 271.316L221.27 272.621C221.256 272.762 221.289 272.904 221.365 273.025C221.441 273.145 221.555 273.237 221.688 273.285C221.834 273.378 221.991 273.453 222.156 273.507C223.251 273.827 224.347 274.122 225.454 274.43L226.685 274.774C226.82 274.774 226.968 274.836 227.165 274.59C227.429 274.274 227.66 273.932 227.854 273.568C228.113 273.076 228.359 272.559 228.605 272.055L228.987 271.279C229.179 270.874 229.472 270.525 229.839 270.266C230.205 270.008 230.632 269.848 231.079 269.802L233.245 269.482C235.325 269.199 235.805 269.384 237.158 270.984L237.478 271.353C237.934 271.895 238.377 272.424 238.857 272.928C238.916 273.02 238.993 273.099 239.085 273.159C239.176 273.219 239.278 273.26 239.386 273.279C239.494 273.297 239.604 273.293 239.71 273.267C239.816 273.24 239.915 273.192 240.001 273.125C241.454 272.362 242.758 271.636 243.964 270.922C244.629 270.529 244.69 270.356 244.469 269.581C244.186 268.621 243.866 267.673 243.534 266.726C243.351 266.254 243.3 265.742 243.384 265.244C243.469 264.746 243.686 264.28 244.014 263.895L244.518 263.28C244.912 262.812 245.294 262.357 245.65 261.852C245.948 261.39 246.376 261.027 246.879 260.808C247.383 260.589 247.941 260.524 248.481 260.621H248.666L251.73 260.867C251.87 260.882 252.011 260.85 252.131 260.777C252.252 260.704 252.344 260.593 252.395 260.461C252.49 260.3 252.572 260.131 252.641 259.957C253.047 258.517 253.453 257.077 253.872 255.637C253.935 255.46 253.93 255.266 253.857 255.093C253.784 254.919 253.649 254.78 253.478 254.701C253.106 254.464 252.72 254.251 252.321 254.061L251.176 253.495L250.327 253.089C249.949 252.913 249.621 252.643 249.376 252.305C249.13 251.967 248.975 251.572 248.924 251.157C248.801 250.246 248.703 249.323 248.604 248.4L248.518 247.662C248.481 247.354 248.514 247.042 248.617 246.75C248.719 246.457 248.888 246.193 249.109 245.976C249.49 245.582 249.884 245.213 250.339 244.856L251.041 244.253C251.361 243.994 251.681 243.723 251.976 243.44C252.567 242.887 252.616 242.616 252.247 241.914C251.546 240.684 250.819 239.354 250.081 238.087C250.032 237.974 249.961 237.873 249.872 237.789C249.782 237.706 249.677 237.641 249.561 237.599C249.446 237.558 249.324 237.54 249.201 237.548C249.079 237.556 248.96 237.588 248.85 237.644C248.297 237.804 247.755 237.988 247.201 238.161L245.601 238.677C245.186 238.825 244.738 238.859 244.305 238.774C243.872 238.69 243.469 238.491 243.14 238.198C242.475 237.631 241.786 237.09 241.097 236.548L240.518 236.081C240.238 235.86 240.013 235.578 239.861 235.255C239.71 234.932 239.635 234.579 239.645 234.222C239.645 233.804 239.645 233.373 239.645 232.992C239.645 232.61 239.645 232.389 239.731 232.081C239.731 231.527 239.841 230.973 239.841 230.419C239.865 230.243 239.826 230.064 239.732 229.914C239.637 229.763 239.493 229.651 239.325 229.595C237.958 229.201 236.445 228.795 234.562 228.364C234.401 228.311 234.227 228.321 234.074 228.392C233.921 228.463 233.8 228.589 233.737 228.746C233.479 229.164 233.257 229.582 233.023 229.976L232.433 231.084C232.236 231.453 232.039 231.835 231.829 232.204C231.692 232.473 231.492 232.706 231.245 232.882C230.999 233.057 230.714 233.171 230.414 233.213L229.183 233.361C228.47 233.459 227.756 233.545 227.054 233.656C226.556 233.752 226.042 233.703 225.571 233.515C225.1 233.328 224.692 233.009 224.396 232.598C223.953 232.056 223.485 231.539 223.018 231.01L222.23 230.124C222.144 229.995 222.015 229.902 221.865 229.861C221.716 229.82 221.557 229.835 221.418 229.902C219.72 230.543 218.13 231.439 216.704 232.561C216.662 232.663 216.637 232.771 216.63 232.881C216.636 233.229 216.699 233.574 216.815 233.902L217.332 235.588C217.479 236.019 217.615 236.462 217.75 236.905C217.867 237.226 217.902 237.57 217.853 237.907C217.803 238.244 217.671 238.564 217.467 238.837C216.729 239.773 215.842 240.88 214.882 241.976C214.522 242.315 214.058 242.523 213.566 242.567C213.181 242.604 212.793 242.604 212.409 242.567H212.076L211.178 242.493C210.637 242.493 210.083 242.394 209.541 242.382C209.32 242.373 209.103 242.44 208.926 242.572C208.749 242.704 208.623 242.894 208.569 243.108C208.397 243.65 208.224 244.191 208.089 244.733C207.892 245.483 207.707 246.222 207.523 246.973L207.301 247.859V248.031C207.583 248.45 207.987 248.772 208.458 248.954L210.12 249.828L211.24 250.406C211.521 250.553 211.763 250.767 211.943 251.028C212.124 251.29 212.237 251.592 212.273 251.908C212.273 252.314 212.372 252.708 212.433 253.138C212.507 253.778 212.593 254.369 212.692 255.046C212.796 255.612 212.735 256.196 212.517 256.728C212.299 257.26 211.932 257.719 211.461 258.049C210.784 258.578 210.07 259.181 209.233 259.932C208.753 260.363 208.717 260.547 209 261.089C209.529 262.147 210.23 263.55 211.055 264.916C211.56 265.778 211.683 265.827 212.716 265.544L213.639 265.249C214.316 265.027 215.006 264.818 215.67 264.584C215.963 264.434 216.279 264.334 216.606 264.289ZM230.562 262.123C228.506 262.125 226.495 261.528 224.772 260.406C223.05 259.284 221.692 257.685 220.864 255.803C220.036 253.922 219.773 251.84 220.108 249.812C220.444 247.784 221.362 245.898 222.752 244.383C224.141 242.868 225.942 241.791 227.934 241.283C229.925 240.775 232.022 240.857 233.968 241.521C235.913 242.185 237.623 243.4 238.889 245.02C240.155 246.639 240.922 248.592 241.097 250.64C241.249 251.971 241.133 253.32 240.755 254.605C240.376 255.89 239.743 257.087 238.894 258.123C237.996 259.267 236.87 260.213 235.589 260.901C234.308 261.59 232.898 262.005 231.448 262.123C231.153 262.123 230.857 262.123 230.562 262.123ZM230.488 242.197H229.663C228.128 242.354 226.656 242.888 225.377 243.751C224.098 244.615 223.053 245.781 222.335 247.147C221.616 248.512 221.246 250.034 221.259 251.577C221.271 253.12 221.665 254.636 222.405 255.99C223.145 257.344 224.209 258.493 225.501 259.337C226.794 260.18 228.275 260.69 229.812 260.822C231.349 260.954 232.895 260.703 234.313 260.093C235.73 259.482 236.974 258.531 237.934 257.323C238.678 256.414 239.234 255.366 239.568 254.239C239.902 253.113 240.007 251.931 239.878 250.763C239.697 248.406 238.626 246.207 236.882 244.611C235.138 243.016 232.852 242.144 230.488 242.173V242.197Z" fill="#F54342"/>
<path d="M271.963 123.384C264.825 131.248 246.574 146.312 209.11 146.853L208.077 213.595C208.077 213.595 243.891 219.097 271.963 194.187V123.384Z" fill="#0093C4"/>
<path d="M216.667 214.691C213.763 214.718 210.86 214.553 207.978 214.198C207.831 214.177 207.698 214.103 207.602 213.989C207.507 213.876 207.457 213.731 207.461 213.583L208.495 146.841C208.498 146.682 208.563 146.531 208.675 146.418C208.788 146.306 208.939 146.241 209.098 146.238C245.466 145.709 263.816 131.469 271.508 122.977C271.59 122.884 271.699 122.817 271.82 122.786C271.94 122.755 272.068 122.762 272.185 122.805C272.3 122.852 272.4 122.931 272.47 123.034C272.54 123.137 272.578 123.259 272.579 123.384V194.187C272.579 194.274 272.561 194.359 272.525 194.438C272.489 194.517 272.436 194.586 272.369 194.642C252.752 212.057 229.134 214.691 216.667 214.691ZM208.692 213.054C213.221 213.583 245.7 216.5 271.348 193.904V124.984C263.004 133.599 244.58 146.841 209.713 147.493L208.692 213.054Z" fill="#0093C4"/>
<path d="M217.32 205.743C217.161 205.743 217.008 205.682 216.893 205.572C216.778 205.462 216.711 205.311 216.704 205.153C216.701 204.99 216.76 204.833 216.871 204.713C216.981 204.594 217.133 204.522 217.295 204.513C229.473 204.283 241.444 201.318 252.321 195.836C256.399 193.785 260.179 191.189 263.558 188.119V142.447C263.558 142.284 263.623 142.128 263.738 142.012C263.853 141.897 264.01 141.832 264.173 141.832C264.336 141.832 264.493 141.897 264.608 142.012C264.724 142.128 264.788 142.284 264.788 142.447V188.378C264.789 188.456 264.774 188.532 264.744 188.604C264.714 188.676 264.671 188.741 264.616 188.796C264.456 188.956 249.023 204.673 217.344 205.743H217.32Z" fill="white"/>
<path d="M221.245 162.927C221.082 162.927 220.926 162.862 220.81 162.747C220.695 162.631 220.63 162.475 220.63 162.311C220.63 162.148 220.695 161.992 220.81 161.876C220.926 161.761 221.082 161.696 221.245 161.696C221.331 161.696 230.586 161.056 235.559 157.635C235.624 157.588 235.699 157.556 235.778 157.539C235.856 157.522 235.938 157.521 236.017 157.535C236.096 157.55 236.171 157.581 236.239 157.625C236.306 157.67 236.363 157.728 236.408 157.795C236.499 157.927 236.535 158.091 236.507 158.249C236.48 158.408 236.391 158.55 236.26 158.644C231.005 162.262 221.713 162.902 221.319 162.927H221.245Z" fill="white"/>
<path d="M221.246 157.179C221.086 157.176 220.933 157.112 220.818 157C220.704 156.888 220.637 156.736 220.63 156.576C220.627 156.495 220.64 156.414 220.669 156.338C220.698 156.262 220.742 156.192 220.798 156.134C220.854 156.075 220.922 156.029 220.997 155.997C221.072 155.965 221.152 155.949 221.233 155.949C221.32 155.949 229.984 155.653 235.522 151.875C235.589 151.83 235.664 151.798 235.744 151.782C235.823 151.766 235.905 151.765 235.984 151.781C236.064 151.796 236.139 151.827 236.207 151.872C236.274 151.916 236.332 151.974 236.377 152.041C236.423 152.108 236.454 152.183 236.47 152.263C236.487 152.342 236.487 152.424 236.472 152.503C236.456 152.583 236.425 152.658 236.381 152.726C236.336 152.793 236.278 152.851 236.211 152.896C230.378 156.884 221.627 157.167 221.258 157.179H221.246Z" fill="white"/>
<path d="M218.969 197.731C218.816 197.73 218.67 197.668 218.562 197.559C218.504 197.504 218.457 197.437 218.425 197.363C218.393 197.289 218.376 197.209 218.376 197.128C218.376 197.048 218.393 196.968 218.425 196.894C218.457 196.82 218.504 196.753 218.562 196.698C218.673 196.562 230.451 183.763 235.386 175.775C235.435 175.695 235.501 175.626 235.58 175.575C235.659 175.524 235.748 175.491 235.842 175.48C235.934 175.473 236.027 175.486 236.114 175.518C236.201 175.55 236.28 175.6 236.346 175.665L245.897 185.51C247.694 181.966 255.189 166.927 256.715 158.053L252.296 160.711C252.227 160.753 252.15 160.781 252.07 160.794C251.989 160.806 251.907 160.802 251.829 160.783C251.75 160.763 251.675 160.728 251.61 160.68C251.545 160.632 251.489 160.572 251.447 160.502C251.405 160.433 251.377 160.356 251.365 160.275C251.353 160.195 251.357 160.113 251.376 160.034C251.395 159.955 251.43 159.881 251.478 159.816C251.526 159.75 251.587 159.695 251.656 159.653L257.182 156.33C257.282 156.273 257.394 156.243 257.509 156.243C257.623 156.243 257.736 156.273 257.835 156.33C257.931 156.394 258.008 156.482 258.058 156.586C258.107 156.69 258.128 156.806 258.118 156.921C257.01 166.865 247.041 186.015 246.586 186.827C246.542 186.914 246.478 186.988 246.398 187.044C246.319 187.1 246.227 187.135 246.131 187.147C246.035 187.16 245.938 187.152 245.846 187.122C245.755 187.092 245.671 187.042 245.601 186.975L236.014 177.031C230.796 185.141 219.584 197.338 219.461 197.473C219.404 197.55 219.329 197.614 219.244 197.659C219.159 197.703 219.065 197.728 218.969 197.731Z" fill="white"/>
<path d="M259.312 162.927C259.182 162.928 259.054 162.889 258.948 162.814C258.842 162.738 258.762 162.632 258.721 162.508L256.887 157.105C256.849 157.027 256.829 156.942 256.827 156.855C256.825 156.768 256.841 156.681 256.875 156.601C256.908 156.521 256.959 156.449 257.022 156.39C257.086 156.33 257.161 156.285 257.244 156.257C257.326 156.229 257.413 156.219 257.5 156.227C257.586 156.235 257.67 156.262 257.746 156.305C257.822 156.347 257.887 156.406 257.939 156.476C257.99 156.546 258.026 156.627 258.044 156.712L259.89 162.114C259.941 162.27 259.93 162.439 259.859 162.586C259.788 162.733 259.662 162.846 259.508 162.902L259.312 162.927Z" fill="white"/>
<path d="M26.0659 46.0946C26.0659 46.0946 28.1581 62.5001 38.3731 66.02V101.711C38.3731 101.711 30.6811 98.2525 26.0659 86.3391V46.0946Z" fill="#0093C4"/>
<path d="M38.3726 102.289C38.2874 102.307 38.1994 102.307 38.1142 102.289C37.7942 102.142 30.1391 98.5971 25.4993 86.573C25.482 86.5001 25.482 86.4243 25.4993 86.3515V46.0946C25.4992 45.9388 25.5593 45.7891 25.6671 45.6767C25.7749 45.5642 25.9221 45.4979 26.0777 45.4916C26.1554 45.483 26.2339 45.49 26.3089 45.5121C26.3838 45.5341 26.4536 45.5708 26.5143 45.62C26.575 45.6692 26.6253 45.73 26.6623 45.7988C26.6993 45.8676 26.7223 45.943 26.73 46.0208C26.73 46.1808 28.8838 62.094 38.6188 65.4415C38.739 65.484 38.8435 65.5621 38.9182 65.6655C38.993 65.7688 39.0345 65.8925 39.0372 66.02V101.711C39.037 101.814 39.011 101.915 38.9616 102.005C38.9121 102.096 38.8408 102.172 38.7541 102.228C38.6385 102.293 38.503 102.315 38.3726 102.289ZM26.6808 86.1915C30.2376 95.2865 35.6527 99.3479 37.7573 100.628V66.4384C31.3821 63.977 28.1946 56.8388 26.6808 51.6698V86.1915Z" fill="#0093C4"/>
</svg>
