<svg width="145" height="145" viewBox="0 0 145 145" fill="none" xmlns="http://www.w3.org/2000/svg">
<path d="M72.4997 132.917C39.1316 132.917 12.083 105.868 12.083 72.4999C12.083 39.1318 39.1316 12.0833 72.4997 12.0833C105.868 12.0833 132.916 39.1318 132.916 72.4999C132.916 105.868 105.868 132.917 72.4997 132.917ZM42.3699 110.297C50.9222 117.134 61.5502 120.851 72.4997 120.833C84.4018 120.833 95.2949 116.532 103.717 109.402C99.7822 105.365 95.0777 102.158 89.8818 99.9702C84.6858 97.7827 79.104 96.6593 73.4663 96.6666C67.6216 96.6599 61.8392 97.868 56.486 100.214C51.1329 102.561 46.3258 105.994 42.3699 110.297ZM33.9297 101.621C39.0074 96.232 45.135 91.9403 51.9347 89.0101C58.7344 86.0799 66.0622 84.5733 73.4663 84.5833C80.6055 84.574 87.6761 85.975 94.2723 88.706C100.868 91.4369 106.86 95.444 111.903 100.497C117.076 93.2175 120.13 84.6475 120.728 75.7377C121.325 66.8279 119.443 57.9267 115.29 50.0216C111.136 42.1165 104.874 35.5166 97.1978 30.9541C89.5216 26.3915 80.7314 24.0448 71.8025 24.1742C62.8736 24.3035 54.1551 26.904 46.6143 31.687C39.0734 36.47 33.0051 43.2486 29.0824 51.2707C25.1597 59.2928 23.5362 68.2448 24.3918 77.1336C25.2474 86.0223 28.5488 94.5002 33.9297 101.627V101.621ZM72.4997 78.5416C66.0903 78.5416 59.9434 75.9955 55.4113 71.4633C50.8791 66.9312 48.333 60.7843 48.333 54.3749C48.333 47.9655 50.8791 41.8186 55.4113 37.2865C59.9434 32.7544 66.0903 30.2083 72.4997 30.2083C78.9091 30.2083 85.056 32.7544 89.5881 37.2865C94.1202 41.8186 96.6663 47.9655 96.6663 54.3749C96.6663 60.7843 94.1202 66.9312 89.5881 71.4633C85.056 75.9955 78.9091 78.5416 72.4997 78.5416ZM72.4997 66.4583C75.7044 66.4583 78.7778 65.1852 81.0439 62.9191C83.3099 60.6531 84.583 57.5796 84.583 54.3749C84.583 51.1702 83.3099 48.0968 81.0439 45.8307C78.7778 43.5646 75.7044 42.2916 72.4997 42.2916C69.295 42.2916 66.2215 43.5646 63.9555 45.8307C61.6894 48.0968 60.4163 51.1702 60.4163 54.3749C60.4163 57.5796 61.6894 60.6531 63.9555 62.9191C66.2215 65.1852 69.295 66.4583 72.4997 66.4583Z" fill="#B8BDC1"/>
<path d="M116 133C130.359 133 142 121.359 142 107C142 92.6406 130.359 81 116 81C101.641 81 90 92.6406 90 107C90 121.359 101.641 133 116 133Z" fill="#F54342"/>
<path d="M127.438 112.942L120.793 106.808L126.927 100.163C127.537 99.5018 127.86 98.6257 127.824 97.7269C127.788 96.8282 127.396 95.9806 126.735 95.3705C126.075 94.7605 125.198 94.4379 124.3 94.4739C123.401 94.5098 122.553 94.9013 121.943 95.5622L115.809 102.207L109.164 96.0733C108.503 95.4633 107.627 95.1407 106.728 95.1767C105.83 95.2126 104.982 95.6041 104.372 96.265C103.762 96.9259 103.439 97.8021 103.475 98.7008C103.511 99.5995 103.903 100.447 104.564 101.057L111.209 107.191L105.075 113.836C104.465 114.497 104.142 115.374 104.178 116.272C104.214 117.171 104.606 118.019 105.266 118.629C105.927 119.239 106.803 119.561 107.702 119.525C108.601 119.489 109.449 119.098 110.059 118.437L116.193 111.792L122.838 117.926C123.499 118.536 124.375 118.858 125.274 118.822C126.172 118.787 127.02 118.395 127.63 117.734C128.24 117.073 128.563 116.197 128.527 115.298C128.491 114.4 128.099 113.552 127.438 112.942Z" fill="white"/>
</svg>
