<svg width="145" height="145" viewBox="0 0 145 145" fill="none" xmlns="http://www.w3.org/2000/svg">
<path d="M120.833 132.917H24.1667C22.5643 132.917 21.0276 132.28 19.8946 131.147C18.7615 130.014 18.125 128.477 18.125 126.875V18.1249C18.125 16.5226 18.7615 14.9858 19.8946 13.8528C21.0276 12.7198 22.5643 12.0833 24.1667 12.0833H120.833C122.436 12.0833 123.972 12.7198 125.105 13.8528C126.238 14.9858 126.875 16.5226 126.875 18.1249V126.875C126.875 128.477 126.238 130.014 125.105 131.147C123.972 132.28 122.436 132.917 120.833 132.917ZM114.792 120.833V24.1666H30.2083V120.833H114.792ZM48.3333 42.2916H96.6667V54.3749H48.3333V42.2916ZM48.3333 66.4583H96.6667V78.5416H48.3333V66.4583ZM48.3333 90.6249H96.6667V102.708H48.3333V90.6249Z" fill="#B8BDC1"/>
<path d="M119 145C133.359 145 145 133.359 145 119C145 104.641 133.359 93 119 93C104.641 93 93 104.641 93 119C93 133.359 104.641 145 119 145Z" fill="#F54342"/>
<path d="M130.438 124.942L123.793 118.808L129.927 112.163C130.537 111.502 130.86 110.626 130.824 109.727C130.788 108.828 130.396 107.981 129.735 107.371C129.075 106.76 128.198 106.438 127.3 106.474C126.401 106.51 125.553 106.901 124.943 107.562L118.809 114.207L112.164 108.073C111.503 107.463 110.627 107.141 109.728 107.177C108.83 107.213 107.982 107.604 107.372 108.265C106.762 108.926 106.439 109.802 106.475 110.701C106.511 111.6 106.903 112.447 107.564 113.057L114.209 119.191L108.075 125.836C107.465 126.497 107.142 127.374 107.178 128.272C107.214 129.171 107.606 130.019 108.266 130.629C108.927 131.239 109.803 131.561 110.702 131.525C111.601 131.489 112.449 131.098 113.059 130.437L119.193 123.792L125.838 129.926C126.499 130.536 127.375 130.858 128.274 130.822C129.172 130.787 130.02 130.395 130.63 129.734C131.24 129.073 131.563 128.197 131.527 127.298C131.491 126.4 131.099 125.552 130.438 124.942Z" fill="white"/>
</svg>
