<svg width="145" height="145" viewBox="0 0 145 145" fill="none" xmlns="http://www.w3.org/2000/svg">
<path d="M126.875 96.6666L90.6069 132.917H24.1667C22.5643 132.917 21.0276 132.28 19.8946 131.147C18.7615 130.014 18.125 128.477 18.125 126.875V18.1249C18.125 16.5226 18.7615 14.9858 19.8946 13.8528C21.0276 12.7198 22.5643 12.0833 24.1667 12.0833H120.833C122.436 12.0833 123.972 12.7198 125.105 13.8528C126.238 14.9858 126.875 16.5226 126.875 18.1249V96.6666ZM114.792 90.6249V24.1666H30.2083V120.833H84.5833V90.6249H114.792Z" fill="#B8BDC1"/>
<path d="M119 52C133.359 52 145 40.3594 145 26C145 11.6406 133.359 0 119 0C104.641 0 93 11.6406 93 26C93 40.3594 104.641 52 119 52Z" fill="#F54342"/>
<path d="M130.438 31.9419L123.793 25.8079L129.927 19.1627C130.537 18.5018 130.86 17.6257 130.824 16.7269C130.788 15.8282 130.396 14.9806 129.735 14.3705C129.075 13.7605 128.198 13.4379 127.3 13.4739C126.401 13.5098 125.553 13.9013 124.943 14.5622L118.809 21.2074L112.164 15.0733C111.503 14.4633 110.627 14.1407 109.728 14.1767C108.83 14.2126 107.982 14.6041 107.372 15.265C106.762 15.9259 106.439 16.8021 106.475 17.7008C106.511 18.5995 106.903 19.4472 107.564 20.0572L114.209 26.1913L108.075 32.8364C107.465 33.4973 107.142 34.3735 107.178 35.2722C107.214 36.1709 107.606 37.0185 108.266 37.6286C108.927 38.2387 109.803 38.5612 110.702 38.5253C111.601 38.4893 112.449 38.0978 113.059 37.4369L119.193 30.7918L125.838 36.9258C126.499 37.5359 127.375 37.8584 128.274 37.8225C129.172 37.7865 130.02 37.395 130.63 36.7341C131.24 36.0732 131.563 35.197 131.527 34.2983C131.491 33.3996 131.099 32.552 130.438 31.9419Z" fill="white"/>
</svg>
