<svg width="145" height="145" viewBox="0 0 145 145" fill="none" xmlns="http://www.w3.org/2000/svg">
<path d="M90.625 24.1666H30.2083V120.833H114.792V48.3333H90.625V24.1666ZM18.125 18.0766C18.125 14.7658 20.8256 12.0833 24.1606 12.0833H96.6667L126.875 42.2916V126.833C126.881 127.626 126.73 128.413 126.431 129.148C126.133 129.883 125.692 130.552 125.135 131.117C124.578 131.682 123.915 132.132 123.184 132.441C122.454 132.749 121.669 132.911 120.876 132.917H24.1244C22.5377 132.906 21.0191 132.271 19.8965 131.149C18.774 130.028 18.1377 128.51 18.125 126.923V18.0766ZM106.678 72.4999L85.3144 93.8633L76.7715 85.3143L89.5858 72.4999L76.7775 59.6855L85.3144 51.1366L106.678 72.4999ZM38.3223 72.4999L59.6917 51.1366L68.2346 59.6855L55.4142 72.4999L68.2225 85.3143L59.6856 93.8633L38.3223 72.4999Z" fill="#B8BDC1"/>
<path d="M118 144C132.359 144 144 132.359 144 118C144 103.641 132.359 92 118 92C103.641 92 92 103.641 92 118C92 132.359 103.641 144 118 144Z" fill="#F54342"/>
<path d="M129.438 123.942L122.793 117.808L128.927 111.163C129.537 110.502 129.86 109.626 129.824 108.727C129.788 107.828 129.396 106.981 128.735 106.371C128.075 105.76 127.198 105.438 126.3 105.474C125.401 105.51 124.553 105.901 123.943 106.562L117.809 113.207L111.164 107.073C110.503 106.463 109.627 106.141 108.728 106.177C107.83 106.213 106.982 106.604 106.372 107.265C105.762 107.926 105.439 108.802 105.475 109.701C105.511 110.6 105.903 111.447 106.564 112.057L113.209 118.191L107.075 124.836C106.465 125.497 106.142 126.374 106.178 127.272C106.214 128.171 106.606 129.019 107.266 129.629C107.927 130.239 108.803 130.561 109.702 130.525C110.601 130.489 111.449 130.098 112.059 129.437L118.193 122.792L124.838 128.926C125.499 129.536 126.375 129.858 127.274 129.822C128.172 129.787 129.02 129.395 129.63 128.734C130.24 128.073 130.563 127.197 130.527 126.298C130.491 125.4 130.099 124.552 129.438 123.942Z" fill="white"/>
</svg>
