<svg width="145" height="145" viewBox="0 0 145 145" fill="none" xmlns="http://www.w3.org/2000/svg">
<path d="M114.791 132.917H30.208C25.401 132.917 20.7908 131.007 17.3917 127.608C13.9926 124.209 12.083 119.599 12.083 114.792V18.1249C12.083 16.5226 12.7195 14.9858 13.8526 13.8528C14.9856 12.7198 16.5223 12.0833 18.1247 12.0833H102.708C104.31 12.0833 105.847 12.7198 106.98 13.8528C108.113 14.9858 108.75 16.5226 108.75 18.1249V90.6249H132.916V114.792C132.916 119.599 131.007 124.209 127.608 127.608C124.209 131.007 119.598 132.917 114.791 132.917ZM108.75 102.708V114.792C108.75 116.394 109.386 117.931 110.519 119.064C111.652 120.197 113.189 120.833 114.791 120.833C116.394 120.833 117.93 120.197 119.063 119.064C120.196 117.931 120.833 116.394 120.833 114.792V102.708H108.75ZM96.6663 120.833V24.1666H24.1663V114.792C24.1663 116.394 24.8029 117.931 25.9359 119.064C27.0689 120.197 28.6057 120.833 30.208 120.833H96.6663ZM36.2497 42.2916H84.583V54.3749H36.2497V42.2916ZM36.2497 66.4583H84.583V78.5416H36.2497V66.4583ZM36.2497 90.6249H66.458V102.708H36.2497V90.6249Z" fill="#B8BDC1"/>
<path d="M107 52C121.359 52 133 40.3594 133 26C133 11.6406 121.359 0 107 0C92.6406 0 81 11.6406 81 26C81 40.3594 92.6406 52 107 52Z" fill="#F54342"/>
<path d="M118.438 31.9419L111.793 25.8079L117.927 19.1627C118.537 18.5018 118.86 17.6257 118.824 16.7269C118.788 15.8282 118.396 14.9806 117.735 14.3705C117.075 13.7605 116.198 13.4379 115.3 13.4739C114.401 13.5098 113.553 13.9013 112.943 14.5622L106.809 21.2074L100.164 15.0733C99.5032 14.4633 98.627 14.1407 97.7283 14.1767C96.8296 14.2126 95.982 14.6041 95.3719 15.265C94.7618 15.9259 94.4393 16.8021 94.4752 17.7008C94.5112 18.5995 94.9027 19.4472 95.5636 20.0572L102.209 26.1913L96.0747 32.8364C95.4647 33.4973 95.1421 34.3735 95.1781 35.2722C95.214 36.1709 95.6055 37.0185 96.2664 37.6286C96.9273 38.2387 97.8035 38.5612 98.7022 38.5253C99.6009 38.4893 100.449 38.0978 101.059 37.4369L107.193 30.7918L113.838 36.9258C114.499 37.5359 115.375 37.8584 116.274 37.8225C117.172 37.7865 118.02 37.395 118.63 36.7341C119.24 36.0732 119.563 35.197 119.527 34.2983C119.491 33.3996 119.099 32.552 118.438 31.9419Z" fill="white"/>
</svg>
