<svg width="145" height="145" viewBox="0 0 145 145" fill="none" xmlns="http://www.w3.org/2000/svg">
<path d="M120.833 132.917H24.1667C22.5643 132.917 21.0276 132.28 19.8946 131.147C18.7615 130.014 18.125 128.477 18.125 126.875V18.1249C18.125 16.5226 18.7615 14.9858 19.8946 13.8528C21.0276 12.7198 22.5643 12.0833 24.1667 12.0833H120.833C122.436 12.0833 123.972 12.7198 125.105 13.8528C126.238 14.9858 126.875 16.5226 126.875 18.1249V126.875C126.875 128.477 126.238 130.014 125.105 131.147C123.972 132.28 122.436 132.917 120.833 132.917ZM114.792 120.833V24.1666H30.2083V120.833H114.792ZM48.3333 42.2916H96.6667V54.3749H48.3333V42.2916ZM48.3333 66.4583H96.6667V78.5416H48.3333V66.4583ZM48.3333 90.6249H96.6667V102.708H48.3333V90.6249Z" fill="#B8BDC1"/>
</svg>
