<svg width="145" height="145" viewBox="0 0 145 145" fill="none" xmlns="http://www.w3.org/2000/svg">
<path d="M114.791 132.917H30.208C25.401 132.917 20.7908 131.007 17.3917 127.608C13.9926 124.209 12.083 119.599 12.083 114.792V18.1249C12.083 16.5226 12.7195 14.9858 13.8526 13.8528C14.9856 12.7198 16.5223 12.0833 18.1247 12.0833H102.708C104.31 12.0833 105.847 12.7198 106.98 13.8528C108.113 14.9858 108.75 16.5226 108.75 18.1249V90.6249H132.916V114.792C132.916 119.599 131.007 124.209 127.608 127.608C124.209 131.007 119.598 132.917 114.791 132.917ZM108.75 102.708V114.792C108.75 116.394 109.386 117.931 110.519 119.064C111.652 120.197 113.189 120.833 114.791 120.833C116.394 120.833 117.93 120.197 119.063 119.064C120.196 117.931 120.833 116.394 120.833 114.792V102.708H108.75ZM96.6663 120.833V24.1666H24.1663V114.792C24.1663 116.394 24.8029 117.931 25.9359 119.064C27.0689 120.197 28.6057 120.833 30.208 120.833H96.6663ZM36.2497 42.2916H84.583V54.3749H36.2497V42.2916ZM36.2497 66.4583H84.583V78.5416H36.2497V66.4583ZM36.2497 90.6249H66.458V102.708H36.2497V90.6249Z" fill="#B8BDC1"/>
</svg>
