<svg width="145" height="145" viewBox="0 0 145 145" fill="none" xmlns="http://www.w3.org/2000/svg">
<path d="M72.4997 132.917C39.1316 132.917 12.083 105.868 12.083 72.4999C12.083 39.1318 39.1316 12.0833 72.4997 12.0833C105.868 12.0833 132.916 39.1318 132.916 72.4999C132.916 105.868 105.868 132.917 72.4997 132.917ZM42.3699 110.297C50.9222 117.134 61.5502 120.851 72.4997 120.833C84.4018 120.833 95.2949 116.532 103.717 109.402C99.7822 105.365 95.0777 102.158 89.8818 99.9702C84.6858 97.7827 79.104 96.6593 73.4663 96.6666C67.6216 96.6599 61.8392 97.868 56.486 100.214C51.1329 102.561 46.3258 105.994 42.3699 110.297ZM33.9297 101.621C39.0074 96.232 45.135 91.9403 51.9347 89.0101C58.7344 86.0799 66.0622 84.5733 73.4663 84.5833C80.6055 84.574 87.6761 85.975 94.2723 88.706C100.868 91.4369 106.86 95.444 111.903 100.497C117.076 93.2175 120.13 84.6475 120.728 75.7377C121.325 66.8279 119.443 57.9267 115.29 50.0216C111.136 42.1165 104.874 35.5166 97.1978 30.9541C89.5216 26.3915 80.7314 24.0448 71.8025 24.1742C62.8736 24.3035 54.1551 26.904 46.6143 31.687C39.0734 36.47 33.0051 43.2486 29.0824 51.2707C25.1597 59.2928 23.5362 68.2448 24.3918 77.1336C25.2474 86.0223 28.5488 94.5002 33.9297 101.627V101.621ZM72.4997 78.5416C66.0903 78.5416 59.9434 75.9955 55.4113 71.4633C50.8791 66.9312 48.333 60.7843 48.333 54.3749C48.333 47.9655 50.8791 41.8186 55.4113 37.2865C59.9434 32.7544 66.0903 30.2083 72.4997 30.2083C78.9091 30.2083 85.056 32.7544 89.5881 37.2865C94.1202 41.8186 96.6663 47.9655 96.6663 54.3749C96.6663 60.7843 94.1202 66.9312 89.5881 71.4633C85.056 75.9955 78.9091 78.5416 72.4997 78.5416ZM72.4997 66.4583C75.7044 66.4583 78.7778 65.1852 81.0439 62.9191C83.3099 60.6531 84.583 57.5796 84.583 54.3749C84.583 51.1702 83.3099 48.0968 81.0439 45.8307C78.7778 43.5646 75.7044 42.2916 72.4997 42.2916C69.295 42.2916 66.2215 43.5646 63.9555 45.8307C61.6894 48.0968 60.4163 51.1702 60.4163 54.3749C60.4163 57.5796 61.6894 60.6531 63.9555 62.9191C66.2215 65.1852 69.295 66.4583 72.4997 66.4583Z" fill="#B8BDC1"/>
</svg>
