<svg width="145" height="145" viewBox="0 0 145 145" fill="none" xmlns="http://www.w3.org/2000/svg">
<path d="M60.2541 108.75H66.4589V78.5416H78.5422V108.75H84.747C85.5445 101.488 89.2481 95.4945 95.2595 88.9514C95.9422 88.2143 100.286 83.7133 100.8 83.0729C105.067 77.7419 107.742 71.3141 108.516 64.5296C109.29 57.7452 108.132 50.8801 105.175 44.7248C102.219 38.5696 97.5839 33.3746 91.8044 29.7381C86.0248 26.1016 79.3356 24.1715 72.5071 24.17C65.6786 24.1686 58.9886 26.0958 53.2075 29.7299C47.4263 33.3639 42.7892 38.5569 39.83 44.7109C36.8709 50.8649 35.7101 57.7295 36.4813 64.5143C37.2526 71.299 39.9245 77.728 44.1893 83.0608C44.7089 83.7073 49.065 88.2143 49.7356 88.9454C55.7531 95.4945 59.4566 101.488 60.2541 108.75ZM60.4172 120.833V126.875H84.5839V120.833H60.4172ZM34.7643 90.625C29.0742 83.5157 25.5082 74.9436 24.477 65.8962C23.4458 56.8488 24.9913 47.6941 28.9357 39.4868C32.88 31.2794 39.0626 24.3532 46.7713 19.506C54.48 14.6588 63.4011 12.0879 72.5071 12.0894C81.6131 12.0908 90.5334 14.6646 98.2406 19.5142C105.948 24.3639 112.128 31.2921 116.07 39.5007C120.011 47.7094 121.554 56.8645 120.52 65.9116C119.486 74.9587 115.917 83.5296 110.225 90.637C106.479 95.3012 96.6672 102.708 96.6672 111.771V126.875C96.6672 130.08 95.3942 133.153 93.1281 135.419C90.862 137.685 87.7886 138.958 84.5839 138.958H60.4172C57.2125 138.958 54.1391 137.685 51.873 135.419C49.607 133.153 48.3339 130.08 48.3339 126.875V111.771C48.3339 102.708 38.5162 95.3012 34.7643 90.625Z" fill="#B8BDC1"/>
<path d="M108 58C122.359 58 134 46.3594 134 32C134 17.6406 122.359 6 108 6C93.6406 6 82 17.6406 82 32C82 46.3594 93.6406 58 108 58Z" fill="#36B038"/>
<path d="M121 23L103.125 40.875L95 32.75" stroke="white" stroke-width="6.9" stroke-linecap="round" stroke-linejoin="round"/>
</svg>
