<svg width="145" height="145" viewBox="0 0 145 145" fill="none" xmlns="http://www.w3.org/2000/svg">
<path d="M126.875 96.6666L90.6069 132.917H24.1667C22.5643 132.917 21.0276 132.28 19.8946 131.147C18.7615 130.014 18.125 128.477 18.125 126.875V18.1249C18.125 16.5226 18.7615 14.9858 19.8946 13.8528C21.0276 12.7198 22.5643 12.0833 24.1667 12.0833H120.833C122.436 12.0833 123.972 12.7198 125.105 13.8528C126.238 14.9858 126.875 16.5226 126.875 18.1249V96.6666ZM114.792 90.6249V24.1666H30.2083V120.833H84.5833V90.6249H114.792Z" fill="#B8BDC1"/>
<path d="M119 52C133.359 52 145 40.3594 145 26C145 11.6406 133.359 0 119 0C104.641 0 93 11.6406 93 26C93 40.3594 104.641 52 119 52Z" fill="#36B038"/>
<path d="M132 17L114.125 34.875L106 26.75" stroke="white" stroke-width="6.9" stroke-linecap="round" stroke-linejoin="round"/>
</svg>
