<svg width="145" height="145" viewBox="0 0 145 145" fill="none" xmlns="http://www.w3.org/2000/svg">
<path d="M90.625 24.1666H30.2083V120.833H114.792V48.3333H90.625V24.1666ZM18.125 18.0766C18.125 14.7658 20.8256 12.0833 24.1606 12.0833H96.6667L126.875 42.2916V126.833C126.881 127.626 126.73 128.413 126.431 129.148C126.133 129.883 125.692 130.552 125.135 131.117C124.578 131.682 123.915 132.132 123.184 132.441C122.454 132.749 121.669 132.911 120.876 132.917H24.1244C22.5377 132.906 21.0191 132.271 19.8965 131.149C18.774 130.028 18.1377 128.51 18.125 126.923V18.0766ZM106.678 72.4999L85.3144 93.8633L76.7715 85.3143L89.5858 72.4999L76.7775 59.6855L85.3144 51.1366L106.678 72.4999ZM38.3223 72.4999L59.6917 51.1366L68.2346 59.6855L55.4142 72.4999L68.2225 85.3143L59.6856 93.8633L38.3223 72.4999Z" fill="#B8BDC1"/>
<path d="M118 144C132.359 144 144 132.359 144 118C144 103.641 132.359 92 118 92C103.641 92 92 103.641 92 118C92 132.359 103.641 144 118 144Z" fill="#36B038"/>
<path d="M131 109L113.125 126.875L105 118.75" stroke="white" stroke-width="6.9" stroke-linecap="round" stroke-linejoin="round"/>
</svg>
