<svg id="Layer_1" data-name="Layer 1" xmlns="http://www.w3.org/2000/svg" viewBox="0 0 984.81 257.51"><defs><style>.cls-1{font-size:205px;fill:#ceeeeb;font-family:Constantia;letter-spacing:-0.01em;}.cls-2{letter-spacing:0em;}.cls-3{letter-spacing:-0.02em;}.cls-4{letter-spacing:0em;}.cls-5{letter-spacing:-0.02em;}.cls-6{fill:#c58bfe;}.cls-7{fill:#f15a3c;}.cls-8{fill:#fe7e40;}.cls-9{fill:#a97ffe;}</style></defs><text class="cls-1" transform="translate(279.91 206.16)">P<tspan class="cls-2" x="116.71" y="0">a</tspan><tspan class="cls-3" x="215.1" y="0">r</tspan><tspan class="cls-4" x="290.18" y="0">ajec</tspan><tspan class="cls-5" x="635.71" y="0">t</tspan></text><g id="design_1" data-name="design 1"><path class="cls-6" d="M192.68,269.8c9.83,9.8,19.3,19.95,29.12,29.75-8,8.43-17.1,15.26-28.18,19a48.52,48.52,0,0,1-33.7-.81,75.21,75.21,0,0,1-23.43-14.4c-2.29-2-5.86-5.61-8.11-7.67-.94-.86-.76-1.54-.06-2.41,6-7.37,13.32-13.33,19.24-20.73,3-3.77,6-7.57,8.95-11.4.8-1,1.28-.66,1.93,0a86.6,86.6,0,0,0,10.17,9.07c3.75,2.76,7.71,5.07,12.65,5.08a14.16,14.16,0,0,0,9.5-3.95C191.37,270.81,192,270.32,192.68,269.8Z" transform="translate(-3.52 -125.45)"/><g id="Custom_P_main" data-name="Custom P main"><path class="cls-7" d="M136,287.49c1.44-1.44,58.58-46.51,3.92-99.05-24.85-21.29-63.53-18.1-89.09,11-8.87,8.87,28,30.9,28,30.9s16-18.12,31.26-2.86c12.06,14.2-1.78,28-3.2,29.46S136,287.49,136,287.49Z" transform="translate(-3.52 -125.45)"/><path class="cls-8" d="M165.78,355.62l-22.15,22.15a15.35,15.35,0,0,1-21.72,0L8,263.86a15.3,15.3,0,0,1,0-21.63l42.78-42.78,29.46,29.46L63.91,245.24a5,5,0,0,0,0,7.09l20.24,20.24a5,5,0,0,0,7.09,0l16.33-16.33,29.82,29.81L116.8,306.64Z" transform="translate(-3.52 -125.45)"/></g><path class="cls-9" d="M222,299.41l33.8-33.81a15.32,15.32,0,0,0,0-21.68l-41-41Z" transform="translate(-3.52 -125.45)"/><path class="cls-9" d="M192.68,269.8c.58-1.46,1.91-2.34,2.79-3.59a10.9,10.9,0,0,0,.84-11.81c-1.76-3.62-4.53-6.48-7.33-9.29q-45.53-45.74-91.17-91.35c-.27-.27-.57-.49-.85-.74L120,129.94a15.31,15.31,0,0,1,21.65,0q38.13,38.09,76.16,76.24c9.09,9.15,16.74,19.43,21.37,31.68,6.36,16.87,3.88,32.83-6.22,48a81.49,81.49,0,0,1-11.2,13.72,3.11,3.11,0,0,1-2.19-1.3C211,289.62,202.68,280.62,194,272A3.82,3.82,0,0,1,192.68,269.8Z" transform="translate(-3.52 -125.45)"/></g></svg>