<svg id="Layer_1" data-name="Layer 1" xmlns="http://www.w3.org/2000/svg" xmlns:xlink="http://www.w3.org/1999/xlink" viewBox="0 0 999 257.51"><defs><style>.cls-1{fill:url(#linear-gradient);}.cls-2{fill:url(#linear-gradient-2);}.cls-3{font-size:205.55px;fill:#2e3135;font-family:Constantia;}.cls-4{letter-spacing:-0.01em;}.cls-5{letter-spacing:0em;}.cls-6{letter-spacing:-0.02em;}.cls-7{letter-spacing:-0.02em;}</style><linearGradient id="linear-gradient" x1="24.18" y1="309.91" x2="195.51" y2="218.29" gradientUnits="userSpaceOnUse"><stop offset="0" stop-color="#fb8136"/><stop offset="0.51" stop-color="#f36a1d"/><stop offset="1" stop-color="#ea5101"/></linearGradient><linearGradient id="linear-gradient-2" x1="229.52" y1="160.74" x2="93.65" y2="252.19" gradientUnits="userSpaceOnUse"><stop offset="0" stop-color="#ce84e1"/><stop offset="0.21" stop-color="#c77eda"/><stop offset="0.52" stop-color="#b36dc7"/><stop offset="0.88" stop-color="#9351a9"/><stop offset="1" stop-color="#87479d"/></linearGradient></defs><path class="cls-1" d="M114.59,292.61l19.2-19.2.06-.06c2.59-2.34,58.1-47.14,3.87-99.26-24.92-21.35-63.7-18.15-89.33,11L5.49,228a15.34,15.34,0,0,0,0,21.69L119.71,363.93a15.39,15.39,0,0,0,21.78,0l22.21-22.21Zm-9.71-50.09-.26.26L89,258.44a5,5,0,0,1-7.11,0l-20.3-20.29a5,5,0,0,1,0-7.11l14.93-14.93,1.45-1.45c4.27-4,17.32-14,29.9-1.42C119.39,226.86,107.21,240.14,104.88,242.52Z" transform="translate(-1 -110.93)"/><path class="cls-2" d="M254,251.46l-33.89,33.9v-.05l-.2.19c-8,8.45-17.14,15.3-28.26,19.09a48.72,48.72,0,0,1-33.79-.82,75.6,75.6,0,0,1-23.49-14.44c-2.3-2-5.88-5.63-8.13-7.69-1-.86-.76-1.55-.06-2.41,6-7.4,13.35-13.38,19.29-20.8,3-3.78,6-7.58,9-11.43.81-1,1.29-.66,1.94,0a87.23,87.23,0,0,0,10.2,9.11c3.76,2.76,7.73,5.07,12.68,5.09a14.29,14.29,0,0,0,9.53-4c.61-.56,1.28-1.05,1.92-1.57.58-1.47,1.92-2.35,2.8-3.6a10.91,10.91,0,0,0,.84-11.84c-1.76-3.64-4.54-6.5-7.35-9.32q-45.65-45.85-91.42-91.6c-.27-.27-.57-.49-.85-.73l23.14-23.15a15.34,15.34,0,0,1,21.71,0q36.69,36.63,73.29,73.34l0-.21L254,229.72A15.36,15.36,0,0,1,254,251.46Z" transform="translate(-1 -110.93)"/><text class="cls-3" transform="translate(292.18 189.58)"><tspan class="cls-4">P</tspan><tspan class="cls-5" x="117.03" y="0">a</tspan><tspan class="cls-6" x="215.69" y="0">r</tspan><tspan x="290.97" y="0">ajec</tspan><tspan class="cls-7" x="637.44" y="0">t</tspan></text></svg>