<svg id="Layer_1" data-name="Layer 1" xmlns="http://www.w3.org/2000/svg" xmlns:xlink="http://www.w3.org/1999/xlink" viewBox="0 0 999 238.66"><defs><style>.cls-1{fill:url(#linear-gradient);}.cls-2{fill:url(#linear-gradient-2);}.cls-3{font-size:190.51px;fill:#ceeeeb;font-family:Constantia-Bold, Constantia;font-weight:700;}.cls-4{letter-spacing:-0.01em;}.cls-5{letter-spacing:-0.02em;}.cls-6{letter-spacing:-0.02em;}</style><linearGradient id="linear-gradient" x1="22.49" y1="314.19" x2="181.27" y2="229.28" gradientUnits="userSpaceOnUse"><stop offset="0" stop-color="#fb8136"/><stop offset="0.51" stop-color="#f36a1d"/><stop offset="1" stop-color="#ea5101"/></linearGradient><linearGradient id="linear-gradient-2" x1="212.79" y1="175.94" x2="86.87" y2="260.7" gradientUnits="userSpaceOnUse"><stop offset="0" stop-color="#ce84e1"/><stop offset="0.21" stop-color="#c77eda"/><stop offset="0.52" stop-color="#b36dc7"/><stop offset="0.88" stop-color="#9351a9"/><stop offset="1" stop-color="#87479d"/></linearGradient></defs><path class="cls-1" d="M106.27,298.16l17.8-17.79.05-.06c2.4-2.17,53.85-43.69,3.59-92-23.09-19.79-59-16.83-82.79,10.22L5.16,238.3a14.21,14.21,0,0,0,0,20.1L111,364.26a14.27,14.27,0,0,0,20.19,0l20.58-20.58Zm-9-46.42L97,252,82.52,266.5a4.66,4.66,0,0,1-6.59,0L57.12,247.69a4.66,4.66,0,0,1,0-6.59L71,227.26l1.34-1.34c4-3.7,16-13,27.71-1.32C110.72,237.22,99.43,249.53,97.28,251.74Z" transform="translate(-1 -129.78)"/><path class="cls-2" d="M235.45,260,204,291.44v-.05l-.19.18c-7.44,7.83-15.89,14.18-26.19,17.69a45.1,45.1,0,0,1-31.32-.76,70,70,0,0,1-21.77-13.38c-2.13-1.89-5.45-5.22-7.54-7.13-.87-.79-.7-1.43,0-2.23,5.53-6.86,12.38-12.4,17.88-19.27,2.8-3.51,5.59-7,8.31-10.6.75-1,1.19-.61,1.8,0a80.47,80.47,0,0,0,9.45,8.44c3.48,2.56,7.16,4.7,11.76,4.72a13.22,13.22,0,0,0,8.82-3.67c.57-.52,1.19-1,1.79-1.46.54-1.36,1.77-2.17,2.59-3.34a10.11,10.11,0,0,0,.78-11c-1.63-3.37-4.21-6-6.81-8.64q-42.3-42.51-84.73-84.9c-.25-.25-.53-.45-.79-.68L109.28,134a14.22,14.22,0,0,1,20.12,0q34,33.95,67.93,68l0-.2,38.14,38.14A14.27,14.27,0,0,1,235.45,260Z" transform="translate(-1 -129.78)"/><text class="cls-3" transform="translate(270.79 175.7)"><tspan class="cls-4">P</tspan><tspan x="119.9" y="0">a</tspan><tspan class="cls-5" x="221.95" y="0">r</tspan><tspan x="301.39" y="0">ajec</tspan><tspan class="cls-6" x="658.03" y="0">t</tspan></text></svg>